<?xml version="1.0" encoding="UTF-8" standalone="no"?>
<!-- Created with Inkscape (http://www.inkscape.org/) -->

<svg
   width="208.9594mm"
   height="212.61255mm"
   viewBox="0 0 208.9594 212.61255"
   version="1.1"
   id="svg1"
   xml:space="preserve"
   inkscape:export-filename="brain_naranja.svg"
   inkscape:export-xdpi="85.521889"
   inkscape:export-ydpi="85.521889"
   sodipodi:docname="brain.svg"
   xmlns:inkscape="http://www.inkscape.org/namespaces/inkscape"
   xmlns:sodipodi="http://sodipodi.sourceforge.net/DTD/sodipodi-0.dtd"
   xmlns="http://www.w3.org/2000/svg"
   xmlns:svg="http://www.w3.org/2000/svg"><sodipodi:namedview
     id="namedview1"
     pagecolor="#505050"
     bordercolor="#eeeeee"
     borderopacity="1"
     inkscape:showpageshadow="0"
     inkscape:pageopacity="0"
     inkscape:pagecheckerboard="0"
     inkscape:deskcolor="#505050"
     inkscape:document-units="mm"
     showguides="false" /><defs
     id="defs1" /><g
     inkscape:label="Capa 1"
     inkscape:groupmode="layer"
     id="layer1"
     transform="translate(-0.52030182,-42.193733)"><rect
       style="display:none;fill:#ffffff;fill-opacity:1;stroke:none;stroke-width:2.2;stroke-linecap:square;stroke-linejoin:bevel;paint-order:stroke fill markers"
       id="rect1"
       width="208.9594"
       height="212.61253"
       x="0.52030182"
       y="42.193733"
       sodipodi:insensitive="true" /><path
       d="m 126.86608,236.11196 c -1.30594,-0.17968 -3.00944,-0.56545 -3.78556,-0.85726 -4.43266,-1.66664 -8.19603,-5.89599 -10.21749,-11.48256 -0.68971,-1.90612 -0.79758,-2.59688 -1.01775,-6.51674 -0.37746,-6.72047 -0.60523,-131.659852 -0.25337,-138.977602 0.35116,-7.303035 0.58485,-8.502829 2.01806,-10.360521 3.24857,-4.21075 7.40108,-6.402192 12.13138,-6.402192 5.79613,0 9.81491,2.926946 13.15494,9.580983 2.7169,5.412656 4.76828,6.171663 10.96431,4.056771 6.21303,-2.120685 11.64396,-1.01658 15.89038,3.230515 2.77603,2.77645 3.84813,5.639584 3.84448,10.266996 -0.001,2.93865 -0.26183,3.99172 -1.7246,6.99833 -1.64106,3.37301 -3.90676,6.51245 -6.76293,9.37087 -3.11119,3.11368 -4.02143,3.56207 -7.49304,3.69114 -3.29369,0.12252 -6.05307,-0.53141 -10.25274,-2.42957 -3.41775,-1.54475 -5.46019,-2.11924 -6.7044,-1.88582 -2.29114,0.42982 -4.28172,2.27505 -4.95584,4.59395 -0.7045,2.42341 -0.007,4.69865 1.96643,6.40037 2.24325,1.9359 9.69879,4.9283 14.36324,5.7649 2.84862,0.51092 7.66325,0.51589 10.01271,0.0111 4.61442,-0.9929 8.19271,-3.05593 12.17714,-7.02059 2.46443,-2.45221 5.73232,-6.5227 6.88943,-8.58147 0.6739,-1.19905 1.08772,-1.28058 3.25962,-0.64226 3.42025,1.00525 6.62295,3.40784 8.17502,6.13273 1.45122,2.54787 1.89113,4.28266 1.89295,7.46495 9.4e-4,2.47444 -0.0923,3.14652 -0.67254,4.83082 -0.69218,2.00879 -1.90807,4.13559 -3.23028,5.65034 -1.13299,1.29797 -1.92802,3.2019 -1.93084,4.62383 -0.004,2.52476 1.48717,4.3382 5.52503,6.71461 6.68788,3.93603 10.18196,9.3727 10.63408,16.54627 0.55273,8.77019 -5.1903,17.86147 -12.34315,19.53929 -2.68023,0.62868 -13.729,0.63687 -17.31816,0.0122 -8.06127,-1.40161 -12.95461,-4.2878 -17.0465,-10.05436 -3.71608,-5.23691 -4.6922,-9.04538 -4.70085,-18.34087 -0.007,-6.6476 -0.12465,-7.21255 -1.8263,-8.7066 -0.91773,-0.80578 -2.94738,-1.57071 -4.16762,-1.57071 -1.1201,0 -2.89197,0.73568 -3.94712,1.63885 -2.08829,1.7875 -2.77862,4.59687 -2.79102,11.35805 -0.009,5.08243 0.30063,8.03131 1.15591,10.99738 1.21959,4.22947 3.75061,9.35865 6.38257,12.93444 0.6395,0.8688 0.84339,1.31217 0.60343,1.31217 -0.73447,0 -5.93044,2.80227 -7.94648,4.28566 -2.74345,2.01863 -6.79938,6.12255 -8.36235,8.46131 -2.5571,3.82634 -4.57351,8.09031 -5.1254,10.83841 -0.40118,1.99765 0.19626,3.84213 1.74666,5.39257 3.3302,3.33018 8.16579,2.39 10.20627,-1.98438 0.28856,-0.6186 0.9295,-1.98489 1.42429,-3.03621 1.74924,-3.71666 5.7809,-8.28148 8.9997,-10.18985 4.49402,-2.66444 10.92162,-3.93113 14.65835,-2.88877 8.03694,2.24189 10.78536,2.64974 18.91065,2.80624 l 6.29666,0.12129 0.27655,1.28242 c 0.65129,3.02012 0.79649,5.09317 0.5175,7.3877 -0.6131,5.04263 -2.37431,8.69309 -5.86088,12.14793 -2.51724,2.49432 -4.77923,3.85468 -8.15135,4.90226 -2.27613,0.70709 -6.09306,0.78339 -11.80661,0.23598 -2.84014,-0.27212 -3.90283,-0.28721 -4.64125,-0.066 -1.41373,0.42356 -2.66875,1.8273 -3.47544,3.88722 -0.79998,2.04277 -4.35771,7.52199 -6.41645,9.88185 -5.23721,6.00324 -10.5066,7.83088 -19.14943,6.64178 z m -53.591012,-0.74547 c -3.468252,-0.72177 -7.278258,-2.99132 -10.172778,-6.05965 -1.360209,-1.4419 -3.220244,-4.11712 -3.220244,-4.63158 0,-0.0724 0.47802,-0.37929 1.062251,-0.68177 3.122564,-1.61673 8.217197,-5.57954 11.458882,-8.91317 5.019136,-5.16152 7.880077,-10.42901 9.00569,-16.58113 0.564297,-3.08418 0.425238,-10.52976 -0.256531,-13.7359 -0.68435,-3.2183 -1.907512,-6.55231 -3.684195,-10.04211 -3.231036,-6.34643 -8.390095,-11.38697 -14.690251,-14.35276 -4.7946,-2.25705 -8.875244,-3.17513 -14.268141,-3.21008 -4.173629,-0.0269 -5.099768,0.21682 -6.931733,1.8253 -2.67964,2.35276 -2.943771,6.87327 -0.532634,9.11538 1.245112,1.15781 3.104172,1.67026 6.959239,1.9183 1.927434,0.12405 4.179267,0.35114 5.00407,0.50468 3.362267,0.62592 6.806563,2.40442 9.334016,4.81968 4.257106,4.06816 7.784072,14.0212 6.993296,19.73503 -0.32007,2.31272 -1.490361,5.93039 -2.465172,7.62045 -1.743398,3.02258 -5.943451,6.63036 -10.519943,9.03644 -4.732686,2.48821 -8.61794,3.56778 -12.839952,3.56778 -3.568475,0 -5.827166,-0.52211 -9.116669,-2.10747 -2.3347,-1.12519 -2.877574,-1.52228 -5.013015,-3.66682 -2.034485,-2.04313 -2.570745,-2.7622 -3.564269,-4.77938 -1.648508,-3.34706 -2.225074,-5.71082 -2.255719,-9.24781 -0.02987,-3.44197 0.249562,-4.82829 1.855783,-9.20854 1.300307,-3.54599 1.461347,-4.73341 0.842708,-6.21404 -0.806014,-1.92906 -2.007484,-3.01514 -4.830625,-4.36668 -5.167397,-2.47383 -7.900433,-5.00895 -10.038785,-9.31181 -1.7281293,-3.47742 -2.3534743,-6.45457 -2.1559833,-10.26456 0.174025,-3.35753 0.611205,-5.0733 2.0378543,-7.99809 1.807568,-3.70568 3.95747,-5.8805 8.792849,-8.89484 1.538836,-0.9593 3.234248,-2.23993 3.767598,-2.84585 2.255338,-2.56219 2.028024,-5.53854 -0.668608,-8.75443 -0.576352,-0.68734 -1.494339,-2.14948 -2.03997,-3.24923 -3.616173,-7.28853 -1.217623,-15.68973 5.485013,-19.21187 1.499262,-0.78783 5.163817,-1.89593 5.375587,-1.62548 0.03977,0.0507 0.66594,1.08532 1.391524,2.29901 3.121574,5.22148 6.872806,8.87979 12.201411,11.89921 2.584476,1.46449 5.456046,2.68479 11.180169,4.75115 6.90284,2.49187 8.932556,3.37597 11.247324,4.89912 5.089498,3.34898 9.46397,8.34664 12.395282,14.16112 1.722548,3.41684 3.24014,4.37019 7.368721,4.62908 2.414373,0.15132 3.272723,-0.18935 4.268825,-1.69457 0.803362,-1.21394 0.851417,-2.36573 0.239232,-5.73518 -0.82291,-4.52952 -2.89904,-8.5306 -6.901321,-13.3001 -1.168518,-1.39254 -3.043425,-3.35035 -4.166457,-4.35069 l -2.041897,-1.81882 0.917258,-0.53894 c 5.350968,-3.144 11.455848,-9.26544 12.940282,-12.97542 0.490813,-1.22668 0.373894,-3.50063 -0.241148,-4.69 -1.515743,-2.93109 -5.336836,-4.2555 -8.144739,-2.82302 -0.599116,0.30564 -2.674847,2.09283 -4.612683,3.97151 -3.944137,3.82373 -5.238955,4.84157 -7.772889,6.11019 -2.995474,1.49969 -4.345718,1.79923 -7.997579,1.77415 -3.48067,-0.0239 -5.390002,-0.40261 -8.794587,-1.74438 -4.505845,-1.77577 -8.76135,-5.21299 -10.885469,-8.79233 -1.390915,-2.34378 -2.995277,-6.22461 -3.592248,-8.68929 -0.636378,-2.62736 -0.576078,-6.563242 0.132119,-8.619424 1.119257,-3.249908 3.551911,-5.979577 6.758608,-7.58382 3.921446,-1.961825 7.615228,-2.12455 12.257611,-0.539954 1.443396,0.492685 3.322067,0.96322 4.174817,1.045663 1.3468,0.130132 1.726606,0.06368 2.891822,-0.506407 1.48349,-0.725804 2.362984,-1.781113 3.677477,-4.412623 2.532939,-5.070773 5.779802,-8.189389 9.733874,-9.349411 1.729779,-0.507474 5.211865,-0.515185 7.129167,-0.01585 4.117794,1.07255 7.763016,4.142055 9.851773,8.295829 l 0.78195,1.554993 -0.007,69.803044 c -0.003,38.39163 -0.10954,72.05247 -0.2352,74.8018 -0.19679,4.3066 -0.31726,5.26897 -0.87002,6.94978 -2.212958,6.72898 -6.72468,10.9299 -13.759433,12.81158 -2.115568,0.56586 -7.987939,0.70079 -10.226336,0.23496 z"
       style="fill:#f57037;fill-opacity:1;stroke-width:0.944657"
       id="path1" /></g></svg>
