<?xml version="1.0" encoding="UTF-8" standalone="no"?>
<!-- Created with Inkscape (http://www.inkscape.org/) -->

<svg
   width="46.476051mm"
   height="41.847019mm"
   viewBox="0 0 46.476051 41.847019"
   version="1.1"
   id="svg1"
   xml:space="preserve"
   xmlns:inkscape="http://www.inkscape.org/namespaces/inkscape"
   xmlns:sodipodi="http://sodipodi.sourceforge.net/DTD/sodipodi-0.dtd"
   xmlns="http://www.w3.org/2000/svg"
   xmlns:svg="http://www.w3.org/2000/svg"><sodipodi:namedview
     id="namedview1"
     pagecolor="#ffffff"
     bordercolor="#000000"
     borderopacity="0.25"
     inkscape:showpageshadow="2"
     inkscape:pageopacity="0.0"
     inkscape:pagecheckerboard="0"
     inkscape:deskcolor="#d1d1d1"
     inkscape:document-units="mm" /><defs
     id="defs1" /><g
     inkscape:label="Capa 1"
     inkscape:groupmode="layer"
     id="layer1"
     transform="translate(-233.74898,-105.41027)"><path
       style="fill:#7917ca;fill-opacity:1;stroke-width:0.243293"
       d="m 233.74898,126.33662 v -20.92067 h 16.92965 16.92965 v 20.92067 20.92067 h -16.92965 -16.92965 z m 28.68034,15.74171 c 0.21496,-0.21497 0.21496,-0.56334 0,-0.77831 l -0.15801,-0.158 h -11.56252 -11.56253 l -0.18816,0.18816 c -0.25781,0.25781 -0.23156,0.59691 0.0637,0.82364 0.0794,0.061 2.67942,0.0789 11.6758,0.0805 l 11.57366,0.002 z m -0.0302,-6.14544 c 0.23137,-0.23137 0.24749,-0.50846 0.0433,-0.74471 l -0.14483,-0.16759 -11.49028,0.002 c -6.31965,0.001 -11.54229,0.003 -11.60585,0.003 -0.17918,0.001 -0.43158,0.29281 -0.43158,0.49853 0,0.21726 0.15449,0.45594 0.34484,0.53276 0.0759,0.0306 5.30355,0.0575 11.61708,0.0597 l 11.47913,0.004 z m 0.0302,-6.14948 c 0.23263,-0.23264 0.21589,-0.55429 -0.0401,-0.76966 l -0.19805,-0.16665 h -11.52243 -11.52248 l -0.18816,0.18816 c -0.10349,0.1035 -0.18816,0.24977 -0.18816,0.32506 0,0.17132 0.16338,0.49422 0.27222,0.53801 0.045,0.0181 5.28997,0.0352 11.65549,0.038 l 11.57366,0.005 z m -13.99798,-6.14142 c 0.11928,-0.14733 0.12303,-0.34634 0.12303,-6.52052 v -6.36855 l -0.158,-0.15801 -0.158,-0.158 h -4.56756 -4.56757 l -0.16665,0.19806 -0.16665,0.19805 v 6.3084 6.3084 l 0.18942,0.18942 0.18943,0.18943 4.57976,-0.0173 4.57975,-0.0173 z m -8.56709,-6.51046 v -5.60031 h 3.79791 3.7979 v 5.60031 5.6003 h -3.7979 -3.79791 z m 22.52501,6.52796 c 0.25595,-0.21537 0.27269,-0.53702 0.0401,-0.76966 l -0.158,-0.158 h -4.24021 -4.24021 l -0.15284,0.16269 c -0.21943,0.23357 -0.20856,0.57852 0.0246,0.77903 l 0.17739,0.15259 h 4.17561 4.1756 z m 0.0532,-6.1739 c 0.20412,-0.23694 0.18802,-0.5139 -0.0433,-0.74524 l -0.18817,-0.18817 h -4.12791 c -4.52819,0 -4.40796,-0.0101 -4.57086,0.3832 -0.0641,0.15467 -0.0648,0.23586 -0.003,0.38394 0.1521,0.36721 0.0625,0.36047 4.6105,0.34687 l 4.17839,-0.0125 z m -0.11725,-6.04854 c 0.31264,-0.16168 0.36456,-0.58166 0.10409,-0.84214 l -0.15801,-0.158 h -4.21565 -4.21566 l -0.17739,0.15259 c -0.24858,0.21382 -0.24858,0.57532 0,0.78914 l 0.17739,0.15258 h 4.15156 c 3.51772,0 4.17936,-0.0144 4.33367,-0.0942 z m 14.13032,31.69025 c -0.63519,-1.70329 -1.16456,-3.12196 -1.17636,-3.15261 -0.0118,-0.0308 1.03632,-0.0557 2.34035,-0.0557 2.22345,0 2.35918,0.007 2.31708,0.11265 -0.0246,0.062 -0.22749,0.60509 -0.45089,1.20696 -0.82728,2.22887 -1.84916,4.95704 -1.86201,4.9711 -0.007,0.008 -0.53296,-1.37909 -1.16817,-3.08237 z m -1.44458,-16.85505 v -12.5524 h 2.60704 2.60704 v 12.5524 12.5524 h -2.60704 -2.60704 z m 2.8544,9.19799 c 0.0863,-0.0393 0.18902,-0.14205 0.22833,-0.22832 0.0496,-0.10893 0.0715,-1.24651 0.0715,-3.72285 v -3.56599 l -0.15259,-0.17739 c -0.1162,-0.13509 -0.21029,-0.17739 -0.39457,-0.17739 -0.18428,0 -0.27837,0.0423 -0.39457,0.17739 l -0.15258,0.17739 v 3.60615 3.60616 l 0.18816,0.18816 c 0.20121,0.20121 0.35563,0.23093 0.60635,0.11669 z m 0.13009,-10.71949 0.16971,-0.16971 v -3.63112 -3.63113 l -0.15801,-0.158 c -0.10908,-0.10909 -0.22955,-0.158 -0.38915,-0.158 -0.15959,0 -0.28006,0.0489 -0.38915,0.158 l -0.158,0.158 v 3.63113 3.63112 l 0.1697,0.16971 c 0.11325,0.11324 0.23882,0.1697 0.37745,0.1697 0.13863,0 0.26421,-0.0565 0.37745,-0.1697 z m -1.8258,-15.1755 v -3.05029 l 0.17982,-0.3453 c 0.35776,-0.687 1.2009,-0.96258 1.91627,-0.62631 0.16076,0.0756 0.36232,0.2292 0.4479,0.34141 0.35601,0.46674 0.35272,0.4322 0.35272,3.70326 v 3.02751 h -1.44836 -1.44835 z"
       id="path129" /></g></svg>
