<?xml version="1.0" encoding="UTF-8" standalone="no"?>
<!-- Created with Inkscape (http://www.inkscape.org/) -->

<svg
   width="46.476051mm"
   height="41.847019mm"
   viewBox="0 0 46.476051 41.847019"
   version="1.1"
   id="svg1"
   xml:space="preserve"
   inkscape:export-filename="libro.png"
   inkscape:export-xdpi="96"
   inkscape:export-ydpi="96"
   inkscape:version="1.3.2 (091e20e, 2023-11-25, custom)"
   sodipodi:docname="dibujo.svg"
   xmlns:inkscape="http://www.inkscape.org/namespaces/inkscape"
   xmlns:sodipodi="http://sodipodi.sourceforge.net/DTD/sodipodi-0.dtd"
   xmlns="http://www.w3.org/2000/svg"
   xmlns:svg="http://www.w3.org/2000/svg"><sodipodi:namedview
     id="namedview1"
     pagecolor="#ffffff"
     bordercolor="#000000"
     borderopacity="0.25"
     inkscape:showpageshadow="2"
     inkscape:pageopacity="0.0"
     inkscape:pagecheckerboard="0"
     inkscape:deskcolor="#d1d1d1"
     inkscape:document-units="mm"
     inkscape:zoom="1.4142136"
     inkscape:cx="194.45436"
     inkscape:cy="92.277435"
     inkscape:window-width="1920"
     inkscape:window-height="974"
     inkscape:window-x="-11"
     inkscape:window-y="-11"
     inkscape:window-maximized="1"
     inkscape:current-layer="layer1" /><defs
     id="defs1" /><g
     inkscape:label="Capa 1"
     inkscape:groupmode="layer"
     id="layer1"
     transform="translate(-233.74898,-105.41027)"><path
       style="fill:#2a2a2a;fill-opacity:1;stroke-width:0.239013"
       d="m 237.54227,147.19657 c -1.44099,-0.24085 -2.64425,-1.27379 -3.15938,-2.7122 l -0.19351,-0.54032 -0.0166,-15.4461 -0.0166,-15.4461 h 22.83075 22.83075 l -0.0166,15.4461 -0.0166,15.4461 -0.17857,0.5053 c -0.22988,0.6505 -0.52673,1.13483 -0.96292,1.57102 -0.6331,0.63309 -1.41182,1.04143 -2.24342,1.17635 -0.49854,0.0809 -38.37351,0.0807 -38.85745,-1.5e-4 z m 20.98507,-2.18417 c 0.37967,-0.12937 0.93508,-0.63359 1.1269,-1.02304 0.13114,-0.26628 0.15029,-0.41357 0.17851,-1.37332 l 0.0316,-1.07507 0.37944,-0.11333 c 0.69625,-0.20798 1.57485,-0.56278 2.17336,-0.87767 l 0.59239,-0.31167 0.73988,0.72427 c 0.68954,0.67501 0.76908,0.7333 1.16915,0.85687 0.5154,0.15919 0.72723,0.16479 1.17738,0.0311 0.47456,-0.14093 0.74028,-0.34274 1.58625,-1.20476 0.94447,-0.96237 1.0352,-1.13051 1.03543,-1.91895 1.5e-4,-0.54103 -0.0176,-0.63276 -0.17824,-0.92258 -0.0981,-0.17699 -0.47145,-0.61384 -0.8296,-0.97077 l -0.65117,-0.64897 0.23626,-0.42982 c 0.33378,-0.60723 0.73968,-1.57439 0.91301,-2.17545 l 0.14773,-0.51228 1.03482,-0.035 c 1.23354,-0.0417 1.50875,-0.13127 2.00077,-0.65151 0.49927,-0.52792 0.55177,-0.73939 0.55177,-2.22252 0,-1.48312 -0.0525,-1.6946 -0.55177,-2.22251 -0.49208,-0.5203 -0.76719,-0.60986 -2.00125,-0.65152 l -1.03529,-0.0349 -0.17169,-0.56915 c -0.21414,-0.7099 -0.4039,-1.16888 -0.80439,-1.94558 l -0.31393,-0.60886 0.64815,-0.64595 c 0.35649,-0.35528 0.72846,-0.79077 0.82658,-0.96777 0.16066,-0.28981 0.17839,-0.38155 0.17824,-0.92258 -1.5e-4,-0.50981 -0.0229,-0.64386 -0.15017,-0.88535 -0.16743,-0.31765 -1.55629,-1.76577 -1.91322,-1.99484 -0.35845,-0.23005 -0.90728,-0.36629 -1.29299,-0.32095 -0.59237,0.0696 -0.88542,0.24669 -1.63938,0.99056 l -0.70102,0.69164 -0.7577,-0.38243 c -0.41674,-0.21034 -1.12695,-0.50579 -1.57825,-0.65655 l -0.82055,-0.27412 -0.0316,-1.06611 c -0.0372,-1.25552 -0.10738,-1.46334 -0.66637,-1.97422 -0.51203,-0.46797 -0.7101,-0.51476 -2.17937,-0.51476 -1.46784,0 -1.66763,0.047 -2.17702,0.51258 -0.55976,0.5116 -0.63053,0.72152 -0.66827,1.98208 l -0.0321,1.07178 -0.53753,0.1684 c -0.76461,0.23954 -1.46705,0.52974 -2.07892,0.85885 l -0.52956,0.28484 -0.70833,-0.69885 c -0.76508,-0.75484 -1.04148,-0.92305 -1.63058,-0.99229 -0.27197,-0.032 -0.45877,-0.009 -0.8171,0.0989 -0.45949,0.13879 -0.47457,0.15037 -1.38904,1.06725 -0.81279,0.81491 -0.94155,0.97278 -1.06544,1.30636 -0.11328,0.30498 -0.13572,0.47297 -0.11436,0.85615 0.0361,0.64791 0.21643,0.95821 1.02501,1.76404 l 0.65076,0.64855 -0.33739,0.64605 c -0.37107,0.71053 -0.60153,1.27564 -0.81484,1.99805 l -0.14005,0.4743 -1.03676,0.0335 c -1.23345,0.0398 -1.50722,0.1291 -2.00271,0.653 -0.50145,0.53022 -0.55178,0.73578 -0.55178,2.25413 0,1.22654 0.008,1.31416 0.14909,1.62611 0.1772,0.39187 0.65242,0.85762 1.07033,1.049 0.25424,0.11643 0.45151,0.14146 1.33507,0.16945 l 1.03676,0.0328 0.14005,0.47429 c 0.20954,0.70964 0.43149,1.25642 0.80766,1.9897 l 0.3387,0.66024 -0.64782,0.64564 c -0.80563,0.80288 -0.98598,1.11364 -1.02208,1.76112 -0.0447,0.80251 0.0934,1.06722 1.08283,2.07452 0.90484,0.92123 1.28928,1.17352 1.90552,1.25051 0.26532,0.0332 0.44795,0.0113 0.79956,-0.0954 0.43421,-0.13189 0.49082,-0.17279 1.20026,-0.86727 l 0.74455,-0.72886 0.4624,0.25359 c 0.58871,0.32286 1.10727,0.54208 1.98012,0.83709 l 0.69562,0.23511 0.0316,1.06695 c 0.0297,1.00301 0.0417,1.08591 0.20006,1.38315 0.2207,0.41426 0.57138,0.74491 1.00149,0.94424 0.33613,0.15579 0.39045,0.16124 1.61714,0.16182 1.0009,4.8e-4 1.33235,-0.0209 1.5674,-0.10095 z m -2.85313,-1.09963 c -0.42094,-0.25665 -0.45739,-0.39618 -0.45766,-1.75169 -2.5e-4,-1.48785 0.0136,-1.46032 -0.85397,-1.69167 -1.07886,-0.28769 -2.02377,-0.68859 -2.97532,-1.26236 -0.20697,-0.12481 -0.4444,-0.227 -0.52759,-0.22709 -0.10955,-1.2e-4 -0.39724,0.24207 -1.0435,0.87851 -1.33751,1.31716 -1.45995,1.32223 -2.67298,0.11073 -0.62794,-0.62715 -0.77717,-0.81157 -0.81334,-1.00521 -0.0948,-0.5074 -0.0218,-0.63393 0.92308,-1.59939 1.04187,-1.06464 1.03605,-1.04686 0.58551,-1.78831 -0.50362,-0.8288 -0.90706,-1.80363 -1.16288,-2.80984 -0.20804,-0.81826 -0.18528,-0.80609 -1.50944,-0.80652 -1.20628,-4.8e-4 -1.528,-0.0537 -1.78458,-0.29553 -0.26214,-0.2471 -0.32133,-0.58218 -0.29712,-1.68191 l 0.0216,-0.98299 0.19303,-0.23834 c 0.28729,-0.35474 0.4695,-0.39522 1.80378,-0.40069 1.39977,-0.006 1.3632,0.0135 1.57651,-0.82691 0.25979,-1.02347 0.64409,-1.94475 1.17861,-2.82551 0.4282,-0.70559 0.43072,-0.69827 -0.60506,-1.75669 -0.94437,-0.96503 -1.018,-1.09243 -0.92318,-1.59783 0.0359,-0.1912 0.18912,-0.38098 0.81333,-1.00713 1.20324,-1.207 1.34016,-1.20309 2.63468,0.075 0.51377,0.50721 0.92315,0.85994 1.02806,0.88578 0.13683,0.0337 0.26605,-0.0114 0.60077,-0.20936 1.01049,-0.59775 1.87057,-0.96183 2.956,-1.25127 0.86756,-0.23134 0.85367,-0.20382 0.85396,-1.69167 2.1e-4,-1.09964 0.0121,-1.2332 0.1259,-1.41992 0.25258,-0.41427 0.40775,-0.45743 1.64455,-0.45743 1.2368,0 1.39197,0.0432 1.64455,0.45743 0.11385,0.18672 0.12569,0.32028 0.1259,1.41992 2.4e-4,1.48785 -0.0136,1.46033 0.85396,1.69167 1.08543,0.28944 1.9455,0.65352 2.95601,1.25127 0.33472,0.19801 0.46394,0.24304 0.60077,0.20936 0.10495,-0.0258 0.51402,-0.37845 1.02804,-0.88621 1.29355,-1.2777 1.43039,-1.28156 2.63469,-0.0741 0.82726,0.8294 0.9073,0.97498 0.81338,1.47943 -0.0364,0.19529 -0.19949,0.39394 -0.92401,1.12521 -1.02704,1.03662 -1.03034,1.04557 -0.62887,1.7015 0.5249,0.85757 0.94497,1.8633 1.2032,2.88061 0.21259,0.83752 0.15547,0.80916 1.67841,0.83333 1.40805,0.0224 1.44875,0.0329 1.76452,0.4558 0.12061,0.16154 0.13039,0.26167 0.13039,1.33528 0,1.07361 -0.01,1.17374 -0.13039,1.33528 -0.31547,0.42254 -0.35753,0.43347 -1.75542,0.45577 -1.46409,0.0233 -1.50146,0.0367 -1.61784,0.57945 -0.20191,0.9415 -0.73874,2.26886 -1.26046,3.11658 -0.41165,0.66892 -0.41209,0.66771 0.61725,1.71955 0.94437,0.96501 1.01799,1.09242 0.92318,1.59783 -0.0641,0.34155 -1.46426,1.74776 -1.83742,1.84532 -0.48121,0.1258 -0.6625,0.0214 -1.64906,-0.94974 -0.64609,-0.63597 -0.93392,-0.87818 -1.04345,-0.87806 -0.0832,1e-4 -0.32061,0.10229 -0.52758,0.22709 -0.95156,0.57377 -1.89648,0.97468 -2.97534,1.26236 -0.86756,0.23136 -0.85367,0.20383 -0.85396,1.69167 -2.1e-4,1.09966 -0.012,1.23322 -0.1259,1.41993 -0.25258,0.41428 -0.40775,0.45743 -1.64455,0.45743 -0.99298,0 -1.12785,-0.0129 -1.31278,-0.12566 z m 3.17834,-4.79767 c 3.97887,-0.88174 6.85327,-4.12015 7.2428,-8.16003 0.35335,-3.66444 -1.69866,-7.32756 -5.02796,-8.97562 -1.27295,-0.63012 -2.30068,-0.88407 -3.79581,-0.93791 -0.84928,-0.0306 -1.13379,-0.0156 -1.77105,0.0935 -3.60126,0.61632 -6.45006,3.22566 -7.36543,6.74634 -1.07133,4.12053 0.87418,8.44493 4.67584,10.39322 0.97923,0.50184 1.729,0.75005 2.81643,0.93235 0.73105,0.12256 2.48282,0.0727 3.22518,-0.0918 z m -2.93826,-0.96814 c -0.22479,-0.0321 -0.41877,-0.0684 -0.43107,-0.0807 -0.0123,-0.0123 -0.056,-1.23028 -0.0972,-2.70664 -0.0607,-2.1762 -0.0923,-2.70528 -0.16696,-2.79526 -0.0507,-0.061 -0.23862,-0.2047 -0.41769,-0.31925 -1.34334,-0.85932 -2.05612,-2.59845 -1.7074,-4.1659 0.13026,-0.58542 0.50699,-1.3573 0.85274,-1.74717 l 0.2524,-0.28457 0.003,1.40606 0.003,1.40607 0.17391,0.18609 c 0.0957,0.10235 0.66517,0.61503 1.2656,1.1393 0.94062,0.82129 1.12097,0.9532 1.30326,0.9532 0.18345,0 0.37038,-0.13951 1.40624,-1.04954 0.65707,-0.57725 1.22924,-1.11083 1.27149,-1.18573 0.0536,-0.095 0.0775,-0.55545 0.0791,-1.52143 l 0.002,-1.38524 0.13186,0.11933 c 0.36718,0.33229 0.8437,1.16324 1.01266,1.76581 0.0542,0.19347 0.0879,0.61074 0.0867,1.07506 -0.002,0.6589 -0.024,0.81997 -0.16943,1.2227 -0.31335,0.8678 -0.89031,1.61491 -1.59542,2.06596 -0.17907,0.11455 -0.36643,0.2575 -0.41635,0.31765 -0.073,0.0879 -0.10526,0.63563 -0.16469,2.793 -0.0407,1.476 -0.084,2.69356 -0.0962,2.7057 -0.0123,0.0122 -0.24488,0.053 -0.51695,0.0908 -0.57682,0.0801 -1.4824,0.0778 -2.06415,-0.005 z m -2.1114,-0.5879 c -2.47426,-1.0756 -4.24008,-3.29749 -4.74782,-5.97405 -0.12938,-0.68207 -0.13014,-2.08798 -7.9e-4,-2.82554 0.50329,-2.88608 2.60493,-5.31442 5.40645,-6.24686 4.64279,-1.54531 9.62163,1.43676 10.46402,6.26739 0.12101,0.6939 0.12101,2.06206 0,2.75594 -0.27156,1.55728 -0.98863,2.98307 -2.0816,4.13899 -0.80351,0.84981 -1.86342,1.57735 -2.87761,1.97527 l -0.34223,0.13428 0.0417,-1.66313 c 0.023,-0.91473 0.0418,-1.93814 0.0419,-2.27426 l 1.3e-4,-0.61115 0.42007,-0.33426 c 0.84745,-0.67433 1.52497,-1.73231 1.79391,-2.80125 0.14281,-0.5676 0.16872,-1.55162 0.0569,-2.16001 -0.23191,-1.26158 -1.08767,-2.53046 -2.19992,-3.26194 -0.52885,-0.34779 -0.73765,-0.38002 -1.00018,-0.15433 l -0.17744,0.15253 -0.0316,1.90019 -0.0316,1.90019 -0.69562,0.61055 c -0.38261,0.3358 -0.74231,0.65155 -0.79935,0.70167 -0.0928,0.0816 -0.1889,0.0158 -0.91696,-0.62776 l -0.81326,-0.71888 -0.0316,-1.88308 -0.0316,-1.8831 -0.14929,-0.1208 c -0.23903,-0.19341 -0.51027,-0.15315 -0.93109,0.13819 -1.45147,1.00483 -2.23806,2.49309 -2.23922,4.23666 -7.9e-4,1.53098 0.71211,3.01057 1.91073,3.96433 l 0.41146,0.32742 0.0467,2.25047 c 0.0257,1.23776 0.0355,2.26162 0.0219,2.27523 -0.0136,0.0136 -0.24591,-0.0714 -0.51622,-0.1889 z m -19.63255,-27.21067 c 0.023,-1.58895 0.0279,-1.64065 0.19988,-2.1337 0.45866,-1.31467 1.38046,-2.20541 2.75977,-2.66678 0.33421,-0.1118 1.09987,-0.11702 19.57244,-0.1337 13.30259,-0.012 19.35936,0.003 19.66203,0.0496 0.85359,0.13075 1.66009,0.54578 2.27526,1.17086 0.44387,0.45103 0.73887,0.93447 0.96407,1.57998 0.17201,0.49306 0.17685,0.54475 0.19987,2.13371 l 0.0236,1.62839 h -22.84025 -22.84025 z m 7.68072,-1.21299 c 0.35993,-0.21946 0.33679,-0.72575 -0.0421,-0.92169 -0.1658,-0.0857 -0.40814,-0.0983 -1.57874,-0.0821 -1.34817,0.0187 -1.3868,0.0229 -1.5395,0.16648 -0.0861,0.081 -0.16954,0.21479 -0.18531,0.29728 -0.0408,0.21341 0.1259,0.51867 0.3226,0.59076 0.0921,0.0338 0.76514,0.0635 1.49555,0.0661 1.20409,0.004 1.34663,-0.007 1.5275,-0.11689 z m 6.91615,0.0266 c 0.38849,-0.20091 0.41143,-0.69429 0.0427,-0.9191 -0.18301,-0.11158 -0.32511,-0.12325 -1.50486,-0.12345 -1.48709,-2.5e-4 -1.66984,0.036 -1.80458,0.3585 -0.0793,0.18976 -0.0778,0.24061 0.0124,0.4307 0.0576,0.12134 0.17586,0.24251 0.2706,0.27721 0.0926,0.0339 0.76022,0.0639 1.48367,0.0666 1.05683,0.004 1.35165,-0.0138 1.50004,-0.0905 z m 7.00075,-0.0292 c 0.3685,-0.22469 0.34238,-0.70217 -0.0495,-0.90461 -0.1923,-0.0993 -0.37672,-0.11036 -1.58806,-0.0949 -1.33632,0.0171 -1.3744,0.0212 -1.52712,0.16482 -0.0862,0.081 -0.16954,0.21478 -0.18531,0.29727 -0.0408,0.21342 0.12589,0.51866 0.32259,0.59075 0.0921,0.0338 0.76514,0.0635 1.49554,0.0661 1.21378,0.004 1.34556,-0.006 1.53186,-0.11952 z"
       id="path131" /><path
       style="fill:#000000;fill-opacity:0;stroke-width:0.460514"
       d="m 245.24975,135.04526 c -0.42784,-0.67015 -0.82166,-1.21845 -0.87513,-1.21845 -0.0535,0 -0.31624,0.11173 -0.58391,0.24829 -0.26767,0.13655 -0.60818,0.2945 -0.75667,0.351 l -0.27001,0.10273 0.0337,-4.12817 c 0.0184,-2.2705 0.0639,-4.12817 0.10085,-4.12817 0.0371,0 0.74703,0.36772 1.5778,0.81715 l 1.51049,0.81717 0.0334,4.1785 c 0.0184,2.29818 0.0276,4.17849 0.0204,4.17847 -0.007,-4e-5 -0.36314,-0.54836 -0.79098,-1.2185 z"
       id="use179"
       sodipodi:nodetypes="sssscssscssss" /></g></svg>
