<?xml version="1.0" encoding="UTF-8" standalone="no"?>
<!-- Created with Inkscape (http://www.inkscape.org/) -->

<svg
   width="46.476051mm"
   height="41.847019mm"
   viewBox="0 0 46.476051 41.847019"
   version="1.1"
   id="svg1"
   xml:space="preserve"
   inkscape:export-filename="Documents\GitHub\FrontEnd-Angular\src\assets\estudent2.svg"
   inkscape:export-xdpi="96"
   inkscape:export-ydpi="96"
   inkscape:version="1.3.2 (091e20e, 2023-11-25, custom)"
   sodipodi:docname="dibujo.svg"
   xmlns:inkscape="http://www.inkscape.org/namespaces/inkscape"
   xmlns:sodipodi="http://sodipodi.sourceforge.net/DTD/sodipodi-0.dtd"
   xmlns="http://www.w3.org/2000/svg"
   xmlns:svg="http://www.w3.org/2000/svg"><sodipodi:namedview
     id="namedview1"
     pagecolor="#ffffff"
     bordercolor="#000000"
     borderopacity="0.25"
     inkscape:showpageshadow="2"
     inkscape:pageopacity="0.0"
     inkscape:pagecheckerboard="0"
     inkscape:deskcolor="#d1d1d1"
     inkscape:document-units="mm"
     inkscape:zoom="1.4142136"
     inkscape:cx="194.45436"
     inkscape:cy="92.277435"
     inkscape:window-width="1920"
     inkscape:window-height="974"
     inkscape:window-x="-11"
     inkscape:window-y="-11"
     inkscape:window-maximized="1"
     inkscape:current-layer="layer1" /><defs
     id="defs1" /><g
     inkscape:label="Capa 1"
     inkscape:groupmode="layer"
     id="layer1"
     transform="translate(-233.74898,-105.41027)"><path
       style="fill:#6e1ef0;fill-opacity:1;stroke-width:0.231518"
       d="m 234.9118,146.72327 c -0.0211,-0.0212 -0.0383,-6.9253 -0.0383,-15.34241 v -15.30388 h 0.9801 0.98009 v 14.09173 14.09174 l 0.15036,0.15035 0.15037,0.15036 h 19.84154 19.84156 l 0.1614,-0.12697 0.16142,-0.12695 v -14.11513 -14.11513 h 0.98009 0.98009 v 15.30752 c 0,13.72801 -0.0106,15.31124 -0.0942,15.34373 -0.12732,0.0488 -44.04524,0.044 -44.09412,-0.004 z m 3.51294,-3.52507 c 0.10173,-0.17688 0.61757,-1.08653 1.14644,-2.02146 l 0.96152,-1.69985 6.25152,0.001 c 6.85695,0.001 6.70772,-0.007 7.4498,0.36839 0.67807,0.34229 1.39456,1.13608 1.74918,1.93797 0.15962,0.36092 0.3566,1.04835 0.42271,1.47514 l 0.0404,0.26034 h -9.10316 -9.10318 z m 19.1429,0.0614 c 0.0662,-0.42681 0.26307,-1.11423 0.42269,-1.47514 0.51112,-1.15571 1.59303,-2.07489 2.645,-2.24717 0.21851,-0.0357 2.84741,-0.0596 6.58463,-0.0598 l 6.22087,-3.2e-4 0.96155,1.69985 c 0.52883,0.93493 1.04472,1.84459 1.1464,2.02147 l 0.18488,0.32159 h -9.10316 -9.10319 z m -19.69283,-14.36249 v -13.11184 l 0.90353,-0.65106 0.90353,-0.65105 0.0154,12.15867 0.0154,12.15868 -0.89633,1.57871 c -0.49299,0.86828 -0.90653,1.59021 -0.91899,1.60423 -0.0127,0.0141 -0.0226,-5.87481 -0.0226,-13.08634 z m 37.2896,11.49241 -0.90367,-1.5981 0.0154,-12.15267 0.0154,-12.15267 0.90353,0.64814 0.90354,0.64814 v 13.10307 c 0,7.2067 -0.007,13.10288 -0.0153,13.10262 -0.01,-2.3e-4 -0.42195,-0.71962 -0.91898,-1.59858 z m -19.219,-0.49771 c -0.55448,-0.6003 -1.15306,-1.00477 -1.84374,-1.24585 l -0.51462,-0.17964 -6.41659,-0.0169 -6.4166,-0.0169 v -12.21904 -12.21899 h 4.62553 4.62552 l -0.23796,0.47474 c -0.86708,1.72972 -1.08865,3.89933 -0.58891,5.76673 0.24315,0.90856 0.55244,1.45957 1.50784,2.68634 0.626,0.80376 0.90529,1.28077 1.16288,1.98602 0.41239,1.12908 0.54379,2.21493 0.54379,4.49392 v 1.6121 l 0.15654,0.18605 c 0.14789,0.17575 0.18431,0.18702 0.65851,0.20378 l 0.50196,0.0177 0.0307,0.87852 c 0.0413,1.18168 -0.0528,1.11232 1.50756,1.11232 h 1.18772 v 3.49161 c 0,1.92038 -0.007,3.49009 -0.0153,3.48825 -0.01,-0.001 -0.22206,-0.22718 -0.47475,-0.50074 z m -1.98135,-3.35082 c 0.24047,-0.14666 0.31219,-0.41138 0.18044,-0.66617 -0.0513,-0.0995 -0.13843,-0.19805 -0.19335,-0.21913 -0.0549,-0.0211 -2.45827,-0.0389 -5.34079,-0.0392 -4.92697,-7.8e-4 -5.24814,0.004 -5.36125,0.10741 -0.17963,0.16173 -0.23317,0.35311 -0.15863,0.56692 0.1321,0.37894 -0.10534,0.36327 5.53481,0.36571 4.97162,0.001 5.15205,-0.001 5.33877,-0.11556 z m -4.97957,-2.73849 c 0.21997,-0.22001 0.21975,-0.52543 -6.5e-4,-0.72965 l -0.16208,-0.15022 h -2.7087 c -2.60875,0 -2.71442,0.004 -2.86322,0.12151 -0.0848,0.0668 -0.17199,0.19113 -0.19334,0.27618 -0.0442,0.17607 0.0907,0.48194 0.25476,0.57747 0.0682,0.0398 1.08825,0.063 2.80943,0.0642 l 2.70225,0.002 z m 8.55359,3.10688 v -3.49672 h 1.18769 c 1.5604,0 1.46638,0.0692 1.50758,-1.1123 l 0.0307,-0.87849 0.50197,-0.0177 c 0.4742,-0.0167 0.51059,-0.0278 0.65849,-0.20378 l 0.15655,-0.18604 v -1.6121 c 0,-2.279 0.13139,-3.36483 0.5438,-4.49393 0.25666,-0.7027 0.53043,-1.17089 1.15874,-1.98159 0.97176,-1.25389 1.26899,-1.78282 1.51197,-2.69075 0.49974,-1.86742 0.27818,-4.03702 -0.5889,-5.76673 l -0.23798,-0.47475 h 4.62553 4.62554 v 12.21899 12.219 l -6.41661,0.0169 -6.41659,0.0169 -0.51462,0.17963 c -0.68838,0.24026 -1.28476,0.64269 -1.85907,1.25442 l -0.47473,0.50569 z m 13.10526,-0.34014 c 0.32232,-0.16668 0.36254,-0.59185 0.08,-0.84626 -0.11452,-0.10321 -0.41681,-0.10927 -5.36114,-0.10741 -2.88186,7.8e-4 -5.28475,0.0191 -5.33972,0.0401 -0.0549,0.0211 -0.14202,0.11975 -0.19344,0.21918 -0.13176,0.25477 -0.0602,0.51951 0.18044,0.66616 0.18661,0.11382 0.3693,0.11784 5.32649,0.11808 4.39622,2e-4 5.15825,-0.0127 5.30735,-0.0899 z m 0.0128,-2.67144 c 0.17826,-0.0954 0.31027,-0.44248 0.23929,-0.62914 -0.1331,-0.35007 -0.0975,-0.34603 -3.04092,-0.34603 h -2.70394 l -0.16148,0.16151 c -0.22,0.21998 -0.21976,0.52543 6.5e-4,0.72963 l 0.16207,0.15021 h 2.69036 c 1.81005,0 2.73083,-0.0215 2.81404,-0.0663 z m -15.87458,-2.01653 v -0.49004 h 2.20523 2.20521 v 0.49004 0.49006 h -2.20521 -2.20523 z m -1.341,-1.98743 c 0.003,-0.36456 0.024,-0.45976 0.10141,-0.47472 0.0533,-0.0106 1.64953,-0.0117 3.5472,-0.002 l 3.45036,0.0163 v 0.45842 0.45842 h -3.55189 -3.55189 z m -0.007,-1.98073 c 0,-0.64315 -0.16497,-1.82463 -0.36658,-2.6255 -0.25054,-0.99526 -0.74539,-1.9792 -1.44361,-2.87043 -1.25141,-1.59729 -1.50918,-2.18057 -1.61888,-3.66293 -0.16379,-2.21335 0.53456,-4.14614 2.04347,-5.65554 0.90982,-0.91012 1.90506,-1.48363 3.20084,-1.84445 0.55919,-0.15571 0.68909,-0.1683 1.73762,-0.1683 1.04852,0 1.17843,0.0127 1.73761,0.1683 1.31615,0.3665 2.29354,0.93426 3.2277,1.87495 1.5045,1.51497 2.19996,3.44728 2.02103,5.61526 -0.12607,1.52752 -0.36351,2.06469 -1.62329,3.67271 -1.12955,1.44179 -1.66921,3.00745 -1.78941,5.19148 l -0.0395,0.71975 h -1.49204 -1.49206 l 0.0158,-2.49259 0.0158,-2.49261 0.4003,-0.0739 c 0.9659,-0.17826 1.88942,-0.6915 2.61089,-1.45102 0.51163,-0.53862 0.82503,-1.03804 1.0664,-1.69939 0.2207,-0.60474 0.23253,-0.91007 0.0418,-1.08168 -0.20419,-0.1838 -0.3364,-0.21182 -0.55948,-0.1186 -0.20083,0.084 -0.25882,0.18061 -0.40824,0.68074 -0.34746,1.16312 -1.42645,2.20913 -2.66171,2.58035 -0.50791,0.15263 -1.63606,0.15263 -2.14397,0 -1.23527,-0.37122 -2.31424,-1.41723 -2.66172,-2.58035 -0.14941,-0.50013 -0.20741,-0.59684 -0.40822,-0.68074 -0.22309,-0.093 -0.3553,-0.0652 -0.5595,0.1186 -0.19063,0.17161 -0.1788,0.47694 0.0418,1.08168 0.24134,0.66135 0.55476,1.16077 1.06639,1.69939 0.71416,0.75185 1.65305,1.27427 2.60613,1.45013 l 0.40506,0.0748 0.0158,2.4926 0.0158,2.4926 h -1.50146 -1.50146 z m -2.49251,-17.38048 c -0.24226,-0.10195 -1.30508,-1.93154 -1.30508,-2.24672 0,-0.42817 0.55348,-0.65237 0.84064,-0.34053 0.23033,0.25006 1.18082,1.968 1.18082,2.1342 0,0.20746 -0.19971,0.46155 -0.39161,0.49824 -0.0821,0.0156 -0.2283,-0.004 -0.32477,-0.0451 z m 11.07313,-0.37497 c -0.15292,-0.19441 -0.161,-0.39053 -0.0271,-0.65328 0.22388,-0.43876 0.96606,-1.67541 1.08272,-1.80404 0.17234,-0.18998 0.52519,-0.18801 0.70555,0.003 0.23836,0.25373 0.18071,0.46867 -0.39595,1.47604 -0.29103,0.50837 -0.58352,0.97257 -0.64997,1.03153 -0.19117,0.16957 -0.56144,0.14151 -0.7154,-0.0543 z m -5.53207,-1.25199 c -0.20659,-0.12036 -0.24609,-0.31627 -0.26987,-1.33855 -0.027,-1.15948 -0.008,-1.34016 0.16506,-1.52529 0.17294,-0.1856 0.54227,-0.18197 0.71991,0.008 0.11885,0.12645 0.13586,0.23374 0.17275,1.08937 0.0486,1.12716 0.008,1.4868 -0.19348,1.68766 -0.15321,0.15321 -0.40925,0.18756 -0.59437,0.0798 z"
       id="path159" /><path
       style="fill:#000000;fill-opacity:0;stroke-width:0.460514"
       d="m 245.24975,135.04526 c -0.42784,-0.67015 -0.82166,-1.21845 -0.87513,-1.21845 -0.0535,0 -0.31624,0.11173 -0.58391,0.24829 -0.26767,0.13655 -0.60818,0.2945 -0.75667,0.351 l -0.27001,0.10273 0.0337,-4.12817 c 0.0184,-2.2705 0.0639,-4.12817 0.10085,-4.12817 0.0371,0 0.74703,0.36772 1.5778,0.81715 l 1.51049,0.81717 0.0334,4.1785 c 0.0184,2.29818 0.0276,4.17849 0.0204,4.17847 -0.007,-4e-5 -0.36314,-0.54836 -0.79098,-1.2185 z"
       id="use179"
       sodipodi:nodetypes="sssscssscssss" /></g></svg>
