<?xml version="1.0" encoding="UTF-8" standalone="no"?>
<!-- Created with Inkscape (http://www.inkscape.org/) -->

<svg
   width="46.476051mm"
   height="41.847019mm"
   viewBox="0 0 46.476051 41.847019"
   version="1.1"
   id="svg1"
   xml:space="preserve"
   inkscape:export-filename="Documents\GitHub\FrontEnd-Angular\src\assets\percal.svg"
   inkscape:export-xdpi="96"
   inkscape:export-ydpi="96"
   inkscape:version="1.3.2 (091e20e, 2023-11-25, custom)"
   sodipodi:docname="dibujo.svg"
   xmlns:inkscape="http://www.inkscape.org/namespaces/inkscape"
   xmlns:sodipodi="http://sodipodi.sourceforge.net/DTD/sodipodi-0.dtd"
   xmlns="http://www.w3.org/2000/svg"
   xmlns:svg="http://www.w3.org/2000/svg"><sodipodi:namedview
     id="namedview1"
     pagecolor="#ffffff"
     bordercolor="#000000"
     borderopacity="0.25"
     inkscape:showpageshadow="2"
     inkscape:pageopacity="0.0"
     inkscape:pagecheckerboard="0"
     inkscape:deskcolor="#d1d1d1"
     inkscape:document-units="mm"
     inkscape:zoom="1.4142136"
     inkscape:cx="194.45436"
     inkscape:cy="92.277435"
     inkscape:window-width="1920"
     inkscape:window-height="974"
     inkscape:window-x="-11"
     inkscape:window-y="-11"
     inkscape:window-maximized="1"
     inkscape:current-layer="layer1" /><defs
     id="defs1" /><g
     inkscape:label="Capa 1"
     inkscape:groupmode="layer"
     id="layer1"
     transform="translate(-233.74898,-105.41027)"><g
       id="g4"
       transform="translate(-1.9268875,-0.95788774)"><path
         style="fill:#6e1ef0;fill-opacity:1;stroke-width:0.229323"
         d="m 238.83614,145.93953 c -0.33573,-0.15632 -0.5959,-0.44673 -0.72545,-0.80976 -0.067,-0.18758 -0.0817,-2.67061 -0.0839,-14.10706 l -0.002,-13.87941 5.77929,-0.002 c 4.32926,-0.002 31.59411,-3e-5 32.06675,0.002 0.0603,1.9e-4 0.0758,1.45454 0.0758,7.06887 0,3.88776 -0.0144,7.06865 -0.032,7.06865 -0.0176,0 -0.19586,-0.0827 -0.39606,-0.18375 -0.87571,-0.44205 -2.07736,-0.746 -3.37923,-0.85475 l -0.86462,-0.0722 v -0.74376 -0.74376 l -0.18668,-0.15709 -0.18669,-0.15707 h -2.85173 -2.85174 l -0.17735,0.17735 -0.17736,0.17736 v 2.06936 2.06935 l -0.48504,0.54959 c -1.43698,1.62821 -2.2479,3.51627 -2.4336,5.66612 -0.20129,2.33011 0.51926,4.74796 1.98109,6.64771 l 0.27722,0.36026 -12.51777,-6.9e-4 -12.51777,-6.9e-4 z m 10.05407,-2.35902 c 0.23039,-0.1769 0.23744,-0.27094 0.23744,-3.16902 v -2.83004 l -0.17906,-0.17907 -0.17906,-0.17906 -2.92076,0.0169 -2.92076,0.0168 -0.11596,0.14324 c -0.11055,0.13656 -0.11595,0.27877 -0.11595,3.05168 v 2.90843 l 0.14893,0.14894 0.14893,0.14892 2.89998,-0.002 c 2.18397,-0.002 2.92376,-0.0202 2.99627,-0.0758 z m -5.18286,-0.93348 c -0.0222,-0.0222 -0.0404,-1.01883 -0.0404,-2.21464 v -2.17418 h 2.21464 2.21464 v 2.21463 2.21464 h -2.17419 c -1.1958,0 -2.19239,-0.0182 -2.21464,-0.0405 z m 16.30795,0.87473 0.15495,-0.13652 0.008,-2.88718 c 0.008,-3.07656 0.006,-3.1018 -0.28805,-3.21356 -0.0883,-0.0335 -1.33112,-0.0578 -2.966,-0.0578 h -2.81406 l -0.17024,0.14643 -0.17024,0.14644 v 2.92291 2.9229 l 0.17024,0.14644 0.17024,0.14643 h 2.8753 2.8753 z m -5.21104,-0.88135 c -0.0186,-0.0186 -0.0339,-1.01221 -0.0339,-2.20802 v -2.17418 h 2.2154 2.21539 l -0.016,2.19946 -0.0159,2.19947 -2.16564,0.009 c -1.19109,0.005 -2.18086,-0.006 -2.19946,-0.0253 z m -5.95237,-7.87838 c 0.26472,-0.10157 0.27576,-0.23011 0.27576,-3.21007 v -2.82907 l -0.17736,-0.17735 -0.17735,-0.17737 h -2.82907 c -2.97996,0 -3.1085,0.011 -3.21008,0.27576 -0.0207,0.054 -0.0377,1.39416 -0.0377,2.97808 v 2.87986 l 0.14893,0.14893 0.14892,0.14893 h 2.87987 c 1.58392,0 2.92405,-0.017 2.97807,-0.0377 z m -5.14454,-0.97355 c -0.0222,-0.0222 -0.0404,-1.01884 -0.0404,-2.21464 v -2.17419 h 2.21464 2.21464 v 2.21464 2.21464 h -2.17419 c -1.1958,0 -2.19239,-0.0182 -2.21464,-0.0405 z m 16.32272,0.87932 0.14044,-0.13192 v -2.93217 c 0,-2.83867 -0.004,-2.93598 -0.11981,-3.05196 -0.0659,-0.0659 -0.18193,-0.13518 -0.25787,-0.15396 -0.0759,-0.0187 -1.40013,-0.0263 -2.94264,-0.0167 l -2.80458,0.0174 -0.13816,0.13821 -0.13816,0.1382 v 2.90583 2.90582 l 0.14709,0.15658 0.1471,0.15658 h 2.91309 c 2.90742,0 2.91335,-2.3e-4 3.0535,-0.13193 z m -5.25964,-3.05351 v -2.21464 h 2.21464 2.21463 v 2.21464 2.21464 h -2.21463 -2.21464 z m -5.81636,-5.78907 0.14324,-0.11596 0.0168,-2.91245 0.0168,-2.91244 -0.14809,-0.17221 -0.14808,-0.1722 -2.88068,-0.0168 -2.88067,-0.0168 -0.1887,0.15878 -0.18871,0.15879 v 2.89883 c 0,2.84078 0.002,2.90202 0.12575,3.05869 l 0.12576,0.15987 h 2.93161 c 2.79573,0 2.93825,-0.006 3.07485,-0.11595 z m -5.24672,-0.89529 c -0.0222,-0.0222 -0.0404,-1.01884 -0.0404,-2.21464 v -2.17419 h 2.21464 2.21464 v 2.21464 2.21464 h -2.17419 c -1.1958,0 -2.19239,-0.0182 -2.21464,-0.0405 z m 16.32971,0.87243 c 0.12951,-0.13786 0.13044,-0.15879 0.13517,-3.02034 0.002,-1.58484 -0.0137,-2.92953 -0.0361,-2.98819 -0.10497,-0.27357 -0.22267,-0.28421 -3.14402,-0.28421 -1.61043,0 -2.82339,0.0242 -2.91251,0.058 -0.33491,0.12733 -0.34057,0.17968 -0.34057,3.15074 0,2.75991 0.0164,2.98719 0.22669,3.1469 0.0767,0.0583 0.77771,0.0758 3.02045,0.0758 h 2.92056 z m -5.26663,-3.04662 v -2.21464 h 2.21464 2.21463 v 2.21464 2.21464 h -2.21463 -2.21464 z m 16.35467,3.0365 0.14893,-0.14892 v -2.88145 -2.88143 l -0.14643,-0.17024 -0.14644,-0.17024 h -2.9229 -2.92291 l -0.14644,0.17024 -0.14643,0.17024 v 2.88143 2.88145 l 0.14893,0.14892 0.14893,0.14894 h 2.91792 2.91791 z m -5.25114,-3.0365 v -2.21464 h 2.1843 2.1843 v 2.21464 2.21464 h -2.1843 -2.1843 z m 0,7.9554 v -1.31149 h 2.1843 2.1843 v 0.4433 0.4433 l -0.55345,0.10609 c -1.27992,0.24536 -2.44432,0.73209 -3.66538,1.53216 l -0.14977,0.0981 z m -27.84984,-17.5007 c 0,-3.33814 8e-4,-3.34803 0.45561,-3.76689 0.15038,-0.13862 0.3483,-0.28394 0.43981,-0.32292 0.10649,-0.0454 0.71711,-0.0794 1.69603,-0.0947 l 1.52964,-0.0238 0.0176,1.97216 0.0176,1.97216 0.18473,0.26298 c 0.10159,0.14463 0.30637,0.33114 0.45506,0.41445 0.25245,0.14145 0.33706,0.15289 1.27866,0.17282 1.18581,0.0251 1.57247,-0.0365 1.89384,-0.30133 0.43309,-0.35698 0.43153,-0.34851 0.46531,-2.51064 l 0.0304,-1.9416 2.04778,-0.016 2.04778,-0.016 v 1.84234 c 0,1.23146 0.0232,1.91073 0.07,2.04859 0.10921,0.32199 0.27791,0.52537 0.58516,0.70542 0.27267,0.1598 0.32118,0.16681 1.31131,0.18951 1.27754,0.0293 1.58594,-0.0285 1.95203,-0.36599 0.14406,-0.13279 0.29551,-0.34162 0.33655,-0.46408 0.0521,-0.15553 0.0759,-0.78059 0.0789,-2.07325 l 0.004,-1.85058 2.04462,-0.016 2.04463,-0.016 0.0183,1.92723 0.0183,1.92723 0.16847,0.2866 c 0.10925,0.18584 0.26922,0.34581 0.45506,0.45506 l 0.2866,0.16847 h 1.21499 c 1.18386,0 1.22272,-0.004 1.51633,-0.15501 0.21403,-0.11009 0.35424,-0.24053 0.48391,-0.45015 l 0.18256,-0.29514 0.019,-1.93134 0.0191,-1.93135 h 2.02876 2.02876 v 1.7789 c 0,2.08707 0.0276,2.2499 0.44737,2.63681 0.36433,0.33582 0.69625,0.39739 1.98302,0.36789 0.99751,-0.0229 1.01553,-0.0257 1.30797,-0.20422 0.2221,-0.13559 0.33842,-0.26365 0.46339,-0.51016 l 0.16685,-0.32913 v -1.87465 -1.87463 l 1.53205,0.0198 c 1.3547,0.0175 1.55663,0.0329 1.74441,0.13287 0.29722,0.15831 0.5349,0.39168 0.68815,0.67567 0.12843,0.23801 0.13129,0.30093 0.14828,3.26128 l 0.0173,3.01858 H 256.987 238.02391 Z m 5.22823,-0.48884 c -0.0657,-0.0417 -0.0795,-0.60633 -0.0735,-3.01419 0.005,-2.03057 0.028,-2.98789 0.0731,-3.04225 0.0493,-0.0594 0.31461,-0.0793 1.0552,-0.0793 0.81854,0 1.00584,0.0164 1.08472,0.0953 0.084,0.084 0.0953,0.43822 0.0953,2.97707 0,1.87041 -0.0221,2.9229 -0.0628,2.99908 -0.0583,0.1089 -0.13588,0.11729 -1.07698,0.11643 -0.55779,-5.1e-4 -1.05054,-0.024 -1.095,-0.0522 z m 8.43578,-0.0197 c -0.10489,-0.10491 -0.10489,-5.93833 0,-6.04324 0.1022,-0.10219 2.05784,-0.10219 2.16004,0 0.1049,0.10491 0.1049,5.93833 0,6.04324 -0.0508,0.0508 -0.37753,0.0728 -1.08002,0.0728 -0.70248,0 -1.02923,-0.0221 -1.08002,-0.0728 z m 8.43383,0 c -0.10489,-0.10491 -0.10489,-5.93833 0,-6.04324 0.1022,-0.10219 2.05784,-0.10219 2.16003,0 0.10491,0.10491 0.10491,5.93833 0,6.04324 -0.0508,0.0508 -0.37753,0.0728 -1.08001,0.0728 -0.70248,0 -1.02923,-0.0221 -1.08002,-0.0728 z m 8.43383,0 c -0.1049,-0.10491 -0.1049,-5.93833 0,-6.04324 0.10219,-0.10219 2.05784,-0.10219 2.16003,0 0.1049,0.10491 0.1049,5.93833 0,6.04324 -0.0508,0.0508 -0.37753,0.0728 -1.08002,0.0728 -0.70247,0 -1.02923,-0.0221 -1.08001,-0.0728 z"
         id="path135"
         sodipodi:nodetypes="ccccccsscccccccccccccscscccccscccccsscccccccscccccsccccccscccccccccccsccccccccsscccscscccssscscccccsccccsccccccccccscccccccccccccccccccccsccscccscccccscccccscscscccccccccccccccccccccccccccccccccccccccccccsccccccccccccscccccsccccccccccccccscccccccscccscccccsccccccccscscscccccsscccsssccccssc" /><path
         style="display:inline;fill:#6e1ef0;fill-opacity:1;stroke:#ffffff;stroke-width:0.690041;stroke-linecap:round;stroke-dasharray:none;stroke-opacity:1;paint-order:normal"
         d="m 270.85424,147.80922 c -3.07677,-0.22082 -5.73411,-2.14566 -6.89725,-4.99608 -0.76758,-1.88103 -0.77881,-4.05391 -0.0306,-5.94313 0.90525,-2.28598 2.8087,-4.03991 5.15343,-4.74863 1.26483,-0.38232 2.65021,-0.44028 3.97845,-0.16645 1.47905,0.3049 2.89926,1.07792 4.00455,2.17966 2.47119,2.46325 3.0599,6.25512 1.45222,9.35395 -1.21852,2.34882 -3.49343,3.93796 -6.11372,4.27078 -0.46319,0.0589 -1.12496,0.0803 -1.547,0.0499 z m 1.28745,-1.54383 c 2.1563,-0.25199 4.04264,-1.56559 5.0452,-3.51338 0.44638,-0.86725 0.66858,-1.73028 0.70405,-2.73475 0.0523,-1.48118 -0.38605,-2.87982 -1.28328,-4.09446 -0.24979,-0.33819 -0.79197,-0.90422 -1.12029,-1.16955 -2.39848,-1.93853 -5.79675,-1.93831 -8.18898,5e-4 -0.28404,0.2302 -0.76693,0.7167 -0.99355,1.00095 -1.54684,1.94022 -1.85312,4.58795 -0.78993,6.82864 0.19548,0.41193 0.37012,0.70143 0.66394,1.10061 0.24824,0.33722 0.79001,0.90318 1.11954,1.16955 1.36789,1.10556 3.11251,1.61413 4.8433,1.41188 z m -1.22243,-0.37043 c -0.69928,-0.0797 -1.2433,-0.20396 -1.72826,-0.39465 -0.24353,-0.0957 -0.6293,-0.27265 -0.66555,-0.30517 -0.007,-0.006 0.11465,-0.227 0.26737,-0.49297 0.15427,-0.26856 0.27783,-0.51884 0.27783,-0.56283 0,-0.16784 -0.2107,-0.2399 -0.32634,-0.11157 -0.034,0.0379 -0.17738,0.27024 -0.31842,0.51652 -0.21441,0.3744 -0.26476,0.44327 -0.30737,0.42046 -0.19011,-0.10174 -0.73934,-0.55153 -1.03738,-0.84958 -0.29804,-0.29805 -0.74783,-0.84726 -0.84958,-1.03737 -0.0229,-0.0426 0.0461,-0.0931 0.42048,-0.3074 0.24626,-0.14101 0.47869,-0.28428 0.51649,-0.31839 0.13047,-0.11773 0.0558,-0.32633 -0.11678,-0.32633 -0.0406,0 -0.2912,0.12525 -0.55698,0.27836 -0.26576,0.1531 -0.48769,0.27342 -0.49314,0.26738 -0.006,-0.007 -0.0509,-0.0936 -0.10115,-0.19435 -0.31481,-0.63297 -0.53172,-1.43831 -0.60284,-2.23823 l -0.0197,-0.22153 h 0.91708 c 0.63581,0 0.9412,-0.0107 0.99566,-0.0358 0.1419,-0.0645 0.1419,-0.29152 0,-0.35618 -0.0545,-0.0249 -0.35985,-0.0358 -0.99566,-0.0358 h -0.91708 l 0.0197,-0.22153 c 0.0509,-0.57326 0.18119,-1.1827 0.35125,-1.64395 0.1021,-0.27703 0.33595,-0.79288 0.35936,-0.79288 0.008,0 0.22978,0.12375 0.49234,0.275 0.26461,0.15243 0.51261,0.27501 0.55644,0.27501 0.0984,0 0.18019,-0.0865 0.18019,-0.19067 0,-0.10589 -0.0876,-0.17358 -0.60331,-0.46548 -0.36268,-0.20528 -0.42609,-0.25176 -0.40278,-0.2953 0.0153,-0.0283 0.13254,-0.19379 0.26076,-0.36747 0.37822,-0.51244 1.07878,-1.17073 1.5911,-1.49509 l 0.0867,-0.055 0.24416,0.43135 c 0.29646,0.52378 0.35925,0.60424 0.47132,0.60424 0.1015,0 0.18536,-0.0842 0.18536,-0.18649 0,-0.041 -0.11853,-0.28036 -0.26337,-0.53164 -0.14485,-0.25129 -0.26919,-0.47213 -0.27632,-0.49072 -0.0146,-0.0378 0.39818,-0.23775 0.78255,-0.37946 0.46124,-0.17008 1.07067,-0.30029 1.64395,-0.35126 l 0.22154,-0.0197 v 0.9171 c 0,0.63578 0.0106,0.94118 0.0358,0.99565 0.0646,0.14191 0.29156,0.14191 0.35621,0 0.0247,-0.0545 0.0358,-0.35987 0.0358,-0.99565 v -0.9171 l 0.22152,0.0197 c 0.57329,0.0509 1.18272,0.18118 1.64396,0.35126 0.38436,0.14171 0.79701,0.34179 0.78255,0.37946 -0.007,0.0185 -0.13149,0.23943 -0.27635,0.49072 -0.14746,0.25584 -0.26333,0.49211 -0.26333,0.53695 0,0.16857 0.21037,0.24105 0.32632,0.11241 0.034,-0.0378 0.17744,-0.27064 0.31854,-0.51738 l 0.25653,-0.44865 0.0865,0.0545 c 0.61886,0.39019 1.50385,1.27413 1.82815,1.82598 l 0.0507,0.0861 -0.4479,0.2565 c -0.24639,0.14109 -0.47889,0.28442 -0.51669,0.31851 -0.13227,0.11923 -0.0553,0.32635 0.1211,0.32635 0.043,0 0.27776,-0.1169 0.52175,-0.25956 0.24398,-0.14275 0.4633,-0.26712 0.48738,-0.27634 0.0315,-0.0122 0.0843,0.0712 0.18992,0.29773 0.30318,0.65251 0.47439,1.31621 0.55208,2.14028 l 0.0194,0.20623 h -0.91767 c -0.63624,0 -0.94176,0.0107 -0.99625,0.0358 -0.0859,0.0392 -0.12425,0.13826 -0.0963,0.24924 0.033,0.13171 0.11749,0.14277 1.09206,0.14277 h 0.91709 l -0.0197,0.22151 c -0.0539,0.60567 -0.18504,1.20029 -0.37819,1.71421 -0.0962,0.25616 -0.28586,0.67415 -0.32589,0.71849 -0.006,0.007 -0.22567,-0.1143 -0.4892,-0.26737 -0.28394,-0.16505 -0.51294,-0.2785 -0.56214,-0.2785 -0.17125,0 -0.24526,0.20926 -0.11548,0.32632 0.0379,0.034 0.27064,0.17744 0.51739,0.31854 l 0.44864,0.25653 -0.0572,0.0917 c -0.37949,0.6077 -1.20171,1.42881 -1.82302,1.82053 l -0.0865,0.0545 -0.25652,-0.44864 c -0.1411,-0.24674 -0.28442,-0.47956 -0.31853,-0.51738 -0.11924,-0.13225 -0.32633,-0.0553 -0.32633,0.12112 0,0.043 0.1169,0.27774 0.25954,0.52173 0.14275,0.24399 0.26701,0.46305 0.27613,0.48681 0.012,0.0303 -0.0623,0.0803 -0.25191,0.16982 -0.66579,0.31406 -1.37419,0.50053 -2.1706,0.57134 l -0.22153,0.0197 v -0.9171 c 0,-0.63579 -0.0107,-0.94116 -0.0358,-0.99564 -0.0392,-0.0859 -0.13827,-0.12428 -0.24925,-0.0963 -0.13167,0.0331 -0.14275,0.1175 -0.14275,1.09022 v 0.91524 l -0.0841,-0.005 c -0.0462,-0.002 -0.12527,-0.008 -0.17571,-0.0152 z m 2.30971,-5.96511 c 0.0738,-0.0913 0.0738,-0.16166 0,-0.25295 l -0.0584,-0.0721 -0.83747,-0.008 -0.83747,-0.008 -0.81699,-1.4169 c -0.44936,-0.77928 -0.83799,-1.42492 -0.86362,-1.43477 -0.14145,-0.0542 -0.28607,0.0267 -0.28607,0.1599 0,0.10446 1.69981,3.04575 1.7843,3.08763 0.0411,0.0205 0.38723,0.0295 0.96083,0.0257 l 0.89649,-0.007 z"
         id="path155" /><circle
         style="fill:none;fill-opacity:1;fill-rule:evenodd;stroke:#6e1ef0;stroke-width:1.8457;stroke-dasharray:none;stroke-opacity:1"
         id="path156"
         cx="271.39285"
         cy="139.80415"
         r="7.4881735" /></g></g></svg>
