<?xml version="1.0" encoding="UTF-8" standalone="no"?>
<!-- Created with Inkscape (http://www.inkscape.org/) -->

<svg
   width="46.476051mm"
   height="41.847019mm"
   viewBox="0 0 46.476051 41.847019"
   version="1.1"
   id="svg1"
   xml:space="preserve"
   inkscape:export-filename="Documents\GitHub\FrontEnd-Angular\src\assets\asignatura2.svg"
   inkscape:export-xdpi="96"
   inkscape:export-ydpi="96"
   inkscape:version="1.3.2 (091e20e, 2023-11-25, custom)"
   sodipodi:docname="dibujo.svg"
   xmlns:inkscape="http://www.inkscape.org/namespaces/inkscape"
   xmlns:sodipodi="http://sodipodi.sourceforge.net/DTD/sodipodi-0.dtd"
   xmlns="http://www.w3.org/2000/svg"
   xmlns:svg="http://www.w3.org/2000/svg"><sodipodi:namedview
     id="namedview1"
     pagecolor="#ffffff"
     bordercolor="#000000"
     borderopacity="0.25"
     inkscape:showpageshadow="2"
     inkscape:pageopacity="0.0"
     inkscape:pagecheckerboard="0"
     inkscape:deskcolor="#d1d1d1"
     inkscape:document-units="mm"
     inkscape:zoom="1.4142136"
     inkscape:cx="194.45436"
     inkscape:cy="92.277435"
     inkscape:window-width="1920"
     inkscape:window-height="974"
     inkscape:window-x="-11"
     inkscape:window-y="-11"
     inkscape:window-maximized="1"
     inkscape:current-layer="layer1" /><defs
     id="defs1" /><g
     inkscape:label="Capa 1"
     inkscape:groupmode="layer"
     id="layer1"
     transform="translate(-233.74898,-105.41027)"><path
       style="fill:#6e1ef0;fill-opacity:1;stroke-width:0.416809"
       d="m 242.81747,147.17431 c -0.97382,-0.24169 -1.75281,-1.06722 -1.94039,-2.05634 -0.0821,-0.43295 -0.0821,-37.13659 0,-37.56953 0.14156,-0.74645 0.68385,-1.49099 1.32122,-1.81397 0.55193,-0.27968 0.85717,-0.32415 2.22521,-0.32415 h 1.2629 v 9.18313 9.18313 l 0.13738,0.15972 c 0.20078,0.23342 0.46728,0.21781 0.79502,-0.0466 0.14066,-0.11346 1.80305,-1.42427 3.6942,-2.91291 2.33831,-1.84063 3.46022,-2.68984 3.50647,-2.65419 0.26919,0.20757 1.92008,1.50339 3.05285,2.39624 0.74911,0.59045 2.0006,1.57657 2.78109,2.19138 0.78049,0.6148 1.47719,1.13992 1.54821,1.16692 0.0768,0.0292 0.20118,0.024 0.30694,-0.0129 0.37148,-0.12949 0.34816,0.50841 0.34816,-9.52269 v -9.13128 h 2.34491 2.34491 l 0.0169,2.41975 0.0168,2.41975 0.16201,0.32991 c 0.19994,0.40713 0.58907,0.84739 0.95355,1.07881 0.54159,0.34389 0.67563,0.359 3.18387,0.359 h 2.27882 v 16.39425 c 0,10.90882 -0.0198,16.49861 -0.0591,16.70618 -0.19218,1.0133 -1.01615,1.86066 -2.01571,2.07291 -0.46494,0.0987 -27.86639,0.0827 -28.26623,-0.0165 z m 27.12706,-5.10284 c 0.0982,-0.0982 0.14226,-0.20669 0.14226,-0.35038 0,-0.14369 -0.0441,-0.25216 -0.14226,-0.35038 l -0.14226,-0.14226 h -12.81403 -12.81401 l -0.14226,0.14226 c -0.19935,0.19934 -0.19442,0.51043 0.0111,0.7009 l 0.15335,0.14213 h 12.80293 12.80292 z m -0.0937,-5.97018 c 0.28149,-0.14556 0.32824,-0.52371 0.0937,-0.75823 l -0.14226,-0.14226 h -12.81403 -12.81401 l -0.14226,0.14226 c -0.23826,0.23826 -0.18115,0.61219 0.11854,0.7761 0.0829,0.0453 3.73754,0.0639 12.82612,0.0652 11.04418,0.002 12.7317,-0.009 12.87418,-0.083 z m 0.0577,-6.09289 c 0.22698,-0.19099 0.24199,-0.46496 0.0384,-0.70161 l -0.13987,-0.16262 h -12.81878 -12.81879 l -0.13989,0.16262 c -0.24518,0.28504 -0.14331,0.68235 0.20787,0.81072 0.0478,0.0175 5.80323,0.0339 12.78982,0.0363 l 12.70287,0.005 z m 0.0288,-6.04709 c 0.20599,-0.1936 0.20599,-0.51068 0,-0.70427 l -0.1495,-0.14051 -2.21229,-0.0173 c -1.21676,-0.01 -2.29715,-0.002 -2.40088,0.0172 -0.52138,0.0954 -0.57256,0.78596 -0.0722,0.97452 0.0478,0.018 1.12159,0.0278 2.38615,0.0219 l 2.29923,-0.0109 z m 0.0305,-6.07014 c 0.17996,-0.22877 0.1564,-0.49979 -0.0592,-0.68122 l -0.17832,-0.15005 h -2.28778 c -2.69889,0 -2.68773,-0.002 -2.68773,0.54524 0,0.2169 0.18274,0.41934 0.40571,0.44946 0.0797,0.0107 1.16715,0.0125 2.41657,0.004 l 2.27168,-0.0158 z m -23.29599,-3.89596 v -8.58489 h 7.10097 7.10096 l -0.003,8.54882 c -0.002,5.73759 -0.0227,8.54882 -0.0621,8.54882 -0.0324,0 -0.9246,-0.68275 -1.98283,-1.51724 -1.05823,-0.83448 -2.57127,-2.02769 -3.36233,-2.65158 -0.79105,-0.62389 -1.50432,-1.15693 -1.58504,-1.18453 -0.0881,-0.0301 -0.19721,-0.0272 -0.27306,0.007 -0.0904,0.0412 -5.15621,3.99908 -6.86079,5.36029 -0.0579,0.0462 -0.0724,-1.66691 -0.0724,-8.52706 z m 5.94801,0.7984 1.14243,-0.46958 0.72919,0.3004 c 1.68198,0.69291 1.60724,0.66992 1.8308,0.56331 0.13013,-0.062 0.21335,-0.15064 0.23954,-0.25499 0.036,-0.14336 -0.06,-1.92948 -0.1271,-2.36461 -0.0239,-0.15492 0.0617,-0.27714 0.78507,-1.1216 0.72881,-0.85079 0.81186,-0.96982 0.81186,-1.16355 0,-0.36239 -0.12347,-0.42608 -1.44153,-0.74363 l -1.18071,-0.28446 -0.60139,-0.98047 c -0.33076,-0.53926 -0.66809,-1.03915 -0.74962,-1.11087 -0.15799,-0.13899 -0.37059,-0.16713 -0.54745,-0.0725 -0.0596,0.0319 -0.38713,0.51388 -0.72796,1.07117 -0.34084,0.55728 -0.64901,1.03643 -0.68485,1.06478 -0.0358,0.0283 -0.57998,0.17438 -1.20918,0.32449 -0.62922,0.15012 -1.19727,0.31649 -1.26236,0.3697 -0.0651,0.0532 -0.13316,0.18948 -0.1513,0.30281 -0.0372,0.23269 -0.10445,0.13578 0.95635,1.37868 l 0.66001,0.77332 -0.0945,1.25082 c -0.0856,1.13376 -0.086,1.26374 -0.004,1.38874 0.0862,0.13154 0.26368,0.23601 0.4144,0.24392 0.0384,0.002 0.58406,-0.20764 1.2124,-0.46591 z m -0.62201,-0.85646 c -0.0103,-0.0601 0.004,-0.29188 0.0646,-1.07884 0.0677,-0.87306 0.12973,-0.72159 -0.68417,-1.67016 -0.26833,-0.31271 -0.47309,-0.58334 -0.45504,-0.60139 0.018,-0.0181 0.35336,-0.1084 0.74514,-0.20079 1.15017,-0.27123 1.02353,-0.18369 1.58971,-1.09882 l 0.50033,-0.80866 0.45314,0.73648 c 0.24923,0.40507 0.49999,0.78173 0.55725,0.83701 0.0603,0.0582 0.47788,0.19081 0.99128,0.31483 0.80718,0.19497 0.87988,0.22287 0.8062,0.30946 -0.0445,0.0523 -0.32343,0.38017 -0.61976,0.7285 l -0.53876,0.63333 0.0382,0.61277 c 0.021,0.33703 0.0542,0.77514 0.0737,0.97358 l 0.0355,0.36081 -0.77581,-0.32609 c -0.42669,-0.17936 -0.85405,-0.33727 -0.94968,-0.35093 -0.12164,-0.0174 -0.42197,0.0788 -0.99977,0.32002 -0.45425,0.18967 -0.82867,0.32867 -0.83205,0.30889 z m 16.50263,-2.98999 c -0.34456,-0.12282 -0.62877,-0.38055 -0.80514,-0.73013 l -0.1602,-0.31755 0.0153,-1.86815 0.0153,-1.86814 2.43398,2.43453 2.43398,2.43453 -1.8544,-0.002 c -1.42464,-0.002 -1.90642,-0.0211 -2.07885,-0.0826 z"
       id="path132" /><path
       style="fill:#000000;fill-opacity:0;stroke-width:0.460514"
       d="m 245.24975,135.04526 c -0.42784,-0.67015 -0.82166,-1.21845 -0.87513,-1.21845 -0.0535,0 -0.31624,0.11173 -0.58391,0.24829 -0.26767,0.13655 -0.60818,0.2945 -0.75667,0.351 l -0.27001,0.10273 0.0337,-4.12817 c 0.0184,-2.2705 0.0639,-4.12817 0.10085,-4.12817 0.0371,0 0.74703,0.36772 1.5778,0.81715 l 1.51049,0.81717 0.0334,4.1785 c 0.0184,2.29818 0.0276,4.17849 0.0204,4.17847 -0.007,-4e-5 -0.36314,-0.54836 -0.79098,-1.2185 z"
       id="use179"
       sodipodi:nodetypes="sssscssscssss" /></g></svg>
