<?xml version="1.0" encoding="UTF-8" standalone="no"?>
<!-- Created with Inkscape (http://www.inkscape.org/) -->

<svg
   width="46.476051mm"
   height="41.847019mm"
   viewBox="0 0 46.476051 41.847019"
   version="1.1"
   id="svg1"
   xml:space="preserve"
   inkscape:export-filename="Documents\GitHub\FrontEnd-Angular\src\assets\docente.svg"
   inkscape:export-xdpi="96"
   inkscape:export-ydpi="96"
   inkscape:version="1.3.2 (091e20e, 2023-11-25, custom)"
   sodipodi:docname="dibujo.svg"
   xmlns:inkscape="http://www.inkscape.org/namespaces/inkscape"
   xmlns:sodipodi="http://sodipodi.sourceforge.net/DTD/sodipodi-0.dtd"
   xmlns="http://www.w3.org/2000/svg"
   xmlns:svg="http://www.w3.org/2000/svg"><sodipodi:namedview
     id="namedview1"
     pagecolor="#ffffff"
     bordercolor="#000000"
     borderopacity="0.25"
     inkscape:showpageshadow="2"
     inkscape:pageopacity="0.0"
     inkscape:pagecheckerboard="0"
     inkscape:deskcolor="#d1d1d1"
     inkscape:document-units="mm"
     inkscape:zoom="1.4142136"
     inkscape:cx="194.45436"
     inkscape:cy="92.277435"
     inkscape:window-width="1920"
     inkscape:window-height="974"
     inkscape:window-x="-11"
     inkscape:window-y="-11"
     inkscape:window-maximized="1"
     inkscape:current-layer="layer1" /><defs
     id="defs1" /><g
     inkscape:label="Capa 1"
     inkscape:groupmode="layer"
     id="layer1"
     transform="translate(-233.74898,-105.41027)"><rect
       style="fill:#6e1ef0;fill-opacity:1;fill-rule:evenodd;stroke-width:0.0551318"
       id="rect136"
       width="45.680576"
       height="41.847031"
       x="234.14671"
       y="105.41026"
       rx="3.6026776"
       ry="4.1304235" /><rect
       style="fill:#ffffff;fill-opacity:1;fill-rule:evenodd;stroke-width:0.0729884"
       id="rect153"
       width="3.4101872"
       height="1.136729"
       x="273.93472"
       y="108.03896"
       rx="0.5683645"
       ry="0.5683645" /><rect
       style="fill:#ffffff;fill-opacity:1;fill-rule:evenodd;stroke-width:0.0729884"
       id="rect154"
       width="3.4101872"
       height="1.136729"
       x="267.80585"
       y="108.03896"
       rx="0.5683645"
       ry="0.5683645" /><rect
       style="fill:#ffffff;fill-opacity:1;fill-rule:evenodd;stroke-width:0.0729884"
       id="rect155"
       width="3.4101872"
       height="1.136729"
       x="261.27505"
       y="108.03896"
       rx="0.5683645"
       ry="0.5683645" /><path
       style="fill:#ffffff;fill-opacity:1;stroke-width:0.187034"
       d="m 253.08814,142.50851 -13.41071,-0.0247 -0.26389,-0.14618 c -0.87765,-0.48615 -1.03178,-1.69148 -0.30631,-2.39551 0.34776,-0.33751 0.60556,-0.40273 1.59189,-0.40273 h 0.84478 l -0.0366,-0.13608 c -0.0942,-0.35019 -0.1184,-0.5743 -0.12041,-1.1159 -0.003,-0.79085 0.0675,-0.9254 0.48438,-0.9254 l 0.18153,1e-5 v -4.51561 -4.5156 l 0.116,-0.23556 c 0.0638,-0.12956 0.21412,-0.31596 0.33402,-0.41422 l 0.21803,-0.17866 v -0.4415 c 0,-1.23411 0.49607,-2.39767 1.44248,-3.38349 l 0.38529,-0.40132 0.0144,-4.20272 0.0144,-4.2027 0.13856,-0.49487 c 1.07764,-3.84862 5.49316,-5.45258 8.77145,-3.18629 0.1924,0.133 0.54021,0.43668 0.77292,0.67485 0.7156,0.73236 1.18759,1.56232 1.46571,2.57728 l 0.1311,0.4785 0.0156,4.18858 0.0156,4.18856 0.38181,0.38889 c 0.9388,0.95624 1.44344,2.16818 1.44464,3.46939 1.8e-4,0.22454 0.0192,0.40825 0.0423,0.40825 0.089,0 0.42137,0.3743 0.50967,0.57392 0.0885,0.2001 0.0927,0.4155 0.091,4.70463 l -0.002,4.49493 0.21765,0.0148 c 0.1515,0.0103 0.2509,0.0502 0.32709,0.13135 0.10614,0.11298 0.10881,0.14246 0.088,0.9749 -0.0118,0.47211 -0.0385,0.90848 -0.0594,0.96972 l -0.038,0.11135 h 0.92126 0.92126 v -1.33993 -1.33993 l 0.14466,-0.14466 0.14466,-0.14464 h 0.94502 0.94502 l -0.0134,-1.05159 -0.0134,-1.05157 -0.98972,-0.0274 c -0.54435,-0.0151 -0.99471,-0.0318 -1.00082,-0.0372 -0.005,-0.005 -0.0451,-0.0754 -0.0866,-0.15571 -0.063,-0.12184 -0.0755,-0.40498 -0.0755,-1.71108 v -1.56507 l 0.14572,-0.14572 0.14572,-0.14571 5.38541,0.0134 5.38541,0.0134 0.32578,0.16041 c 0.39236,0.19317 0.73987,0.54714 0.92506,0.94224 0.11468,0.24466 0.13262,0.34658 0.13262,0.75308 0,0.40943 -0.0176,0.50761 -0.13609,0.76064 -0.0749,0.15979 -0.13587,0.2934 -0.13563,0.29691 1.9e-4,0.004 0.2087,0.0112 0.4632,0.0168 0.92524,0.021 1.56433,0.44551 1.86273,1.23744 0.0896,0.23778 0.10441,0.36144 0.0876,0.73152 -0.0258,0.56925 -0.18063,0.90613 -0.59124,1.28629 -0.3761,0.3482 -0.70955,0.47504 -1.33466,0.50771 l -0.47685,0.0249 0.13045,0.27819 c 0.11226,0.23941 0.13045,0.34375 0.13045,0.74832 0,0.40943 -0.0176,0.50761 -0.1361,0.76064 -0.0749,0.15979 -0.13608,0.29897 -0.13608,0.30929 0,0.0103 0.15031,0.0188 0.33403,0.0188 0.59655,7e-5 1.11355,0.33591 1.36727,0.88819 0.15906,0.34625 0.14593,0.93508 -0.0282,1.26756 -0.13933,0.2659 -0.42246,0.5517 -0.69274,0.69922 -0.15246,0.0832 -0.41352,0.0911 -3.77626,0.11416 -1.98686,0.0136 -9.64729,0.0136 -17.02318,0 z m 20.4395,-0.89162 c 0.52289,-0.25312 0.48562,-0.98455 -0.062,-1.21791 -0.13384,-0.057 -2.81039,-0.0678 -16.77764,-0.0678 h -16.61839 l -0.2208,0.11135 c -0.51355,0.25897 -0.51052,0.92451 0.005,1.18758 0.16055,0.0819 1.06591,0.0865 16.81847,0.0866 16.596,8e-5 16.64943,-1.8e-4 16.85502,-0.0998 z m -15.76344,-2.1574 c 0.3302,-0.13212 0.4203,-0.31105 0.42067,-0.83545 l 3.8e-4,-0.44555 -7.97962,-0.0125 -7.9796,-0.0125 v 0.39762 c 0,0.56668 0.13678,0.83539 0.47716,0.9374 0.0778,0.0233 3.45342,0.0442 7.50144,0.0466 6.66367,0.005 7.37893,-0.004 7.55963,-0.0756 z m 14.02964,-0.0514 c 0.37985,-0.20444 0.56908,-0.52119 0.56908,-0.95262 0,-0.30854 -0.0501,-0.44049 -0.25605,-0.67514 -0.34489,-0.3928 0.0508,-0.36656 -5.54617,-0.36779 l -4.98572,-8.3e-4 v 1.06486 1.06487 l 5.01045,-0.0134 5.01047,-0.0133 z m -14.49749,-2.11795 c 0.10237,-0.0428 0.19214,-0.12502 0.2219,-0.2033 0.0326,-0.0858 0.0454,-1.60734 0.0368,-4.38053 l -0.0132,-4.24909 -0.11272,-0.11271 -0.11272,-0.1127 h -7.10413 -7.10416 l -0.11942,0.13885 -0.11943,0.13885 v 4.2711 c 0,4.21022 0.002,4.27291 0.1,4.39817 0.055,0.07 0.14961,0.13668 0.21032,0.14839 0.0607,0.0117 3.22312,0.0243 7.02761,0.0281 5.94503,0.006 6.94142,-0.004 7.08919,-0.0651 z m -7.52377,-1.71033 c -0.54908,-0.0839 -1.15079,-0.3927 -1.55199,-0.79652 -1.2209,-1.22889 -1.08317,-3.22009 0.29452,-4.25779 1.58927,-1.19706 3.85494,-0.42126 4.42949,1.51673 0.0566,0.1909 0.0875,0.45595 0.0866,0.74229 -0.003,0.79664 -0.26391,1.42039 -0.83477,1.9914 -0.65503,0.65524 -1.51978,0.94203 -2.42391,0.80389 z m 1.02471,-0.8892 c 1.02042,-0.31517 1.62545,-1.39247 1.35115,-2.40582 -0.16349,-0.60396 -0.58876,-1.09029 -1.19253,-1.36375 -0.19721,-0.0894 -0.33649,-0.11067 -0.73796,-0.11304 -0.457,-0.003 -0.52037,0.009 -0.82844,0.1551 -0.43173,0.20451 -0.78846,0.56125 -0.99298,0.99299 -0.14493,0.30594 -0.15801,0.37457 -0.15801,0.82843 0,0.45386 0.0131,0.5225 0.15801,0.82843 0.43815,0.92495 1.43967,1.37452 2.40076,1.07766 z m 23.15514,1.74132 c 0.3752,-0.19601 0.56464,-0.50832 0.55914,-0.92181 -0.002,-0.17236 -0.0379,-0.36577 -0.0834,-0.45297 -0.11737,-0.22495 -0.44887,-0.50323 -0.67065,-0.56293 -0.13225,-0.0356 -1.76902,-0.0483 -5.11223,-0.0398 l -4.91766,0.0125 -0.0134,1.05158 -0.0134,1.05158 h 4.99342 4.99342 z m -2.14008,-2.94165 c 0.13177,-0.0678 0.29087,-0.20678 0.37692,-0.32921 0.13478,-0.19177 0.14892,-0.24858 0.14892,-0.59863 0,-0.35525 -0.0127,-0.40427 -0.15581,-0.60184 -0.0857,-0.11828 -0.25064,-0.26522 -0.36656,-0.32653 l -0.21076,-0.11144 h -5.01503 -5.01505 v 1.03841 1.03841 l 1.3485,0.0132 c 0.74167,0.007 2.99377,0.009 5.00467,0.005 l 3.65618,-0.009 z m -22.02648,-7.21662 -0.0133,-1.14162 -0.25173,-0.0851 c -0.74259,-0.2513 -1.2717,-0.86105 -1.43761,-1.65667 -0.0404,-0.19369 -0.0839,-0.36265 -0.0967,-0.37547 -0.0128,-0.0128 -0.277,0.002 -0.58707,0.0331 -1.09743,0.10968 -1.88347,0.47456 -2.62953,1.22061 -0.61089,0.61089 -0.95583,1.22476 -1.12874,2.00876 -0.0888,0.40292 -0.14854,1.01634 -0.10564,1.08576 0.0223,0.036 1.00838,0.0524 3.14801,0.0524 h 3.1156 z m 7.07468,0.60965 c -0.05,-0.97518 -0.41588,-1.80789 -1.1223,-2.55432 -0.72793,-0.76917 -1.69016,-1.20824 -2.835,-1.29367 -0.38818,-0.0289 -0.48549,-0.0228 -0.50078,0.0318 -0.0103,0.0372 -0.044,0.20132 -0.0746,0.36461 -0.13712,0.73158 -0.67577,1.35213 -1.39233,1.60397 l -0.27217,0.0957 -0.0133,1.14199 -0.0133,1.14199 h 3.12553 3.12555 z m -6.00292,-2.72694 c 0.51782,-0.29079 0.72119,-0.73639 0.72119,-1.58024 0,-0.47195 -0.007,-0.51288 -0.0866,-0.48023 -0.5455,0.22477 -1.69223,0.26835 -2.3011,0.0874 l -0.33403,-0.0992 v 0.52872 c 0,0.72076 0.0822,0.98216 0.41234,1.3106 0.45111,0.4488 1.04793,0.53635 1.5882,0.23296 z m -5.19303,-1.51829 c 0.56754,-0.25099 1.10425,-0.37562 1.74502,-0.40521 l 0.60621,-0.028 v -0.278 -0.278 l -0.27586,-0.21544 c -0.39946,-0.31199 -0.7891,-0.8073 -1.03623,-1.31732 -0.38445,-0.79334 -0.38436,-0.79269 -0.40682,-3.01997 -0.0233,-2.32268 -0.0751,-2.11875 0.62617,-2.47093 1.01985,-0.51221 1.80631,-0.73086 2.62022,-0.72848 0.82836,0.003 1.28152,0.17053 2.01946,0.74912 0.3395,0.2662 0.76504,0.448 1.04474,0.44635 0.2288,-0.002 0.58198,-0.15757 0.77755,-0.34392 0.16368,-0.15597 0.27801,-0.18789 0.48158,-0.13443 0.27421,0.072 0.28544,0.15497 0.28544,2.10644 0,1.00277 -0.0233,1.94944 -0.0534,2.16746 -0.14023,1.01576 -0.65635,1.94292 -1.41971,2.55033 l -0.31309,0.24914 0.0147,0.25365 0.0147,0.25365 0.61858,0.0337 c 0.6498,0.0353 1.19956,0.16318 1.75123,0.40716 l 0.2777,0.12281 0.005,-2.45921 c 0.006,-4.40226 -0.004,-5.04928 -0.085,-5.45002 -0.29597,-1.44782 -1.27886,-2.71435 -2.61594,-3.37084 -0.7881,-0.38695 -1.13079,-0.46123 -2.12789,-0.46123 -1.00318,0 -1.34859,0.075 -2.13819,0.46421 -1.08114,0.53293 -1.89604,1.39966 -2.34559,2.49481 -0.36773,0.89586 -0.35682,0.75161 -0.37731,4.98968 -0.0101,2.08892 -0.009,3.79804 0.003,3.79804 0.0115,0 0.14887,-0.0565 0.30499,-0.12552 z m 5.5667,-1.32532 c 0.74767,-0.26391 1.38432,-0.82943 1.73714,-1.54305 0.30583,-0.61863 0.34053,-0.87672 0.34152,-2.53949 6.6e-4,-1.4039 -0.002,-1.44983 -0.0933,-1.42091 -0.2537,0.0806 -0.67157,0.11622 -0.90792,0.0776 -0.49687,-0.0813 -0.78029,-0.2277 -1.57118,-0.8117 -0.29748,-0.21966 -0.57473,-0.3212 -0.97983,-0.35886 -0.58866,-0.0548 -1.38929,0.13451 -2.22438,0.52572 l -0.40826,0.19125 6.6e-4,1.67336 c 5.6e-4,1.32539 0.0164,1.74025 0.0763,1.99502 0.2567,1.09234 1.17675,2.0222 2.27416,2.29839 0.46761,0.1177 1.29022,0.0768 1.75503,-0.0873 z"
       id="path136" /><path
       style="fill:#000000;fill-opacity:0;stroke-width:0.460514"
       d="m 245.43684,135.04526 c -0.42784,-0.67015 -0.82166,-1.21845 -0.87513,-1.21845 -0.0535,0 -0.31624,0.11173 -0.58391,0.24829 -0.26767,0.13655 -0.60818,0.2945 -0.75667,0.351 l -0.27001,0.10273 0.0337,-4.12817 c 0.0184,-2.2705 0.0639,-4.12817 0.10085,-4.12817 0.0371,0 0.74703,0.36772 1.5778,0.81715 l 1.51049,0.81717 0.0334,4.1785 c 0.0184,2.29818 0.0276,4.17849 0.0204,4.17847 -0.007,-4e-5 -0.36314,-0.54836 -0.79098,-1.2185 z"
       id="use179"
       sodipodi:nodetypes="sssscssscssss" /></g></svg>
