<?xml version="1.0" encoding="UTF-8" standalone="no"?>
<!-- Created with Inkscape (http://www.inkscape.org/) -->

<svg
   width="46.476051mm"
   height="41.847019mm"
   viewBox="0 0 46.476051 41.847019"
   version="1.1"
   id="svg1"
   xml:space="preserve"
   inkscape:export-filename="Documents\GitHub\FrontEnd-Angular\src\assets\estudent2.svg"
   inkscape:export-xdpi="96"
   inkscape:export-ydpi="96"
   inkscape:version="1.3.2 (091e20e, 2023-11-25, custom)"
   sodipodi:docname="dibujo.svg"
   xmlns:inkscape="http://www.inkscape.org/namespaces/inkscape"
   xmlns:sodipodi="http://sodipodi.sourceforge.net/DTD/sodipodi-0.dtd"
   xmlns="http://www.w3.org/2000/svg"
   xmlns:svg="http://www.w3.org/2000/svg"><sodipodi:namedview
     id="namedview1"
     pagecolor="#ffffff"
     bordercolor="#000000"
     borderopacity="0.25"
     inkscape:showpageshadow="2"
     inkscape:pageopacity="0.0"
     inkscape:pagecheckerboard="0"
     inkscape:deskcolor="#d1d1d1"
     inkscape:document-units="mm"
     inkscape:zoom="1.4142136"
     inkscape:cx="194.45436"
     inkscape:cy="92.277435"
     inkscape:window-width="1920"
     inkscape:window-height="974"
     inkscape:window-x="-11"
     inkscape:window-y="-11"
     inkscape:window-maximized="1"
     inkscape:current-layer="layer1" /><defs
     id="defs1" /><g
     inkscape:label="Capa 1"
     inkscape:groupmode="layer"
     id="layer1"
     transform="translate(-233.74898,-105.41027)"><path
       style="fill:#6e1ef0;fill-opacity:1;stroke-width:0.236775"
       d="m 261.74737,140.20953 v -7.04775 h 8.23804 8.23803 v 7.04775 7.04775 h -8.23803 -8.23804 z m 9.27894,4.57108 c 0.52922,-0.11056 1.12241,-0.33427 1.73375,-0.65386 0.56221,-0.29391 1.29734,-0.83041 1.40503,-1.02539 0.0498,-0.0901 0.0834,-0.63375 0.10042,-1.62565 l 0.0256,-1.49027 0.24336,-0.12415 0.24336,-0.12416 v 0.72482 c 0,0.75187 0.0725,1.0368 0.28472,1.11822 0.20882,0.0801 0.49269,0.0367 0.63528,-0.0973 0.14293,-0.13428 0.14499,-0.15561 0.14499,-1.49659 0,-1.20554 -0.0125,-1.37478 -0.10963,-1.48708 -0.13303,-0.15376 -5.57365,-3.0195 -5.73254,-3.0195 -0.13881,0 -0.43473,0.14855 -3.33557,1.67436 -1.27485,0.67057 -2.37007,1.26949 -2.43382,1.33094 -0.14338,0.13822 -0.15427,0.53076 -0.0189,0.68037 0.0534,0.059 0.39192,0.2616 0.75236,0.45032 0.78237,0.40964 0.72766,0.26022 0.72864,1.98974 4.8e-4,0.88771 0.0238,1.26316 0.0877,1.41618 0.1518,0.36333 1.15678,1.05316 2.06282,1.41596 1.20472,0.48239 2.06924,0.57559 3.18236,0.34304 z m -1.41678,-0.97351 c -0.82543,-0.11447 -1.70186,-0.45291 -2.39926,-0.92651 -0.36694,-0.24918 -0.3806,-0.26832 -0.41895,-0.58726 -0.0218,-0.18134 -0.0309,-0.64123 -0.0202,-1.02199 l 0.0194,-0.6923 1.50351,0.7981 c 0.82694,0.43895 1.57812,0.79982 1.66929,0.80193 0.0972,0.002 0.79708,-0.32946 1.69146,-0.80162 l 1.5257,-0.80544 0.0203,0.44522 c 0.0112,0.24488 10e-4,0.70677 -0.0216,1.02644 l -0.042,0.5812 -0.37793,0.25665 c -0.9519,0.64642 -2.30189,1.04314 -3.14965,0.92558 z m -1.67739,-3.84316 c -1.1293,-0.59599 -2.06713,-1.09748 -2.08407,-1.11442 -0.0343,-0.0343 4.03816,-2.19776 4.13734,-2.19794 0.0551,-9e-5 4.0839,2.10806 4.14465,2.16882 0.0131,0.0131 -0.71675,0.41281 -1.62189,0.88827 -0.90514,0.47546 -1.84304,0.97122 -2.08423,1.10168 l -0.43853,0.23722 z m -31.29979,-1.2624 c -0.83177,-0.2833 -1.47165,-0.82569 -1.88168,-1.59499 -0.40244,-0.75504 -0.37804,0.20921 -0.37804,-14.93926 0,-15.0643 -0.0221,-14.14443 0.35874,-14.92881 0.24966,-0.5142 0.86445,-1.13961 1.39359,-1.41766 0.83849,-0.44062 -0.70264,-0.40922 20.14498,-0.41042 13.1911,-6e-4 18.97255,0.0192 19.23253,0.0663 1.14267,0.20714 2.14869,1.09211 2.54483,2.2386 l 0.14482,0.41914 v 10.02346 10.02347 h -0.68911 -0.68912 l -0.0313,-2.78778 c -0.0281,-2.50423 -0.0431,-2.81964 -0.14669,-3.10101 -0.15277,-0.41483 -0.38382,-0.8085 -0.64272,-1.09507 l -0.21115,-0.23372 -0.0165,-6.26915 c -0.0165,-6.22918 -0.0174,-6.27027 -0.1463,-6.446 -0.0714,-0.0973 -0.22641,-0.22614 -0.34456,-0.28639 -0.2031,-0.10356 -1.23964,-0.10953 -19.00881,-0.10939 -18.64301,1.3e-4 -18.79564,10e-4 -18.99817,0.12462 -0.1123,0.0685 -0.26019,0.21636 -0.32866,0.32866 -0.12321,0.20208 -0.12449,0.34399 -0.12463,13.82982 -1.2e-4,12.8478 0.006,13.63805 0.1094,13.84278 0.0602,0.11943 0.2082,0.27448 0.3288,0.34456 0.21806,0.12673 0.28306,0.12751 11.82456,0.14374 l 11.6053,0.0163 v 1.18963 1.18963 l -11.79324,-0.002 -11.79324,-0.002 z m 1.24664,-16.56557 v -13.21845 h 18.41812 18.41812 v 5.70755 c 0,5.41022 -0.006,5.70533 -0.10963,5.66497 -0.3643,-0.14151 -1.06667,-0.16246 -4.85181,-0.1447 -4.06131,0.019 -4.09369,0.0202 -4.46182,0.15946 -0.93014,0.35181 -1.57937,1.00572 -1.96753,1.98169 -0.0871,0.21905 -0.10688,0.66996 -0.1348,3.07578 l -0.0327,2.8191 -1.8067,0.0313 c -1.80589,0.0313 -1.80677,0.0314 -1.92639,0.17922 -0.11252,0.13906 -0.11967,0.27443 -0.11967,2.26582 0,1.16486 0.0175,2.16355 0.0389,2.21933 0.0712,0.18557 0.3729,0.28472 0.86635,0.28472 h 0.47296 v 1.09631 1.09632 h -11.40171 -11.40169 z m 18.85184,9.92392 c 0.25003,-0.21039 0.26961,-0.55817 0.0433,-0.77071 l -0.14937,-0.14032 -7.59759,0.004 c -8.41466,0.004 -7.84398,-0.0257 -7.92605,0.41171 -0.0474,0.25254 0.0821,0.50484 0.30532,0.59474 0.0765,0.0308 3.45584,0.0571 7.63444,0.0593 l 7.49713,0.004 z m 0,-2.50586 c 0.24534,-0.20644 0.26157,-0.50258 0.0416,-0.75836 l -0.15118,-0.17578 -7.41341,-0.0184 c -4.07737,-0.0101 -7.50817,-0.001 -7.624,0.0198 -0.27376,0.0496 -0.50984,0.28777 -0.50984,0.51427 0,0.21145 0.15035,0.44374 0.3356,0.51849 0.0738,0.0298 3.50796,0.056 7.63138,0.0581 l 7.49714,0.004 z m -6.79236,-2.84886 c 1.77628,-0.34012 3.82042,-1.33612 4.93601,-2.40505 l 0.27445,-0.26297 0.0416,-1.05457 c 0.0229,-0.58001 0.0417,-1.3813 0.0419,-1.78066 1.4e-4,-0.39935 0.0183,-1.07928 0.0403,-1.51096 l 0.0401,-0.78487 0.65281,-0.34277 c 0.35906,-0.18852 0.67778,-0.35169 0.70829,-0.36259 0.0309,-0.011 0.0638,0.65096 0.0743,1.49339 l 0.0189,1.5132 0.17577,0.15109 c 0.22464,0.1931 0.48883,0.19308 0.71345,-3e-5 l 0.17577,-0.15112 0.0182,-1.97973 c 0.0155,-1.68393 0.004,-2.01 -0.0787,-2.18246 -0.0844,-0.1764 -0.34722,-0.33458 -2.02289,-1.21733 -1.05927,-0.55802 -3.05358,-1.61025 -4.43181,-2.3383 -1.37822,-0.72805 -2.59345,-1.33873 -2.70051,-1.35707 -0.16602,-0.0284 -0.848,0.31072 -4.63586,2.30555 -2.44266,1.28641 -4.50462,2.4017 -4.58215,2.47844 -0.17072,0.169 -0.18378,0.45434 -0.0295,0.64485 0.0613,0.0757 0.63216,0.41353 1.26859,0.75076 l 1.15716,0.61315 0.0175,0.68138 c 0.01,0.37477 0.0378,1.52367 0.0627,2.55313 l 0.0451,1.87174 0.37588,0.34237 c 1.02075,0.92974 2.73478,1.81279 4.2913,2.21083 1.26555,0.32364 2.12901,0.3547 3.35159,0.1206 z m -1.91072,-0.94124 c -1.35855,-0.17427 -2.98496,-0.77121 -4.07701,-1.49638 -0.75872,-0.50383 -0.92899,-0.65405 -0.96037,-0.84733 -0.0168,-0.10336 -0.0447,-1.02831 -0.062,-2.05543 l -0.0315,-1.86748 0.57641,0.30801 c 2.83603,1.5155 4.93043,2.58123 5.07266,2.58123 0.13745,0 2.99827,-1.45942 5.23967,-2.67298 l 0.40157,-0.21741 -0.0416,2.02467 -0.0416,2.02469 -0.20331,0.17681 c -1.4279,1.24176 -4.30665,2.24252 -5.87284,2.0416 z m -3.27329,-6.49371 c -2.05872,-1.08777 -3.74314,-1.99472 -3.74314,-2.01547 0,-0.0328 1.17642,-0.65925 6.44213,-3.43059 l 1.09243,-0.57494 3.77918,1.98449 c 2.07855,1.09147 3.77969,1.99859 3.78031,2.01582 0.001,0.0314 -7.54455,4.01418 -7.58579,4.00391 -0.0121,-0.003 -1.70639,-0.89546 -3.76512,-1.98322 z m 26.03726,-0.67319 c 0.57639,-0.12212 1.25624,-0.46737 1.70113,-0.86389 1.63431,-1.45664 1.70538,-3.94849 0.15678,-5.49708 -1.20862,-1.20863 -3.02292,-1.46886 -4.50596,-0.64631 -0.52394,0.2906 -1.22752,0.99874 -1.49574,1.50543 -0.58741,1.1097 -0.58765,2.49783 -5.9e-4,3.61019 0.26754,0.50696 1.02652,1.26571 1.53398,1.53353 0.78842,0.41609 1.72827,0.54503 2.61043,0.35813 z m -1.43278,-1.06002 c -1.459,-0.36211 -2.38492,-1.86925 -2.01105,-3.27345 0.28743,-1.07953 1.12784,-1.84966 2.22347,-2.03754 0.53942,-0.0925 1.03376,-0.0138 1.61121,0.25638 1.01699,0.47591 1.6605,1.69853 1.47696,2.80614 -0.26388,1.59249 -1.78058,2.62572 -3.30059,2.24847 z m -8.98979,13.15023 v -1.40955 h 9.61626 9.61626 v 1.40955 1.40954 h -9.61626 -9.61626 z m 3.88409,-5.09433 c 0,-2.97381 0.009,-3.04433 0.46011,-3.59889 0.18719,-0.23013 0.39466,-0.39329 0.69576,-0.54717 l 0.42903,-0.21926 h 4.14097 4.14098 l 0.34741,0.16295 c 0.49577,0.23253 0.77914,0.50763 1.01386,0.98424 l 0.20489,0.41604 0.0182,2.71094 0.0181,2.71093 h -0.93942 -0.93942 l -0.0184,-1.74916 -0.0185,-1.74916 -0.15187,-0.16156 c -0.20925,-0.22259 -0.552,-0.22259 -0.76124,0 l -0.15188,0.16156 -0.0185,1.75036 -0.0184,1.75036 -2.73799,-0.0169 -2.738,-0.0168 -0.0166,-1.75115 c -0.0162,-1.69607 -0.021,-1.75567 -0.15188,-1.89506 -0.0871,-0.0928 -0.20743,-0.14391 -0.33842,-0.14391 -0.56704,0 -0.58934,0.0805 -0.58934,2.12687 v 1.69457 h -0.9397 -0.9397 z"
       id="path130" /><path
       style="fill:#000000;fill-opacity:0;stroke-width:0.460514"
       d="m 245.24975,135.04526 c -0.42784,-0.67015 -0.82166,-1.21845 -0.87513,-1.21845 -0.0535,0 -0.31624,0.11173 -0.58391,0.24829 -0.26767,0.13655 -0.60818,0.2945 -0.75667,0.351 l -0.27001,0.10273 0.0337,-4.12817 c 0.0184,-2.2705 0.0639,-4.12817 0.10085,-4.12817 0.0371,0 0.74703,0.36772 1.5778,0.81715 l 1.51049,0.81717 0.0334,4.1785 c 0.0184,2.29818 0.0276,4.17849 0.0204,4.17847 -0.007,-4e-5 -0.36314,-0.54836 -0.79098,-1.2185 z"
       id="use179"
       sodipodi:nodetypes="sssscssscssss" /></g></svg>
