<?xml version="1.0" encoding="UTF-8" standalone="no"?>
<!-- Created with Inkscape (http://www.inkscape.org/) -->

<svg
   width="46.476051mm"
   height="41.847019mm"
   viewBox="0 0 46.476051 41.847019"
   version="1.1"
   id="svg1"
   xml:space="preserve"
   inkscape:export-filename="Documents\GitHub\FrontEnd-Angular\src\assets\periodo.svg"
   inkscape:export-xdpi="96"
   inkscape:export-ydpi="96"
   inkscape:version="1.3.2 (091e20e, 2023-11-25, custom)"
   sodipodi:docname="dibujo.svg"
   xmlns:inkscape="http://www.inkscape.org/namespaces/inkscape"
   xmlns:sodipodi="http://sodipodi.sourceforge.net/DTD/sodipodi-0.dtd"
   xmlns="http://www.w3.org/2000/svg"
   xmlns:svg="http://www.w3.org/2000/svg"><sodipodi:namedview
     id="namedview1"
     pagecolor="#ffffff"
     bordercolor="#000000"
     borderopacity="0.25"
     inkscape:showpageshadow="2"
     inkscape:pageopacity="0.0"
     inkscape:pagecheckerboard="0"
     inkscape:deskcolor="#d1d1d1"
     inkscape:document-units="mm"
     inkscape:zoom="1.4142136"
     inkscape:cx="194.45436"
     inkscape:cy="92.277435"
     inkscape:window-width="1920"
     inkscape:window-height="974"
     inkscape:window-x="-11"
     inkscape:window-y="-11"
     inkscape:window-maximized="1"
     inkscape:current-layer="layer1" /><defs
     id="defs1" /><g
     inkscape:label="Capa 1"
     inkscape:groupmode="layer"
     id="layer1"
     transform="translate(-233.74898,-105.41027)"><g
       id="g163"
       transform="translate(75.450398,0.71045806)"
       style="fill:#6e1ef0;fill-opacity:1"><rect
         style="fill:#6e1ef0;fill-opacity:1;fill-rule:evenodd;stroke-width:0.0551318"
         id="rect136"
         width="45.680576"
         height="41.847031"
         x="158.69632"
         y="104.69981"
         rx="3.6026776"
         ry="4.1304235" /><rect
         style="fill:#6e1ef0;fill-opacity:1;fill-rule:evenodd;stroke-width:0.0729884"
         id="rect153"
         width="3.4101872"
         height="1.136729"
         x="198.29723"
         y="107.32851"
         rx="0.5683645"
         ry="0.5683645" /><rect
         style="fill:#6e1ef0;fill-opacity:1;fill-rule:evenodd;stroke-width:0.0729884"
         id="rect154"
         width="3.4101872"
         height="1.136729"
         x="192.16835"
         y="107.32851"
         rx="0.5683645"
         ry="0.5683645" /><rect
         style="fill:#6e1ef0;fill-opacity:1;fill-rule:evenodd;stroke-width:0.0729884"
         id="rect155"
         width="3.4101872"
         height="1.136729"
         x="185.63756"
         y="107.32851"
         rx="0.5683645"
         ry="0.5683645" /></g><path
       style="color:#000000;fill:#6e1ef0;fill-opacity:1;stroke:#ffffff;stroke-width:0.596;stroke-linecap:round;stroke-linejoin:round;stroke-dasharray:none;stroke-opacity:1"
       d="m 256.92662,110.36552 c -5e-5,0 -0.077,0.0105 -0.077,0.0105 -7e-5,2e-5 -0.0436,0.0175 -0.0437,0.0175 -1.6e-4,9e-5 -0.0418,0.0279 -0.042,0.028 -4.2e-4,3.3e-4 -0.0239,0.0218 -0.0297,0.028 -0.0117,0.0125 -0.0162,0.0183 -0.021,0.0245 -0.01,0.0124 -0.0178,0.0228 -0.0263,0.035 -0.0169,0.0245 -0.0371,0.0564 -0.063,0.0962 -0.0518,0.0798 -0.1229,0.19172 -0.21001,0.33078 -0.17423,0.27812 -0.41037,0.6609 -0.66681,1.08158 -0.25494,0.41823 -0.49655,0.80278 -0.67905,1.08509 -0.0913,0.14115 -0.16756,0.25708 -0.22227,0.33602 -0.0191,0.0275 -0.031,0.0439 -0.0437,0.0613 -0.0234,0.007 -0.0476,0.0147 -0.084,0.0245 -0.0941,0.0254 -0.22779,0.059 -0.38853,0.0998 -0.3215,0.0814 -0.75422,0.18805 -1.21985,0.29927 -0.46729,0.11162 -0.89469,0.21612 -1.20759,0.29402 -0.15646,0.039 -0.28367,0.0707 -0.37453,0.0945 -0.0454,0.0119 -0.0808,0.0219 -0.10851,0.0298 -0.0138,0.004 -0.026,0.006 -0.0385,0.0105 -0.006,0.002 -0.012,0.004 -0.0228,0.009 -0.005,0.002 -0.0114,0.004 -0.0228,0.0105 -0.005,0.003 -0.0226,0.0121 -0.0228,0.0123 -1.9e-4,1.2e-4 -0.0471,0.0384 -0.0472,0.0385 -0.003,0.004 -0.0594,0.0926 -0.0595,0.0927 -6e-5,1.5e-4 -0.0158,0.0751 -0.0158,0.0753 -1e-5,1.9e-4 0.002,0.0487 0.002,0.049 4e-5,2.5e-4 0.004,0.0229 0.005,0.0315 0.008,0.0341 0.0154,0.0465 0.021,0.0577 0.0111,0.0226 0.0187,0.0323 0.0263,0.0437 0.0151,0.0229 0.0306,0.0451 0.0507,0.0718 0.0403,0.0534 0.0967,0.12296 0.16626,0.20827 0.13905,0.17061 0.33094,0.4012 0.54604,0.65105 0.77867,0.90437 1.17631,1.36696 1.3686,1.61187 0.0962,0.12246 0.13851,0.19034 0.14877,0.21177 0.0102,0.0214 0.004,-0.016 0.004,0.021 1e-5,-0.007 -0.004,0.0713 -0.0105,0.16976 -0.006,0.0984 -0.0162,0.23236 -0.028,0.39028 -0.0237,0.31585 -0.0552,0.73078 -0.091,1.16734 -0.0359,0.43749 -0.0691,0.8452 -0.0928,1.15159 -0.0118,0.15319 -0.0213,0.28128 -0.028,0.37453 -0.006,0.0932 -0.0105,0.12096 -0.0105,0.18201 0,0.0282 -0.002,0.057 0.009,0.10501 0.0105,0.048 0.045,0.13725 0.13301,0.19076 0.088,0.0535 0.17131,0.045 0.21527,0.0367 0.044,-0.008 0.0694,-0.0194 0.0962,-0.0298 0.0539,-0.0209 0.23539,-0.0955 0.5408,-0.22226 0.3054,-0.12678 0.71357,-0.29771 1.14984,-0.47954 0.5103,-0.21268 0.91251,-0.37514 1.19184,-0.48129 0.13966,-0.053 0.24989,-0.0906 0.32202,-0.11375 0.0201,-0.006 0.0285,-0.008 0.042,-0.0123 0.024,0.009 0.049,0.0203 0.0858,0.035 0.0915,0.0365 0.22058,0.0875 0.37453,0.15051 0.3079,0.12595 0.72103,0.29634 1.16384,0.48129 0.67118,0.28033 1.07408,0.44616 1.32135,0.53729 0.12363,0.0455 0.20426,0.0737 0.28352,0.0893 0.0396,0.008 0.0769,0.0174 0.15051,0.004 0.0368,-0.007 0.0881,-0.0225 0.13651,-0.0648 0.0485,-0.0423 0.082,-0.11005 0.091,-0.16277 0.008,-0.0491 0.004,-0.0485 0.004,-0.0612 -5e-5,-0.0128 5.3e-4,-0.0254 0,-0.0402 -9e-4,-0.0297 -0.003,-0.0674 -0.005,-0.11375 -0.005,-0.0927 -0.0136,-0.21959 -0.0245,-0.37279 -0.0218,-0.30639 -0.0545,-0.71727 -0.091,-1.16034 -0.0364,-0.44165 -0.0688,-0.86278 -0.0928,-1.18308 -0.012,-0.16016 -0.0213,-0.29547 -0.028,-0.39554 -0.006,-0.10005 -0.0105,-0.17954 -0.0105,-0.17326 0,-0.0125 -0.008,0.0128 0.004,-0.0105 0.0114,-0.0233 0.0479,-0.0828 0.12252,-0.18027 0.14918,-0.195 0.44532,-0.5427 0.99057,-1.17958 0.32525,-0.37992 0.61842,-0.72782 0.82957,-0.98358 0.10557,-0.12789 0.19065,-0.2339 0.25027,-0.30977 0.0298,-0.0379 0.053,-0.0667 0.0718,-0.0928 0.009,-0.0131 0.0173,-0.024 0.028,-0.042 0.005,-0.009 0.0107,-0.018 0.021,-0.0437 0.003,-0.006 0.009,-0.0242 0.009,-0.0245 9e-5,-3.3e-4 0.009,-0.0435 0.009,-0.0437 4e-5,-2.5e-4 -0.004,-0.0821 -0.004,-0.0823 -2e-5,-9e-5 -0.021,-0.0647 -0.021,-0.0648 -4e-5,-7e-5 -0.0507,-0.07 -0.0507,-0.07 -1e-4,-9e-5 -0.0453,-0.0366 -0.0455,-0.0367 -2e-4,-1.2e-4 -0.0171,-0.009 -0.0228,-0.0123 -0.0113,-0.005 -0.0174,-0.008 -0.0228,-0.0105 -0.0107,-0.004 -0.0183,-0.006 -0.0245,-0.009 -0.0126,-0.004 -0.0229,-0.006 -0.0367,-0.0105 -0.0277,-0.008 -0.0632,-0.0179 -0.10852,-0.0297 -0.0907,-0.0237 -0.21841,-0.0558 -0.37453,-0.0945 -0.31221,-0.0774 -0.73789,-0.1814 -1.20409,-0.29227 -0.46446,-0.11047 -0.89834,-0.21621 -1.21984,-0.29753 -0.16075,-0.0407 -0.29427,-0.076 -0.38853,-0.10151 -0.0365,-0.01 -0.0605,-0.016 -0.084,-0.0228 -0.013,-0.0176 -0.0257,-0.0345 -0.0455,-0.063 -0.055,-0.079 -0.1326,-0.1948 -0.22402,-0.33603 -0.18284,-0.28245 -0.42475,-0.66894 -0.67905,-1.08683 -0.25585,-0.42043 -0.49122,-0.80186 -0.66505,-1.07983 -0.0869,-0.13898 -0.15834,-0.25106 -0.21002,-0.33078 -0.0258,-0.0399 -0.0461,-0.0718 -0.063,-0.0963 -0.008,-0.0122 -0.015,-0.0226 -0.0245,-0.035 -0.004,-0.006 -0.009,-0.012 -0.021,-0.0245 -0.006,-0.006 -0.0311,-0.0277 -0.0315,-0.028 -2.2e-4,-1.6e-4 -0.0419,-0.028 -0.042,-0.028 -8e-5,-3e-5 -0.0436,-0.0175 -0.0437,-0.0175 -6e-5,-2e-5 -0.077,-0.0105 -0.077,-0.0105 z m 0,0.73855 c 0.0252,0.04 0.041,0.0623 0.07,0.10852 0.17214,0.27524 0.40662,0.65739 0.66155,1.07633 0.25648,0.42145 0.49941,0.809 0.68606,1.09733 0.0933,0.14417 0.17179,0.26421 0.23276,0.35177 0.0305,0.0438 0.0573,0.0786 0.0806,0.10852 0.0117,0.015 0.0214,0.0288 0.035,0.0437 0.0135,0.015 0.0115,0.0294 0.084,0.0683 0.0743,0.0398 0.0692,0.0271 0.1015,0.0367 0.0324,0.01 0.0729,0.0215 0.12251,0.035 0.0993,0.0269 0.2348,0.0622 0.39729,0.10326 0.32495,0.0822 0.75854,0.18831 1.22508,0.29927 0.46483,0.11055 0.89082,0.21367 1.2006,0.29052 0.0538,0.0134 0.0814,0.0199 0.12776,0.0315 -0.0307,0.0376 -0.0479,0.0596 -0.084,0.10325 -0.20814,0.25212 -0.49897,0.59861 -0.82256,0.97659 -0.5458,0.63751 -0.84017,0.98461 -1.00808,1.20409 -0.084,0.10974 -0.1374,0.18687 -0.17677,0.26777 -0.0393,0.0809 -0.0577,0.17635 -0.0577,0.23976 0,0.0514 0.004,0.10578 0.0105,0.20828 0.007,0.10248 0.0177,0.23971 0.0298,0.40077 0.0241,0.32212 0.0563,0.74201 0.0928,1.18485 0.0364,0.44141 0.0676,0.85149 0.0892,1.15508 0.005,0.0712 0.008,0.11302 0.0123,0.17152 -0.23217,-0.0869 -0.60337,-0.23807 -1.24434,-0.5058 -0.44383,-0.18537 -0.85774,-0.35638 -1.16735,-0.48303 -0.1548,-0.0633 -0.28397,-0.11475 -0.37802,-0.15226 -0.047,-0.0187 -0.0843,-0.0342 -0.11376,-0.0455 -0.0295,-0.0113 -0.0285,-0.0146 -0.0805,-0.028 -0.13467,-0.0346 -0.13555,-0.003 -0.17152,0.005 -0.0359,0.008 -0.0733,0.0191 -0.11726,0.0332 -0.088,0.0282 -0.20214,0.0694 -0.34652,0.12426 -0.28876,0.10973 -0.69435,0.27263 -1.20759,0.48654 -0.43607,0.18174 -0.84302,0.35289 -1.14809,0.47953 -0.14398,0.0598 -0.15735,0.065 -0.25027,0.10326 0.005,-0.0697 0.009,-0.12778 0.0158,-0.21702 0.0236,-0.30521 0.0569,-0.71306 0.0928,-1.14983 0.0359,-0.4377 0.0673,-0.85326 0.091,-1.17084 0.0118,-0.1588 0.023,-0.29303 0.0298,-0.39379 0.007,-0.10074 0.0104,-0.15247 0.0105,-0.20301 9e-5,-0.0502 -0.011,-0.15815 -0.0542,-0.24852 -0.0433,-0.0904 -0.10494,-0.17597 -0.21001,-0.30978 -0.21013,-0.26762 -0.60385,-0.72489 -1.38261,-1.62937 -0.20056,-0.23295 -0.3747,-0.44155 -0.50754,-0.60379 0.0476,-0.012 0.0758,-0.0194 0.13127,-0.0332 0.31048,-0.0773 0.73813,-0.18098 1.20409,-0.29227 0.4676,-0.11169 0.90206,-0.21881 1.22684,-0.30102 0.16239,-0.0411 0.29667,-0.0765 0.39553,-0.10327 0.0495,-0.0134 0.0906,-0.0237 0.12251,-0.0332 0.032,-0.01 0.0224,0.003 0.0998,-0.0385 0.076,-0.0407 0.0725,-0.0535 0.0857,-0.0683 0.0133,-0.0148 0.0236,-0.0271 0.035,-0.042 0.0228,-0.0296 0.0486,-0.0667 0.0788,-0.11026 0.0604,-0.0872 0.13796,-0.20432 0.23102,-0.34827 0.18612,-0.28792 0.42905,-0.67748 0.68606,-1.09909 0.25552,-0.41918 0.49076,-0.79917 0.66329,-1.07458 0.0292,-0.0467 0.0446,-0.07 0.07,-0.11026 z m -3.63852,12.48372 c -0.0368,0 -0.0732,0.008 -0.10676,0.0228 l -0.23103,0.10501 c -0.38602,0.17445 -0.70967,0.52455 -0.8278,0.92232 -0.0328,0.11039 -0.0365,0.21093 -0.0455,0.46203 -0.009,0.25111 -0.0146,0.63969 -0.0193,1.2566 -0.009,1.23382 -0.0105,3.37937 -0.0105,7.13005 v 8.55291 c -4.7e-4,0.1445 0.11627,0.26202 0.26077,0.26252 h 4.6186 4.61861 c 0.1445,-5e-4 0.26124,-0.11802 0.26077,-0.26252 v -8.55291 c 0,-3.75068 -8.9e-4,-5.89623 -0.0105,-7.13005 -0.004,-0.61691 -0.0119,-1.00549 -0.021,-1.2566 -0.009,-0.2511 -0.0109,-0.35164 -0.0437,-0.46203 -0.11813,-0.39777 -0.44176,-0.74787 -0.82781,-0.92232 l -0.23102,-0.10501 c -0.0336,-0.0151 -0.07,-0.0228 -0.10676,-0.0228 h -3.63853 z m 0.056,0.52329 h 3.58252 3.58078 l 0.18026,0.0805 c 0.21552,0.0974 0.48455,0.40565 0.5408,0.59504 -0.004,-0.0133 0.0159,0.0922 0.0245,0.33253 0.009,0.24037 0.0146,0.62767 0.0193,1.2426 0.009,1.22984 0.0105,3.3743 0.0105,7.1248 v 8.29213 h -4.35609 -4.35607 v -8.29213 c 0,-3.7505 8.9e-4,-5.89496 0.0105,-7.1248 0.004,-0.61493 0.0106,-1.00223 0.0193,-1.2426 0.009,-0.24038 0.0284,-0.34578 0.0245,-0.33253 0.0563,-0.18938 0.32529,-0.49765 0.54079,-0.59504 z m 15.32476,4.30183 c 0,0 -3.06875,-0.0162 -3.61228,0.028 -0.27177,0.0221 -0.4477,0.0565 -0.59504,0.13476 -0.14734,0.0783 -0.22715,0.17814 -0.31502,0.26601 -0.0797,0.0798 -0.19558,0.14808 -0.28003,0.32203 -0.0844,0.17395 -0.11294,0.3834 -0.13475,0.78406 -0.0436,0.80131 -0.035,2.40245 -0.035,5.91371 v 6.17797 c -4.7e-4,0.14519 0.11734,0.26299 0.26252,0.26253 h 4.59586 4.5976 c 0.14449,-5.1e-4 0.26123,-0.11803 0.26077,-0.26253 v -6.21822 -6.21998 c -3e-5,-0.0381 -0.008,-0.0757 -0.0245,-0.11027 l -0.10326,-0.21876 c -0.14281,-0.30535 -0.38495,-0.56103 -0.6843,-0.72281 -0.0438,-0.0237 -0.13307,-0.0647 -0.23977,-0.0823 -0.10669,-0.0176 -0.24245,-0.0247 -0.48478,-0.0315 -0.48467,-0.0135 -3.208,-0.0228 -3.208,-0.0228 z m -0.002,0.52329 c 0,0 2.72565,0.008 3.19399,0.021 0.23417,0.006 0.35841,0.0169 0.41478,0.0263 0.0564,0.009 0.0338,0.003 0.077,0.0263 0.19861,0.10734 0.36787,0.28721 0.46028,0.48479 l 0.077,0.16451 v 6.16223 5.95745 h -4.33508 -4.33509 v -5.9172 c 0,-3.51206 -0.006,-5.12699 0.035,-5.88571 0.0207,-0.37936 0.059,-0.53481 0.0823,-0.58279 0.0233,-0.048 0.0559,-0.0577 0.17851,-0.18026 0.10454,-0.10454 0.14172,-0.14721 0.19077,-0.17327 0.049,-0.0261 0.14997,-0.0573 0.39203,-0.077 0.48411,-0.0393 3.56852,-0.0263 3.56852,-0.0263 z m -26.9091,2.49394 c -0.0369,5.3e-4 -0.0733,0.009 -0.10676,0.0245 l -0.22926,0.10325 c -0.32824,0.14839 -0.60344,0.42908 -0.75431,0.76131 -0.0272,0.06 -0.0553,0.15383 -0.0683,0.28353 -0.013,0.12969 -0.0208,0.31571 -0.0263,0.63705 -0.0109,0.64266 -0.0119,1.82267 -0.0123,4.08306 v 4.71661 c -4.6e-4,0.1445 0.11628,0.26202 0.26077,0.26253 h 4.5976 4.59761 c 0.1445,-5.1e-4 0.26124,-0.11803 0.26077,-0.26253 l -0.0105,-4.73761 -0.0123,-4.73936 c -2.8e-4,-0.0442 -0.0117,-0.0875 -0.0332,-0.12602 l -0.12776,-0.23101 c -0.16515,-0.29812 -0.42359,-0.53231 -0.74031,-0.67556 h -0.002 c -0.26137,-0.11734 -0.55132,-0.0998 -3.93255,-0.0998 z m 0.0578,0.52329 h 3.60352 c 3.38059,0 3.67145,0.0311 3.71904,0.0525 0.22115,0.10002 0.38671,0.25413 0.49704,0.45329 l 0.0962,0.17326 0.0123,4.66936 0.0105,4.47684 h -4.33508 -4.33508 v -4.45409 c 3.7e-4,-2.26024 0.002,-3.44374 0.0123,-4.07606 0.005,-0.31616 0.013,-0.49502 0.0228,-0.5933 0.01,-0.0983 0.0126,-0.0944 0.0245,-0.12075 0.0913,-0.20116 0.30557,-0.41557 0.49353,-0.50055 z"
       id="path163"
       sodipodi:nodetypes="ccccscccsssccccscscccccccscccssscscccccscscsccsscccccscccccccsccccccsssccccccccccccccccccccccssccccsccccccsscsccsccsccccscsccsccccccssccssccsccscssccsccscscsssccccccsscscccccscscccccccccccccscccscccccccsscssccccccccccscccccscccccccscccccccccccsscccccccccccccccscccccccccsccc" /><path
       style="fill:#000000;fill-opacity:0;stroke-width:0.460514"
       d="m 245.24975,135.04526 c -0.42784,-0.67015 -0.82166,-1.21845 -0.87513,-1.21845 -0.0535,0 -0.31624,0.11173 -0.58391,0.24829 -0.26767,0.13655 -0.60818,0.2945 -0.75667,0.351 l -0.27001,0.10273 0.0337,-4.12817 c 0.0184,-2.2705 0.0639,-4.12817 0.10085,-4.12817 0.0371,0 0.74703,0.36772 1.5778,0.81715 l 1.51049,0.81717 0.0334,4.1785 c 0.0184,2.29818 0.0276,4.17849 0.0204,4.17847 -0.007,-4e-5 -0.36314,-0.54836 -0.79098,-1.2185 z"
       id="use179"
       sodipodi:nodetypes="sssscssscssss" /></g></svg>
