<?xml version="1.0" encoding="UTF-8" standalone="no"?>
<!-- Created with Inkscape (http://www.inkscape.org/) -->

<svg
   width="46.476051mm"
   height="41.847019mm"
   viewBox="0 0 46.476051 41.847019"
   version="1.1"
   id="svg1"
   xml:space="preserve"
   inkscape:export-filename="Documents\GitHub\FrontEnd-Angular\src\assets\calificar.svg"
   inkscape:export-xdpi="96"
   inkscape:export-ydpi="96"
   inkscape:version="1.3.2 (091e20e, 2023-11-25, custom)"
   sodipodi:docname="dibujo.svg"
   xmlns:inkscape="http://www.inkscape.org/namespaces/inkscape"
   xmlns:sodipodi="http://sodipodi.sourceforge.net/DTD/sodipodi-0.dtd"
   xmlns="http://www.w3.org/2000/svg"
   xmlns:svg="http://www.w3.org/2000/svg"><sodipodi:namedview
     id="namedview1"
     pagecolor="#ffffff"
     bordercolor="#000000"
     borderopacity="0.25"
     inkscape:showpageshadow="2"
     inkscape:pageopacity="0.0"
     inkscape:pagecheckerboard="0"
     inkscape:deskcolor="#d1d1d1"
     inkscape:document-units="mm"
     inkscape:zoom="1.4142136"
     inkscape:cx="194.45436"
     inkscape:cy="92.277435"
     inkscape:window-width="1920"
     inkscape:window-height="974"
     inkscape:window-x="-11"
     inkscape:window-y="-11"
     inkscape:window-maximized="1"
     inkscape:current-layer="layer1" /><defs
     id="defs1" /><g
     inkscape:label="Capa 1"
     inkscape:groupmode="layer"
     id="layer1"
     transform="translate(-233.74898,-105.41027)"><path
       style="fill:#6e1ef0;fill-opacity:1;stroke-width:0.28046"
       d="m 273.11612,145.68281 c -1.3065,-0.12198 -2.57551,-0.74675 -3.498,-1.72214 -1.45792,-1.54155 -1.94797,-3.71067 -1.28555,-5.69047 0.52022,-1.55485 1.51906,-2.68275 2.99163,-3.3782 0.85613,-0.40431 1.37423,-0.51284 2.42977,-0.50893 0.83137,0.002 0.99898,0.0271 1.6162,0.23144 1.87971,0.6224 3.22538,1.99112 3.81299,3.8783 0.25103,0.80626 0.25075,2.31207 -5.7e-4,3.11661 -0.28118,0.90007 -0.71546,1.65374 -1.32822,2.30511 -1.24929,1.32801 -2.89115,1.94074 -4.73825,1.76828 z m 0.87902,-0.82305 c 0.0945,-0.1092 0.12986,-0.27944 0.12986,-0.6243 0,-0.37652 0.0234,-0.47411 0.11379,-0.47411 0.20948,0 0.81092,-0.35524 1.08843,-0.64288 0.36562,-0.37897 0.50484,-0.73962 0.50287,-1.3026 -0.004,-1.04809 -0.64411,-1.74511 -2.22823,-2.42496 -0.88517,-0.3799 -1.06438,-0.56776 -1.01654,-1.06563 0.0791,-0.82293 0.9209,-1.32412 1.64606,-0.98002 0.35822,0.17 0.50111,0.39865 0.57101,0.91375 0.0399,0.29339 0.10497,0.45803 0.21741,0.54904 0.22867,0.18519 0.53212,0.16332 0.73532,-0.0529 0.15126,-0.161 0.16716,-0.23502 0.13254,-0.61683 -0.0723,-0.79752 -0.56701,-1.48947 -1.29509,-1.81155 l -0.31915,-0.14117 v -0.44175 c 0,-0.52197 -0.15607,-0.73859 -0.53213,-0.73859 -0.38289,0 -0.50673,0.17377 -0.50673,0.71101 v 0.4654 l -0.39599,0.18129 c -0.83671,0.38305 -1.34783,1.17874 -1.34783,2.09825 0,0.44902 0.0297,0.56964 0.20517,0.83489 0.28327,0.42803 0.77734,0.76946 1.64888,1.13944 1.20505,0.51156 1.67295,1.13048 1.32929,1.75835 -0.19935,0.36422 -0.62412,0.56578 -1.19238,0.56578 -0.38246,0 -0.48934,-0.0297 -0.64941,-0.18001 -0.20531,-0.19288 -0.3387,-0.56479 -0.33937,-0.94623 -2.8e-4,-0.16603 -0.0582,-0.28129 -0.19594,-0.38957 -0.2487,-0.19565 -0.4012,-0.194 -0.65677,0.007 -0.19597,0.15413 -0.20306,0.18275 -0.17016,0.68639 0.0565,0.86412 0.51867,1.53303 1.23812,1.79174 l 0.35231,0.12669 0.009,0.44162 c 0.009,0.45718 0.0895,0.62492 0.34792,0.72847 0.20081,0.0805 0.4187,0.0179 0.57768,-0.16597 z m -38.13336,-2.88543 c -0.52155,-0.20057 -1.01438,-0.65447 -1.26521,-1.16526 l -0.20823,-0.42403 -0.0194,-11.22347 -0.0194,-11.22348 h 22.63229 22.63229 l 0.002,9.42401 c 8.5e-4,5.1832 -0.0118,9.42401 -0.0273,9.42401 -0.0159,0 -0.17478,-0.22504 -0.35301,-0.50009 -1.19438,-1.84302 -3.38725,-3.01291 -5.62973,-3.00346 -2.89554,0.0122 -5.49373,1.91823 -6.39181,4.68896 -0.19494,0.60141 -0.23487,0.85667 -0.2677,1.7118 -0.0359,0.93431 0.0615,1.84033 0.25092,2.33383 0.0381,0.0992 -1.68468,0.11132 -15.45534,0.10779 -15.2579,-0.004 -15.5041,-0.007 -15.87986,-0.15064 z m 9.40789,-2.21335 c 0.16066,-0.12997 0.17727,-0.20685 0.20049,-0.92756 l 0.0253,-0.78584 h 1.29182 1.29183 v 0.75582 c 0,0.67389 0.0175,0.77444 0.16134,0.92756 l 0.16135,0.17175 h 3.47469 c 3.34252,0 3.48018,-0.006 3.61896,-0.14428 0.18502,-0.18501 0.24594,-0.52047 0.21466,-1.18202 l -0.0251,-0.52916 h 1.2986 1.29857 l -0.0251,0.52916 c -0.032,0.6769 0.0292,0.99298 0.22793,1.17818 0.15412,0.14358 0.26382,0.14812 3.58551,0.14812 3.35416,0 3.43065,-0.004 3.62204,-0.1538 l 0.19552,-0.15379 v -2.06413 c 0,-1.92177 -0.009,-2.07621 -0.14186,-2.23931 l -0.14184,-0.17518 h -3.49213 -3.49212 l -0.16715,0.16715 c -0.14703,0.14704 -0.17055,0.2587 -0.19521,0.92756 l -0.0281,0.7604 -1.24535,-0.0219 -1.24536,-0.0219 -0.0297,-0.73932 c -0.0259,-0.64445 -0.0511,-0.76067 -0.19606,-0.90569 l -0.16639,-0.16639 h -3.49211 -3.49212 l -0.14185,0.17519 c -0.1182,0.14597 -0.14185,0.297 -0.14185,0.9057 v 0.73052 l -1.29868,0.0219 -1.29868,0.0219 1e-4,-0.71348 c 8e-5,-0.60955 -0.0224,-0.74197 -0.15371,-0.90901 l -0.1538,-0.19553 h -3.51644 -3.51646 l -0.15129,0.1624 c -0.14466,0.15529 -0.1513,0.25199 -0.1513,2.20282 0,1.99281 0.004,2.04441 0.16133,2.21214 l 0.16136,0.17175 h 3.46647 c 3.30133,0 3.47481,-0.007 3.64165,-0.14172 z m -6.35484,-2.26993 v -1.29858 h 2.72703 2.72702 v 1.29858 1.29859 h -2.72702 -2.72703 z m 10.20316,0 v -1.29858 h 2.74557 2.74558 v 1.29858 1.29859 h -2.74558 -2.74557 z m 10.24026,0 v -1.29858 h 2.74557 2.74559 v 1.29858 1.29859 h -2.74559 -2.74557 z m 3.24168,0.3848 c 0.45367,-0.45367 0.61696,-0.66752 0.61696,-0.80803 0,-0.24397 -0.20318,-0.48463 -0.46057,-0.5455 -0.17033,-0.0404 -0.2616,0.009 -0.6008,0.33075 -0.32845,0.31063 -0.44766,0.37826 -0.66685,0.37826 -0.54047,0 -0.67697,0.59276 -0.23292,1.01155 0.43596,0.41117 0.61485,0.36232 1.34418,-0.36703 z m -17.33026,-5.60955 c 0.16066,-0.12998 0.17727,-0.20685 0.20049,-0.92756 l 0.0253,-0.78584 h 1.29182 1.29183 v 0.77915 c 0,1.18619 -0.38769,1.07597 3.78444,1.07597 3.35534,0 3.49311,-0.006 3.6319,-0.14427 0.18502,-0.18502 0.24594,-0.52048 0.21466,-1.18202 l -0.0251,-0.52917 1.28004,1.7e-4 1.28003,1.7e-4 v 0.61968 c 0,0.68631 0.0945,1.05296 0.29974,1.1628 0.083,0.0444 1.47425,0.0727 3.57714,0.0727 4.13747,0 3.76621,0.10638 3.76621,-1.07886 v -0.77625 h 1.29183 1.29183 l 0.0253,0.78584 c 0.0378,1.17338 -0.33523,1.06927 3.83174,1.06927 3.4463,0 3.45656,-5.5e-4 3.62782,-0.16134 0.17144,-0.16106 0.17174,-0.16483 0.17174,-2.20281 0,-1.99389 -0.004,-2.04547 -0.16135,-2.21321 l -0.16134,-0.17174 h -3.5064 -3.50641 l -0.15379,0.19552 c -0.13199,0.16779 -0.15379,0.29933 -0.15379,0.92756 v 0.73204 h -1.2986 -1.29858 v -0.77921 c 0,-1.18606 0.38642,-1.07595 -3.77623,-1.07595 -3.20553,0 -3.49153,0.0106 -3.63351,0.12985 -0.17828,0.15019 -0.21882,0.35539 -0.22726,1.15018 l -0.007,0.57508 h -1.26148 -1.26148 v -0.61967 c 0,-0.68633 -0.0945,-1.05298 -0.29974,-1.16281 -0.083,-0.0444 -1.47911,-0.0727 -3.59113,-0.0727 -4.13495,0 -3.75222,-0.10979 -3.75222,1.07596 v 0.77916 h -1.29857 -1.29859 v -0.73204 c 0,-0.62823 -0.0218,-0.75977 -0.1538,-0.92756 l -0.1538,-0.19552 h -3.496 c -3.48731,0 -3.49644,2.7e-4 -3.66775,0.16133 -0.17144,0.16108 -0.17175,0.16485 -0.17175,2.20281 0,1.9939 0.004,2.04548 0.16134,2.21322 l 0.16135,0.17174 h 3.46646 c 3.30135,0 3.47483,-0.007 3.64167,-0.14172 z m -6.31774,-2.23284 v -1.33568 h 2.70847 2.70848 v 1.33568 1.33569 h -2.70848 -2.70847 z m 10.16606,0 v -1.33568 h 2.74557 2.74558 v 1.33568 1.33569 h -2.74558 -2.74557 z m 10.24026,0 v -1.33568 h 2.74557 2.74559 v 1.33568 1.33569 h -2.74559 -2.74557 z m 10.24026,0 v -1.33568 h 2.70846 2.7085 v 1.33568 1.33569 h -2.7085 -2.70846 z m -24.27035,-5.31565 c 0.13199,-0.16779 0.15379,-0.29933 0.15379,-0.92756 v -0.73204 h 1.29859 1.29858 v 0.77915 c 0,1.18658 -0.39164,1.07597 3.81004,1.07597 4.1815,0 3.782,0.11332 3.82126,-1.08355 l 0.0253,-0.77157 h 1.24796 1.24798 l 0.0253,0.77157 c 0.0392,1.19685 -0.36025,1.08355 3.82124,1.08355 4.20169,0 3.81005,0.11061 3.81005,-1.07597 v -0.77915 h 1.29858 1.29858 v 0.73204 c 0,0.62823 0.0218,0.75977 0.1538,0.92756 l 0.15379,0.19552 h 3.51935 c 3.4204,0 3.52351,-0.004 3.66775,-0.1484 0.14118,-0.14118 0.14841,-0.24735 0.14841,-2.17903 0,-1.94197 -0.007,-2.03917 -0.15379,-2.22615 l -0.15381,-0.19552 h -3.47402 c -4.18765,0 -3.81188,-0.10437 -3.84967,1.06928 l -0.0253,0.78585 h -1.29184 -1.29181 v -0.75582 c 0,-0.67389 -0.0175,-0.77444 -0.16135,-0.92756 l -0.16135,-0.17175 h -3.4747 c -3.33244,0 -3.48053,0.006 -3.61773,0.14306 -0.1712,0.17118 -0.25142,0.63738 -0.21648,1.25782 l 0.0255,0.45451 -1.30253,-1.3e-4 -1.30253,-1.3e-4 0.0304,-0.44847 c 0.0412,-0.60645 -0.0406,-1.09084 -0.2134,-1.2636 -0.13719,-0.13719 -0.28517,-0.14306 -3.60736,-0.14306 -4.17313,0 -3.80777,-0.10449 -3.80777,1.0889 v 0.76623 h -1.29183 -1.29183 l -0.0253,-0.78585 c -0.0378,-1.17337 0.33525,-1.06928 -3.83173,-1.06928 -3.4463,0 -3.45655,5.6e-4 -3.62781,0.16135 -0.17155,0.16115 -0.17174,0.16378 -0.17174,2.22614 0,1.96586 0.007,2.07192 0.1484,2.21321 0.14424,0.14423 0.24736,0.1484 3.66775,0.1484 h 3.51934 z m -6.39836,-2.16047 0.0149,-1.31714 2.71205,-0.0194 2.71206,-0.0194 v 1.3366 1.3366 l -2.72703,1e-5 h -2.72703 z m 10.18819,-0.0202 v -1.33732 l 2.74557,0.005 2.74558,0.005 v 1.33227 1.33226 h -2.74558 -2.74557 z m 10.24026,0.002 v -1.33569 h 2.74557 2.74559 v 1.33569 1.33569 h -2.74559 -2.74557 z m 10.24026,0.002 v -1.33386 l 2.70846,1.4e-4 2.7085,1.3e-4 v 1.33372 1.33371 h -2.7085 -2.70846 z m -35.24727,-7.66847 c 0,-2.20886 0.0392,-2.4482 0.49971,-3.05002 0.18373,-0.2401 0.44464,-0.45613 0.76177,-0.63073 l 0.48232,-0.26557 1.50265,-0.0251 1.50264,-0.0251 v 1.30756 c 0,1.45111 0.0486,1.66991 0.46755,2.107 0.48626,0.5073 0.67871,0.55893 2.20383,0.59135 0.7965,0.017 1.55279,-0.005 1.80155,-0.0504 0.58736,-0.10885 1.0274,-0.42513 1.27056,-0.91305 0.18602,-0.37331 0.1929,-0.43428 0.1929,-1.70824 v -1.32112 h 2.00353 2.00353 v 1.33865 c 0,1.53252 0.0381,1.66902 0.61498,2.20073 0.46196,0.42581 0.8326,0.49035 2.60594,0.45379 1.57419,-0.0325 1.7582,-0.081 2.24794,-0.5918 0.41861,-0.43671 0.46753,-0.65647 0.46753,-2.1004 v -1.30097 h 1.95921 1.95922 l 0.0258,1.31713 c 0.0235,1.20163 0.041,1.34807 0.19938,1.66971 0.21689,0.44041 0.60783,0.76935 1.08278,0.91105 0.49753,0.14842 2.98712,0.15373 3.47336,0.007 0.47804,-0.14388 0.83506,-0.44296 1.05459,-0.8835 0.18142,-0.36406 0.18913,-0.43347 0.18913,-1.70068 v -1.32111 h 1.95922 1.95922 l 0.0299,1.31714 c 0.0345,1.51746 0.10814,1.78808 0.60219,2.21096 0.47386,0.4056 0.84224,0.47897 2.40532,0.47897 0.79362,0 1.50739,-0.0362 1.70767,-0.0867 0.45194,-0.11379 1.08211,-0.71218 1.19815,-1.13772 0.0445,-0.16325 0.0811,-0.85917 0.0813,-1.54646 l 2.9e-4,-1.24964 1.46554,0.0253 c 1.40324,0.0244 1.48336,0.0337 1.88465,0.22175 0.51058,0.23931 0.94197,0.65713 1.18202,1.14486 0.17543,0.35644 0.18034,0.41614 0.20257,2.46159 l 0.0228,2.09627 H 256.9879 234.35119 Z m 6.03328,-1.26852 -0.20821,-0.17909 v -3.04285 -3.04284 l 0.17989,-0.19148 0.17989,-0.19149 h 1.50221 c 0.82619,0 1.55624,0.0207 1.62231,0.0461 0.31752,0.12184 0.33724,0.31881 0.33724,3.3685 0,2.96581 -0.012,3.10341 -0.29038,3.31712 -0.0833,0.064 -0.55543,0.0911 -1.61625,0.0927 -1.4787,0.002 -1.50126,-1e-5 -1.7067,-0.17673 z m 9.94343,6e-5 -0.2082,-0.17903 -0.0209,-3.00324 -0.0209,-3.00324 0.1945,-0.23115 0.19451,-0.23115 h 1.5451 1.54511 l 0.19451,0.23115 0.1945,0.23115 -0.0209,3.00324 -0.0209,3.00324 -0.2082,0.17903 c -0.20497,0.17625 -0.23107,0.17903 -1.68403,0.17903 -1.45295,0 -1.47904,-0.002 -1.68402,-0.17903 z m 9.91263,-0.0404 -0.21933,-0.21934 0.021,-3.00266 0.0209,-3.00268 0.17989,-0.19142 0.17989,-0.19142 1.52682,0.002 c 1.08308,0.002 1.56103,0.0286 1.64456,0.0927 0.27835,0.21371 0.29038,0.35126 0.29038,3.31829 0,2.96705 -0.012,3.1046 -0.29038,3.3183 -0.0834,0.064 -0.55752,0.0911 -1.6261,0.0927 l -1.50835,0.002 z m 9.96646,0.0688 c -0.0888,-0.0827 -0.17994,-0.22467 -0.20246,-0.31536 -0.0225,-0.0906 -0.0312,-1.47291 -0.0194,-3.07155 l 0.0215,-2.90663 0.1799,-0.19141 0.1799,-0.19142 1.52681,0.002 c 1.08308,0.002 1.56103,0.0286 1.64455,0.0927 0.27862,0.21392 0.29039,0.34993 0.29039,3.35624 v 2.94166 l -0.2169,0.21691 -0.21691,0.21691 h -1.51292 c -1.41723,0 -1.52313,-0.009 -1.67442,-0.15046 z"
       id="path164" /><path
       style="fill:#000000;fill-opacity:0;stroke-width:0.460514"
       d="m 245.24975,135.04526 c -0.42784,-0.67015 -0.82166,-1.21845 -0.87513,-1.21845 -0.0535,0 -0.31624,0.11173 -0.58391,0.24829 -0.26767,0.13655 -0.60818,0.2945 -0.75667,0.351 l -0.27001,0.10273 0.0337,-4.12817 c 0.0184,-2.2705 0.0639,-4.12817 0.10085,-4.12817 0.0371,0 0.74703,0.36772 1.5778,0.81715 l 1.51049,0.81717 0.0334,4.1785 c 0.0184,2.29818 0.0276,4.17849 0.0204,4.17847 -0.007,-4e-5 -0.36314,-0.54836 -0.79098,-1.2185 z"
       id="use179"
       sodipodi:nodetypes="sssscssscssss" /></g></svg>
