<?xml version="1.0" encoding="UTF-8" standalone="no"?>
<!-- Created with Inkscape (http://www.inkscape.org/) -->

<svg
   width="46.476051mm"
   height="41.847019mm"
   viewBox="0 0 46.476051 41.847019"
   version="1.1"
   id="svg1"
   xml:space="preserve"
   inkscape:export-filename="Documents\GitHub\FrontEnd-Angular\src\assets\percal.svg"
   inkscape:export-xdpi="96"
   inkscape:export-ydpi="96"
   inkscape:version="1.3.2 (091e20e, 2023-11-25, custom)"
   sodipodi:docname="dibujo.svg"
   xmlns:inkscape="http://www.inkscape.org/namespaces/inkscape"
   xmlns:sodipodi="http://sodipodi.sourceforge.net/DTD/sodipodi-0.dtd"
   xmlns="http://www.w3.org/2000/svg"
   xmlns:svg="http://www.w3.org/2000/svg"><sodipodi:namedview
     id="namedview1"
     pagecolor="#ffffff"
     bordercolor="#000000"
     borderopacity="0.25"
     inkscape:showpageshadow="2"
     inkscape:pageopacity="0.0"
     inkscape:pagecheckerboard="0"
     inkscape:deskcolor="#d1d1d1"
     inkscape:document-units="mm"
     inkscape:zoom="1.4142136"
     inkscape:cx="194.45436"
     inkscape:cy="92.277435"
     inkscape:window-width="1920"
     inkscape:window-height="974"
     inkscape:window-x="-11"
     inkscape:window-y="-11"
     inkscape:window-maximized="1"
     inkscape:current-layer="layer1" /><defs
     id="defs1" /><g
     inkscape:label="Capa 1"
     inkscape:groupmode="layer"
     id="layer1"
     transform="translate(-233.74898,-105.41027)"><path
       style="fill:#6e1ef0;fill-opacity:1;stroke-width:0.22826"
       d="m 265.46615,147.2361 c -1.71413,-0.12672 -3.23026,-0.82936 -4.47051,-2.07181 -0.64244,-0.64359 -0.99721,-1.12907 -1.37205,-1.87758 -0.55483,-1.10791 -0.80262,-2.27021 -0.74678,-3.50283 0.0856,-1.88959 0.76554,-3.43479 2.10826,-4.79114 2.69084,-2.71813 7.05971,-2.81575 9.93726,-0.22204 0.59679,0.53794 1.18409,1.33517 1.60536,2.17923 1.14845,2.30107 0.87781,5.27837 -0.66953,7.36526 -1.51758,2.04676 -3.84292,3.10935 -6.39201,2.92091 z m -0.0101,-4.72814 c 0.10809,-0.0469 1.09893,-0.99257 2.23263,-2.13094 1.85041,-1.85806 2.03829,-2.06505 2.03829,-2.24558 0,-0.13928 -0.0529,-0.25177 -0.17654,-0.37541 -0.34813,-0.34813 -0.32558,-0.36417 -2.39892,1.70534 l -1.88536,1.88187 -0.97409,-0.90047 c -1.06364,-0.98325 -1.22916,-1.11106 -1.43953,-1.11153 -0.17703,-4.6e-4 -0.49361,0.30999 -0.49361,0.48397 0,0.23793 0.18378,0.44036 1.42231,1.56672 1.03401,0.94036 1.30998,1.16778 1.46344,1.20601 0.009,0.002 0.10448,-0.0336 0.21138,-0.08 z m -24.17335,-3.07135 c -0.14627,-0.0747 -0.32189,-0.21262 -0.39026,-0.30639 l -0.12432,-0.17052 -0.0143,-14.17302 -0.0143,-14.17302 0.13511,-0.23623 c 0.0797,-0.13937 0.23416,-0.28795 0.37668,-0.36236 0.23213,-0.1212 0.33877,-0.12669 2.72647,-0.14054 l 2.48491,-0.0144 0.0239,0.70894 c 0.0266,0.78958 0.10978,1.02874 0.48176,1.38531 0.41872,0.40137 0.082,0.38065 6.16352,0.37919 6.18805,-0.002 5.74434,0.0306 6.21909,-0.45033 0.3111,-0.31517 0.41106,-0.65294 0.41106,-1.3889 v -0.61116 l 2.5257,0.003 2.52569,0.003 0.25074,0.16583 c 0.13791,0.0912 0.29906,0.25426 0.35811,0.36236 0.10159,0.18595 0.10816,0.7683 0.12195,10.81075 0.008,5.83781 -0.006,10.61437 -0.0302,10.61457 -0.0246,1.9e-4 -0.31654,0.0411 -0.6487,0.091 -2.71046,0.40685 -5.03478,2.12174 -6.22005,4.58915 -0.45343,0.94391 -0.66455,1.67151 -0.78422,2.70263 l -0.0403,0.34726 h -8.13602 -8.13602 z m 5.39581,-8.88567 c 0.29859,-0.12476 0.46115,-0.36653 0.46115,-0.68584 0,-0.22615 -0.0331,-0.3028 -0.20534,-0.475 -0.1787,-0.1787 -0.24447,-0.20534 -0.50696,-0.20534 -0.24771,0 -0.33431,0.0305 -0.48451,0.17085 -0.37554,0.3508 -0.28961,0.94316 0.17012,1.17282 0.25506,0.12741 0.30929,0.12957 0.56554,0.0225 z m 14.08866,-0.30146 c 0.23321,-0.20061 0.23321,-0.53978 0,-0.74038 l -0.16644,-0.14316 h -5.67639 -5.67639 l -0.14825,0.14824 c -0.22432,0.22433 -0.22036,0.53582 0.009,0.74257 l 0.15103,0.13588 h 5.67028 5.67029 z m -13.98791,-4.90075 c 0.21887,-0.11318 0.36039,-0.37527 0.36039,-0.66742 0,-0.30723 -0.37402,-0.69083 -0.67232,-0.68953 -0.27585,10e-4 -0.47495,0.11211 -0.63943,0.35619 -0.21349,0.31678 -0.18413,0.577 0.0968,0.8579 0.26352,0.26352 0.53387,0.30871 0.85459,0.14286 z m 13.8548,-0.14859 c 0.22648,-0.0861 0.37473,-0.42585 0.28273,-0.64795 -0.0392,-0.0946 -0.12443,-0.20528 -0.18939,-0.24585 -0.0908,-0.0567 -1.43401,-0.0742 -5.8055,-0.0755 l -5.68739,-0.002 -0.13831,0.12993 c -0.16223,0.15242 -0.20066,0.3219 -0.12563,0.5542 0.11462,0.35489 -0.12948,0.34078 5.94085,0.34342 3.48531,0.001 5.62545,-0.0197 5.72264,-0.0566 z M 246.6785,120.2236 c 0.10961,-0.0458 0.26089,-0.16131 0.33616,-0.25668 0.20393,-0.25835 0.1516,-0.70629 -0.10978,-0.93983 -0.21814,-0.19491 -0.56382,-0.22827 -0.84717,-0.0817 -0.18398,0.0951 -0.36765,0.41814 -0.36728,0.64592 4.6e-4,0.21652 0.22104,0.53139 0.43882,0.62606 0.24739,0.10755 0.30527,0.10821 0.54925,0.006 z m 14.1117,-0.31094 c 0.20587,-0.21914 0.19567,-0.54278 -0.023,-0.7309 l -0.16643,-0.14316 h -5.60932 c -3.5647,0 -5.66679,0.0219 -5.76697,0.0599 -0.18136,0.069 -0.32766,0.36546 -0.28653,0.58066 0.0155,0.081 0.0965,0.20099 0.17998,0.26667 0.14881,0.11706 0.26485,0.11943 5.84037,0.11943 h 5.68855 z m -13.13995,-8.75271 c -0.14797,-0.14797 -0.14823,-0.15048 -0.14823,-1.41641 0,-1.34702 0.0289,-1.51454 0.28035,-1.62914 0.10386,-0.0473 1.67847,-0.0624 5.43413,-0.052 l 5.28789,0.0147 0.11543,0.14258 c 0.10591,0.1308 0.11544,0.25329 0.11544,1.48336 0,1.26584 -0.007,1.34817 -0.12314,1.47296 l -0.12314,0.13217 h -5.34524 -5.34524 z m 3.05264,-4.79352 c 0,-0.62472 0.007,-0.66032 0.15583,-0.80022 l 0.15583,-0.14641 1.99598,-0.009 c 1.09779,-0.005 2.08078,0.0155 2.18443,0.0451 0.30029,0.0856 0.33943,0.19065 0.33943,0.9112 v 0.65279 h -2.41575 -2.41575 z"
       id="path134" /></g></svg>
