<?xml version="1.0" encoding="UTF-8" standalone="no"?>
<!-- Created with Inkscape (http://www.inkscape.org/) -->

<svg
   width="46.476051mm"
   height="41.847019mm"
   viewBox="0 0 46.476051 41.847019"
   version="1.1"
   id="svg1"
   xml:space="preserve"
   inkscape:export-filename="Documents\GitHub\FrontEnd-Angular\src\assets\tipoact.svg"
   inkscape:export-xdpi="96"
   inkscape:export-ydpi="96"
   inkscape:version="1.3.2 (091e20e, 2023-11-25, custom)"
   sodipodi:docname="dibujo.svg"
   xmlns:inkscape="http://www.inkscape.org/namespaces/inkscape"
   xmlns:sodipodi="http://sodipodi.sourceforge.net/DTD/sodipodi-0.dtd"
   xmlns="http://www.w3.org/2000/svg"
   xmlns:svg="http://www.w3.org/2000/svg"><sodipodi:namedview
     id="namedview1"
     pagecolor="#ffffff"
     bordercolor="#000000"
     borderopacity="0.25"
     inkscape:showpageshadow="2"
     inkscape:pageopacity="0.0"
     inkscape:pagecheckerboard="0"
     inkscape:deskcolor="#d1d1d1"
     inkscape:document-units="mm"
     inkscape:zoom="1.4142136"
     inkscape:cx="194.45436"
     inkscape:cy="92.277435"
     inkscape:window-width="1920"
     inkscape:window-height="974"
     inkscape:window-x="-11"
     inkscape:window-y="-11"
     inkscape:window-maximized="1"
     inkscape:current-layer="layer1" /><defs
     id="defs1" /><g
     inkscape:label="Capa 1"
     inkscape:groupmode="layer"
     id="layer1"
     transform="translate(-233.74898,-105.41027)"><path
       style="fill:#6e1ef0;fill-opacity:1;stroke-width:0.232695"
       d="m 236.32768,142.73316 c -0.62038,-0.10255 -1.13949,-0.50827 -1.48504,-1.16077 l -0.14672,-0.27707 -0.0162,-10.0172 -0.0162,-10.01721 19.79465,-10e-4 19.79466,-0.001 v 3.5745 3.57452 l -0.16931,-0.0354 c -1.5477,-0.324 -3.28806,-0.11616 -4.77333,0.57004 -1.53999,0.71147 -2.96817,2.09626 -3.72458,3.61142 -0.25447,0.50969 -0.53173,1.31563 -0.66721,1.93937 -0.15919,0.73292 -0.15919,2.34544 0,3.07837 0.34291,1.57872 1.06416,2.89139 2.21787,4.03649 0.27505,0.27299 0.71435,0.64093 0.97623,0.81764 0.26186,0.17671 0.47612,0.33368 0.47612,0.34882 0,0.055 -31.92645,0.015 -32.2611,-0.0403 z m 5.26379,-1.15437 c 0.28885,-0.13372 0.54739,-0.39331 0.65026,-0.65286 0.10629,-0.26802 0.0792,-3.37147 -0.0315,-3.62929 -0.0995,-0.23162 -0.43189,-0.54368 -0.68464,-0.64283 -0.13527,-0.0531 -0.66188,-0.0689 -1.85168,-0.0559 l -1.66266,0.0183 -0.26167,0.17327 c -0.18108,0.11991 -0.30745,0.2716 -0.41032,0.49254 -0.14474,0.3109 -0.14863,0.35962 -0.1479,1.85844 7.9e-4,1.69601 0.033,1.86994 0.41073,2.22478 0.33113,0.31101 0.42543,0.32538 2.14237,0.32652 1.42979,7.9e-4 1.62706,-0.011 1.84702,-0.11297 z m -3.28043,-1.0027 c -0.115,-0.11499 -0.10596,-2.78006 0.009,-2.87609 0.0594,-0.0493 0.50592,-0.0653 1.49302,-0.0537 l 1.40831,0.0166 v 1.47762 1.47763 l -1.41801,0.0165 c -1.05119,0.0123 -1.43743,-0.003 -1.49302,-0.0585 z m 10.81638,0.91538 c 0.18109,-0.11991 0.30745,-0.2716 0.41032,-0.49256 0.14441,-0.31016 0.14866,-0.36244 0.14925,-1.83386 5.1e-4,-0.97022 -0.0246,-1.58984 -0.0695,-1.7239 -0.11141,-0.33276 -0.35665,-0.61451 -0.64645,-0.7427 -0.24713,-0.10932 -0.40025,-0.11718 -1.95584,-0.10044 l -1.68775,0.0182 -0.23247,0.18827 c -0.50826,0.41157 -0.48672,0.3083 -0.48672,2.3348 v 1.80601 l 0.18826,0.23659 c 0.10349,0.13012 0.31134,0.29983 0.46176,0.37714 0.26775,0.13758 0.30849,0.14018 1.94045,0.12313 l 1.66699,-0.0174 z m -3.47561,-0.92089 c -0.0166,-0.0431 -0.0226,-0.71491 -0.0136,-1.49301 l 0.0166,-1.41472 1.40834,-0.0165 c 0.98709,-0.0115 1.43365,0.004 1.493,0.0537 0.11478,0.0952 0.12479,2.76102 0.0108,2.875 -0.10915,0.10914 -2.8733,0.10496 -2.91527,-0.004 z m 10.60924,1.02965 c 0.30423,-0.12712 0.49914,-0.31469 0.6367,-0.61274 0.10129,-0.21938 0.1138,-0.42301 0.11502,-1.86487 0.001,-1.47151 -0.009,-1.63936 -0.11579,-1.84702 -0.13576,-0.26472 -0.3251,-0.4501 -0.60322,-0.59063 -0.16682,-0.0843 -0.44532,-0.0994 -1.81625,-0.0982 -1.80284,0.001 -1.9497,0.0287 -2.28195,0.42363 -0.27635,0.32843 -0.30107,0.52819 -0.28018,2.26344 l 0.0193,1.611 0.18471,0.26208 c 0.1016,0.14413 0.30681,0.32654 0.45605,0.40533 0.26381,0.13928 0.31556,0.14326 1.86439,0.14326 1.2986,0 1.6352,-0.0177 1.82111,-0.0953 z m -3.2365,-1.02524 c -0.11398,-0.11398 -0.10391,-2.77975 0.0107,-2.87499 0.0594,-0.0493 0.50592,-0.0653 1.49302,-0.0537 l 1.40832,0.0166 0.0174,1.35448 c 0.009,0.74497 0.002,1.41683 -0.0166,1.49302 l -0.0339,0.13852 h -1.40256 c -1.0088,0 -1.42331,-0.0207 -1.47645,-0.074 z m 10.60858,1.00572 c 0.28424,-0.12914 0.62269,-0.48798 0.69123,-0.73287 0.0259,-0.0926 0.0471,-0.88852 0.0471,-1.76895 0,-1.5818 -0.001,-1.60383 -0.14939,-1.86156 -0.0822,-0.14344 -0.25988,-0.33738 -0.39493,-0.43097 l -0.24553,-0.17016 h -1.7652 -1.76519 l -0.24554,0.17016 c -0.13505,0.0936 -0.31277,0.28753 -0.39493,0.43097 -0.14761,0.25773 -0.14938,0.27976 -0.14938,1.86156 0,0.88043 0.0212,1.67644 0.0471,1.76895 0.0685,0.24489 0.40698,0.60373 0.69121,0.73287 0.21806,0.0991 0.42961,0.1121 1.81676,0.1121 1.38715,0 1.59871,-0.0129 1.81677,-0.1121 z m -3.26628,-1.00899 c -0.0168,-0.0437 -0.023,-0.71605 -0.0139,-1.49415 l 0.0166,-1.41472 h 1.44684 1.44683 v 1.47761 1.47764 l -1.43293,0.0165 c -1.12535,0.013 -1.43948,-5.1e-4 -1.46343,-0.0628 z m -18.98362,-6.01901 c 0.33534,-0.0932 0.62308,-0.31316 0.77904,-0.59568 0.13545,-0.24535 0.13994,-0.30548 0.1432,-1.9215 0.003,-1.63384 5.2e-4,-1.67357 -0.13982,-1.92759 -0.15907,-0.28814 -0.44503,-0.50806 -0.78242,-0.6018 -0.37053,-0.10286 -2.94463,-0.0794 -3.31385,0.0303 -0.36963,0.10976 -0.71471,0.45361 -0.81397,0.81106 -0.0861,0.30984 -0.0861,3.05431 0,3.36414 0.095,0.34233 0.44628,0.70221 0.78798,0.80743 0.34292,0.10554 2.98511,0.13231 3.33984,0.0338 z m -3.1098,-1.14305 c -0.0561,-0.1461 -0.0432,-2.69183 0.0141,-2.78205 0.0384,-0.0602 0.37915,-0.0744 1.49207,-0.0615 l 1.44248,0.0166 0.0165,1.46224 0.0165,1.46223 h -1.47213 c -1.28561,0 -1.47689,-0.0124 -1.50952,-0.0974 z m 10.71238,1.07022 c 0.27167,-0.1488 0.56107,-0.49938 0.63651,-0.77105 0.0853,-0.30727 0.0847,-3.0537 -7.6e-4,-3.36146 -0.0359,-0.12939 -0.16388,-0.34433 -0.28432,-0.47766 -0.35554,-0.39353 -0.60758,-0.43757 -2.37269,-0.4147 -1.4213,0.0184 -1.50731,0.0263 -1.7592,0.16076 -0.16363,0.0873 -0.3342,0.2508 -0.44637,0.42765 l -0.18152,0.28623 v 1.67137 c 0,1.62303 0.004,1.67908 0.14092,1.93786 0.16033,0.30318 0.34468,0.45912 0.69382,0.58687 0.37782,0.13827 3.30604,0.10066 3.57358,-0.0458 z m -3.33403,-1.05119 c -0.0165,-0.0431 -0.0227,-0.70109 -0.0136,-1.46222 l 0.0166,-1.38387 1.44249,-0.0165 c 1.11293,-0.0127 1.45382,0.001 1.49206,0.0615 0.0573,0.0902 0.0702,2.63595 0.0141,2.78205 -0.0326,0.085 -0.22125,0.0973 -1.47955,0.0973 -1.11062,0 -1.44907,-0.0181 -1.47224,-0.0784 z m 10.73041,1.00639 c 0.14346,-0.0822 0.3374,-0.2598 0.43099,-0.39474 l 0.17016,-0.24539 0.0193,-1.63696 c 0.012,-1.01309 -0.004,-1.71992 -0.0447,-1.85463 -0.0717,-0.24329 -0.36273,-0.56919 -0.6482,-0.72568 -0.16274,-0.0893 -0.40682,-0.10328 -1.78921,-0.10328 -0.88041,0 -1.67643,0.0212 -1.76892,0.0471 -0.24491,0.0685 -0.60374,0.40697 -0.73287,0.6912 -0.0991,0.21806 -0.11212,0.42961 -0.11212,1.81677 0,1.7371 0.0249,1.87181 0.41357,2.23669 0.34506,0.32397 0.51279,0.34899 2.23113,0.33299 1.53615,-0.0143 1.57559,-0.0179 1.83078,-0.16403 z m -3.40345,-1.00527 c -0.0168,-0.0437 -0.023,-0.70221 -0.0139,-1.46334 l 0.0166,-1.38387 h 1.47761 1.47762 v 1.44683 1.44684 l -1.46373,0.0165 c -1.15084,0.0129 -1.47024,-5.1e-4 -1.49421,-0.063 z m 10.48463,1.11357 c 0.38645,-0.0974 0.76964,-0.48052 0.86696,-0.86697 0.044,-0.17482 0.0719,-0.81311 0.0719,-1.64698 0,-1.6108 -0.0397,-1.82833 -0.39858,-2.18726 -0.35956,-0.35956 -0.57521,-0.39858 -2.20335,-0.39858 -1.56712,0 -1.86274,0.0519 -2.18401,0.38335 -0.34605,0.35704 -0.38573,0.57842 -0.38573,2.15219 0,0.87221 0.0274,1.52093 0.0719,1.69728 0.091,0.36116 0.48463,0.77212 0.82612,0.8624 0.3428,0.0907 2.97872,0.0943 3.33484,0.004 z m -3.12461,-2.51395 v -1.47761 h 1.47761 1.47761 v 1.47761 1.47761 h -1.47761 -1.47761 z m -18.8197,-4.61344 c 0.2131,-0.0811 0.58479,-0.42005 0.69576,-0.63461 0.0775,-0.15009 0.0927,-0.46705 0.0877,-1.84336 -0.006,-1.84333 -0.0204,-1.92248 -0.39305,-2.24963 -0.35638,-0.31291 -0.52521,-0.33603 -2.29361,-0.31414 l -1.60619,0.0199 -0.24538,0.17017 c -0.13494,0.0936 -0.31257,0.28753 -0.39475,0.43097 -0.14804,0.25846 -0.14939,0.27586 -0.14939,1.92789 v 1.66706 l 0.18471,0.29831 c 0.12135,0.19597 0.27778,0.34746 0.45605,0.44161 0.26415,0.13951 0.31419,0.14331 1.88919,0.14331 0.88981,0 1.68583,-0.0259 1.76893,-0.0575 z m -3.19445,-1.05689 c -0.0783,-0.12669 -0.10443,-2.68124 -0.0289,-2.82242 0.0674,-0.12596 0.10212,-0.12857 1.49768,-0.11242 l 1.42866,0.0166 v 1.47761 1.47761 l -1.4271,0.0165 c -1.01498,0.0117 -1.4396,-0.004 -1.47034,-0.0534 z m 10.81363,0.89886 c 0.49859,-0.35239 0.51856,-0.44253 0.51856,-2.33957 0,-1.89703 -0.02,-1.98717 -0.51856,-2.33956 l -0.26134,-0.18471 -1.67256,-0.0174 c -1.63776,-0.017 -1.67824,-0.0145 -1.94603,0.12314 -0.15041,0.0773 -0.35821,0.24695 -0.46176,0.377 l -0.18826,0.23648 -0.0188,1.64134 c -0.0106,0.90274 -0.002,1.73198 0.0184,1.84275 0.0454,0.2458 0.3418,0.59492 0.64073,0.75493 0.20553,0.11001 0.3453,0.1176 1.92496,0.10443 l 1.70334,-0.0142 z m -3.48643,-0.90946 c -0.0166,-0.0431 -0.0226,-0.71492 -0.0136,-1.49301 l 0.0166,-1.41471 1.40834,-0.0165 c 0.98709,-0.0116 1.43365,0.004 1.493,0.0537 0.11478,0.0952 0.12479,2.761 0.0108,2.87499 -0.10915,0.10915 -2.8733,0.10496 -2.91527,-0.004 z m 10.64195,1.02538 c 0.27812,-0.1405 0.46746,-0.32591 0.60322,-0.59062 0.1065,-0.20767 0.11702,-0.37551 0.11579,-1.84702 -10e-4,-1.80218 -0.0287,-1.94912 -0.42364,-2.28136 -0.32843,-0.27635 -0.52819,-0.30108 -2.26345,-0.28017 l -1.611,0.0193 -0.26207,0.1847 c -0.14415,0.1016 -0.32654,0.30681 -0.40533,0.45605 -0.13927,0.26381 -0.14325,0.31556 -0.14325,1.86438 0,1.2986 0.0177,1.63521 0.0953,1.82112 0.12711,0.30423 0.31468,0.49913 0.61272,0.63669 0.2194,0.10129 0.42302,0.11381 1.86547,0.11503 1.37093,0.001 1.64943,-0.014 1.81625,-0.0982 z m -3.3053,-1.04337 c -0.0748,-0.19513 -0.0422,-2.76829 0.036,-2.84664 0.0855,-0.0854 2.73513,-0.10618 2.86714,-0.0224 0.0602,0.0383 0.0744,0.37915 0.0615,1.49207 l -0.0166,1.44249 -1.45521,0.0165 c -1.28673,0.0146 -1.45959,0.004 -1.49301,-0.082 z m 10.8388,0.94199 c 0.13495,-0.0936 0.31261,-0.28753 0.39477,-0.43098 0.14762,-0.25771 0.14939,-0.27974 0.14939,-1.86156 0,-0.88042 -0.0212,-1.67644 -0.0471,-1.76894 -0.0685,-0.24488 -0.40699,-0.60373 -0.69123,-0.73285 -0.21805,-0.0991 -0.42961,-0.11212 -1.81676,-0.11212 -1.76627,0 -1.88786,0.0242 -2.26053,0.44858 -0.30521,0.34761 -0.33512,0.56238 -0.31377,2.25285 l 0.0192,1.52329 0.1847,0.29803 c 0.12244,0.19755 0.27788,0.34725 0.46109,0.44401 0.27423,0.14482 0.28979,0.14583 1.97559,0.1279 l 1.69916,-0.0181 z m -3.46041,-0.92286 c -0.0168,-0.0436 -0.023,-0.71606 -0.0139,-1.49415 l 0.0166,-1.41471 h 1.44684 1.44683 v 1.47761 1.47761 l -1.43293,0.0165 c -1.12535,0.0129 -1.43948,-5.2e-4 -1.46343,-0.0628 z m 10.68617,0.98527 c 0.16018,-0.0811 0.3509,-0.24937 0.4594,-0.40555 l 0.18552,-0.26702 v -1.74406 -1.74404 l -0.18469,-0.2622 c -0.1016,-0.1442 -0.30682,-0.32666 -0.45605,-0.40545 -0.26382,-0.13927 -0.31556,-0.14324 -1.86439,-0.14324 -1.29859,0 -1.63521,0.0176 -1.82111,0.0953 -0.29173,0.1219 -0.48791,0.30629 -0.63865,0.60025 -0.11175,0.21792 -0.11864,0.35004 -0.1017,1.94916 l 0.0181,1.7154 0.19056,0.23649 c 0.10475,0.13004 0.29875,0.29834 0.43097,0.37397 0.23206,0.13273 0.29723,0.13755 1.87431,0.13853 1.57323,7.9e-4 1.64404,-0.004 1.90777,-0.13752 z m -3.3467,-0.94916 c -0.0227,-0.0226 -0.0411,-0.68454 -0.0411,-1.47103 0,-1.24717 0.0125,-1.43477 0.0974,-1.46736 0.19434,-0.0746 2.76746,-0.0416 2.84552,0.0365 0.0781,0.0781 0.1111,2.65119 0.0365,2.84553 -0.0327,0.0849 -0.22019,0.0974 -1.46736,0.0974 -0.78649,0 -1.44845,-0.0184 -1.47104,-0.0411 z m 3.46831,16.23582 c -0.52038,-0.1113 -1.33656,-0.39097 -1.4385,-0.4929 -0.0301,-0.0302 -0.009,-0.11527 0.046,-0.1954 0.2523,-0.36022 0.008,-0.85343 -0.42106,-0.85343 -0.22053,0 -0.3485,0.0877 -0.52774,0.36188 l -0.0939,0.14369 -0.31812,-0.25145 c -0.39824,-0.31479 -1.01391,-0.9449 -1.23478,-1.26373 -0.1359,-0.19619 -0.15033,-0.24802 -0.0761,-0.27281 0.0505,-0.0168 0.1682,-0.10708 0.26165,-0.20053 0.46958,-0.46957 -0.16032,-1.12717 -0.72519,-0.75705 -0.15167,0.0994 -0.15222,0.099 -0.29825,-0.23123 -0.17513,-0.396 -0.46898,-1.52998 -0.46898,-1.80982 0,-0.18893 0.0144,-0.20156 0.27535,-0.24067 0.7098,-0.10645 0.6923,-0.96734 -0.0216,-1.06308 l -0.26937,-0.0361 0.0368,-0.34486 c 0.0489,-0.45756 0.25262,-1.21862 0.43935,-1.64088 l 0.15078,-0.34094 0.18384,0.095 c 0.33889,0.17526 0.63686,0.11559 0.77711,-0.15561 0.14464,-0.27968 0.11013,-0.42695 -0.158,-0.67449 l -0.24807,-0.22902 0.23792,-0.30023 c 0.33103,-0.41777 0.72248,-0.81138 1.11707,-1.12322 0.31521,-0.2491 0.34038,-0.25832 0.41541,-0.15207 0.20581,0.29142 0.3453,0.39015 0.55124,0.39015 0.42785,0 0.64044,-0.43899 0.41949,-0.86623 l -0.0946,-0.1829 0.29466,-0.12648 c 0.44305,-0.19015 1.25127,-0.41233 1.67393,-0.46015 l 0.37541,-0.0424 v 0.21872 c 0,0.31197 0.25109,0.59757 0.52537,0.59757 0.31957,0 0.53699,-0.22124 0.53256,-0.54193 -0.003,-0.22816 0.0127,-0.25847 0.13519,-0.25847 0.3831,0 1.44811,0.26559 1.98093,0.49399 l 0.27398,0.11743 -0.12607,0.24188 c -0.15061,0.28894 -0.11521,0.50953 0.11026,0.68687 0.22196,0.1746 0.48329,0.15645 0.68747,-0.0478 0.0934,-0.0934 0.18335,-0.21025 0.19979,-0.25955 0.023,-0.0688 0.10034,-0.0378 0.3333,0.13344 0.33144,0.24372 1.09136,1.01211 1.30742,1.32198 l 0.13583,0.1948 -0.20979,0.12967 c -0.23243,0.14365 -0.28359,0.23466 -0.28359,0.50442 0,0.39674 0.45486,0.60286 0.86377,0.3914 0.18002,-0.0931 0.18065,-0.0928 0.27743,0.13853 0.23025,0.55021 0.52112,1.67544 0.52112,2.01598 0,0.0441 -0.10861,0.092 -0.25232,0.11128 -0.34162,0.0459 -0.54807,0.2479 -0.54807,0.53648 0,0.29018 0.20625,0.49063 0.55264,0.5371 l 0.2569,0.0345 -0.0426,0.3145 c -0.0656,0.48469 -0.2565,1.19778 -0.43405,1.62117 l -0.16068,0.38316 -0.17542,-0.0908 c -0.41894,-0.21665 -0.85875,-0.0192 -0.85875,0.38536 0,0.27882 0.0495,0.36838 0.28359,0.51304 l 0.20979,0.12967 -0.1373,0.19284 c -0.44244,0.62132 -1.58012,1.63471 -1.63854,1.4595 -0.0169,-0.0505 -0.10705,-0.16821 -0.20049,-0.26167 -0.2042,-0.20418 -0.46553,-0.22232 -0.68749,-0.0478 -0.2248,0.17683 -0.26085,0.39798 -0.11154,0.68441 l 0.12479,0.2394 -0.22973,0.0966 c -0.5994,0.25212 -1.63375,0.51975 -2.00871,0.51975 -0.13882,0 -0.15233,-0.0235 -0.14909,-0.25846 0.004,-0.3207 -0.21298,-0.54193 -0.53257,-0.54193 -0.27067,0 -0.52536,0.28586 -0.52536,0.58962 0,0.18992 -0.0167,0.21033 -0.1693,0.20644 -0.0931,-0.002 -0.40482,-0.0546 -0.69264,-0.11627 z m 1.74977,-6.21619 0.15882,-0.14926 v -2.55574 c 0,-2.5393 -7.9e-4,-2.55666 -0.13388,-2.69823 -0.0866,-0.0921 -0.20442,-0.1425 -0.33358,-0.1425 -0.57262,0 -0.5792,0.0286 -0.5792,2.51896 v 2.0941 l -2.19102,0.0177 -2.19104,0.0177 -0.14852,0.17275 c -0.24375,0.28346 -0.15279,0.70721 0.18127,0.84467 0.0726,0.0298 1.24489,0.0487 2.60513,0.0418 l 2.47319,-0.0125 z m -38.25926,-17.94925 c 0,-1.63793 0.008,-1.77564 0.13163,-2.1087 0.18049,-0.48858 0.69087,-0.99866 1.18008,-1.17939 l 0.35739,-0.13204 18.23597,0.0159 18.23595,0.0158 0.31066,0.16397 c 0.3964,0.20923 0.78134,0.59418 0.96301,0.96302 0.13788,0.2799 0.14296,0.348 0.16033,2.15146 l 0.018,1.86242 h -19.79651 -19.79648 z m 6.07978,-4.51156 -1.27751,-0.0184 2.3e-4,-1.39941 c 1.9e-4,-0.76968 0.0281,-1.49964 0.0622,-1.62214 0.089,-0.32045 0.30026,-0.60709 0.60551,-0.82163 0.23701,-0.16658 0.31474,-0.18699 0.71195,-0.18699 0.59438,0 0.96361,0.21273 1.21954,0.70264 l 0.1731,0.33133 -0.0165,1.51392 c -0.0141,1.29596 -0.0297,1.51432 -0.10879,1.51657 -0.0508,0.001 -0.66723,-0.005 -1.36987,-0.0159 z m 6.71086,-0.001 -1.3391,-0.0166 2.4e-4,-1.43025 c 2.1e-4,-0.8555 0.0277,-1.5292 0.0685,-1.67651 0.13879,-0.50132 0.76315,-0.95361 1.3164,-0.95361 0.55026,0 1.17905,0.45971 1.31922,0.9645 0.0741,0.26681 0.092,3.08028 0.0199,3.11002 -0.0254,0.0106 -0.64878,0.0116 -1.38527,0.002 z m 12.57547,-1.41485 c 2e-4,-0.77036 0.0282,-1.50089 0.0622,-1.62338 0.0891,-0.32044 0.30024,-0.60708 0.6055,-0.82165 0.23695,-0.16653 0.31474,-0.18698 0.71165,-0.18698 0.59342,0 0.96412,0.2131 1.2188,0.70061 l 0.17203,0.32933 v 1.50135 1.50137 h -1.38526 -1.38527 z m 6.64895,-0.0789 c 0,-1.63445 0.0228,-1.7601 0.38793,-2.14503 0.53101,-0.5597 1.3535,-0.58584 1.92277,-0.0611 0.42202,0.38902 0.45984,0.57404 0.45984,2.24985 v 1.43586 h -1.38526 -1.38528 z"
       id="path160" /></g></svg>
