<?xml version="1.0" encoding="UTF-8" standalone="no"?>
<!-- Created with Inkscape (http://www.inkscape.org/) -->

<svg
   width="46.476051mm"
   height="41.847019mm"
   viewBox="0 0 46.476051 41.847019"
   version="1.1"
   id="svg1"
   xml:space="preserve"
   inkscape:export-filename="Documents\GitHub\FrontEnd-Angular\src\assets\docente.svg"
   inkscape:export-xdpi="96"
   inkscape:export-ydpi="96"
   inkscape:version="1.3.2 (091e20e, 2023-11-25, custom)"
   sodipodi:docname="dibujo.svg"
   xmlns:inkscape="http://www.inkscape.org/namespaces/inkscape"
   xmlns:sodipodi="http://sodipodi.sourceforge.net/DTD/sodipodi-0.dtd"
   xmlns="http://www.w3.org/2000/svg"
   xmlns:svg="http://www.w3.org/2000/svg"><sodipodi:namedview
     id="namedview1"
     pagecolor="#ffffff"
     bordercolor="#000000"
     borderopacity="0.25"
     inkscape:showpageshadow="2"
     inkscape:pageopacity="0.0"
     inkscape:pagecheckerboard="0"
     inkscape:deskcolor="#d1d1d1"
     inkscape:document-units="mm"
     inkscape:zoom="1.4142136"
     inkscape:cx="194.45436"
     inkscape:cy="92.277435"
     inkscape:window-width="1920"
     inkscape:window-height="974"
     inkscape:window-x="-11"
     inkscape:window-y="-11"
     inkscape:window-maximized="1"
     inkscape:current-layer="layer1" /><defs
     id="defs1" /><g
     inkscape:label="Capa 1"
     inkscape:groupmode="layer"
     id="layer1"
     transform="translate(-233.74898,-105.41027)"><path
       style="fill:#6e1ef0;fill-opacity:1;stroke-width:0.219247"
       d="m 243.42417,147.21553 c -0.61958,-0.12253 -1.24125,-0.65204 -1.44217,-1.22837 -0.1022,-0.29317 -0.1064,-0.93724 -0.1064,-16.31576 0,-15.33471 0.005,-16.02333 0.1056,-16.31337 0.13114,-0.37605 0.54532,-0.84681 0.90565,-1.02941 0.45648,-0.23131 0.82889,-0.26302 3.08905,-0.26302 h 2.13569 v 0.92814 0.92815 h -2.08509 -2.08511 l -0.16275,0.14 -0.16276,0.14 v 15.46317 15.46316 l 0.1467,0.1467 0.14671,0.14671 13.0768,8.7e-4 13.0768,8.7e-4 0.14762,-0.14763 0.14762,-0.14762 v -15.46306 -15.46317 l -0.16276,-0.14 -0.16275,-0.14 h -2.08511 -2.08509 v -0.92541 -0.9254 l 2.08719,-0.004 c 2.23252,-0.004 2.68683,0.0332 3.13141,0.25846 0.36589,0.18542 0.77985,0.65418 0.91178,1.03252 0.10115,0.29004 0.10561,0.97866 0.10561,16.31338 0,15.6128 -0.003,16.01847 -0.11087,16.32959 -0.14187,0.40823 -0.68368,0.96172 -1.10733,1.13118 -0.28691,0.11477 -0.43537,0.11611 -13.74818,0.12438 -7.40198,0.005 -13.57052,-0.0139 -13.70786,-0.041 z m 1.20686,-17.54447 v -14.76301 h 1.74028 1.74028 v 0.34588 c 0,0.67033 0.3202,1.23212 0.87852,1.54137 l 0.31067,0.17208 7.58028,0.0153 c 7.52957,0.0152 7.58241,0.0145 7.89951,-0.1041 0.38085,-0.14249 0.76146,-0.49937 0.92616,-0.8684 0.0666,-0.14915 0.12816,-0.44131 0.14372,-0.68161 l 0.0272,-0.42057 h 1.73265 1.73265 v 14.76342 14.76341 l -12.35597,-4.4e-4 -12.35597,-4.4e-4 z m 6.47603,11.09692 c 0.16392,-0.0865 0.39093,-0.26571 0.50444,-0.39832 0.36073,-0.42143 0.38678,-0.57938 0.38614,-2.34077 -4.3e-4,-1.52377 -0.005,-1.57903 -0.1361,-1.86046 -0.1625,-0.34773 -0.48764,-0.6759 -0.84706,-0.85492 -0.25478,-0.12691 -0.31702,-0.13124 -1.88773,-0.13124 -1.59568,0 -1.62921,0.002 -1.90608,0.13874 -0.36748,0.1809 -0.65529,0.47397 -0.82642,0.84149 -0.13475,0.28938 -0.13778,0.33154 -0.13584,1.89123 0.002,1.71829 0.0209,1.85163 0.31383,2.23576 0.0861,0.11285 0.25759,0.27208 0.38112,0.35383 0.45002,0.29781 0.54521,0.31026 2.26041,0.29555 l 1.59525,-0.0137 z m -3.56878,-0.95255 c -0.26272,-0.18401 -0.29683,-0.38689 -0.29683,-1.76557 0,-1.06805 0.016,-1.31739 0.0948,-1.48365 0.16545,-0.34866 0.26325,-0.36878 1.79313,-0.36878 1.95587,0 1.84897,-0.1014 1.86521,1.76929 0.0124,1.42971 -0.0168,1.63853 -0.25564,1.82638 -0.14008,0.11019 -0.23271,0.11693 -1.60716,0.11693 -1.2545,0 -1.47739,-0.0132 -1.59355,-0.0946 z m 2.21207,-1.40366 c 0.73869,-0.74206 0.79763,-0.81724 0.79763,-1.01736 0,-0.29361 -0.2063,-0.50086 -0.49857,-0.50086 -0.1923,0 -0.27125,0.0564 -0.78537,0.56156 l -0.57158,0.56157 -0.147,-0.1381 c -0.32607,-0.30634 -0.83993,-0.085 -0.83993,0.36178 0,0.18747 0.0453,0.27316 0.27554,0.5206 0.15155,0.16291 0.35386,0.34554 0.44957,0.40584 0.3137,0.19761 0.44776,0.12092 1.31971,-0.75503 z m 17.01797,2.38567 c 0.35422,-0.1895 0.58568,-0.40337 0.763,-0.705 l 0.15839,-0.26943 0.0178,-1.66989 c 0.0177,-1.66256 0.0172,-1.67124 -0.12297,-1.97733 -0.17265,-0.37712 -0.45423,-0.66671 -0.82905,-0.85266 l -0.28396,-0.14086 h -5.48187 c -5.23799,0 -5.49453,0.005 -5.76633,0.10972 -0.34784,0.13417 -0.68529,0.43049 -0.89344,0.78458 l -0.15632,0.26589 -0.0179,1.5765 c -0.0109,0.96246 0.006,1.66323 0.0421,1.79918 0.0901,0.33441 0.37586,0.74716 0.63707,0.92002 0.49292,0.32619 0.22383,0.31316 6.18384,0.29958 l 5.51087,-0.0126 z m -11.4113,-1.06758 -0.1683,-0.18016 v -1.47219 -1.47218 l 0.16926,-0.18945 0.16925,-0.18944 5.34278,-0.0154 c 5.90661,-0.017 5.58161,-0.037 5.76771,0.35516 0.12923,0.27233 0.14047,2.65824 0.0139,2.96104 -0.17142,0.41028 0.24081,0.38278 -5.73867,0.38278 h -5.38768 z m 9.87176,-1.32361 c 0.21256,-0.21256 0.22318,-0.45774 0.0296,-0.68284 l -0.13998,-0.16276 -4.07986,-0.0157 c -2.99653,-0.0115 -4.12304,0.002 -4.24245,0.0517 -0.17465,0.0724 -0.33114,0.31651 -0.33114,0.51666 0,0.0678 0.0763,0.19967 0.16956,0.29293 l 0.16956,0.16956 h 4.12759 4.12757 z m -14.32083,-4.90939 c 0.33645,-0.11465 0.69834,-0.42366 0.90214,-0.77034 l 0.15911,-0.27068 0.0179,-1.65053 c 0.0157,-1.45136 0.006,-1.68215 -0.0822,-1.91267 -0.13565,-0.35519 -0.54198,-0.77492 -0.90943,-0.93942 -0.29197,-0.13071 -0.35566,-0.13544 -1.83969,-0.13676 -1.76411,-0.001 -1.90626,0.0267 -2.385,0.47453 -0.48846,0.4569 -0.51957,0.59652 -0.52436,2.35384 -0.002,0.94601 0.0202,1.61078 0.0602,1.75856 0.12374,0.4568 0.56063,0.92145 1.02712,1.09237 0.34392,0.12601 3.20504,0.12689 3.57421,0.001 z m -3.39623,-1.07313 c -0.24749,-0.19468 -0.28088,-0.43243 -0.26023,-1.85319 0.0209,-1.43569 0.0337,-1.49117 0.38142,-1.65621 0.15831,-0.0751 0.41841,-0.0871 1.58028,-0.0725 l 1.39078,0.0174 0.18955,0.18953 0.18953,0.18953 0.0189,1.23169 c 0.0227,1.47816 -0.002,1.68755 -0.22242,1.90824 l -0.1646,0.1646 h -1.47588 c -1.40089,0 -1.48357,-0.006 -1.62732,-0.11913 z m 2.20742,-1.34782 c 0.77233,-0.77233 0.82884,-0.84371 0.82884,-1.0468 0,-0.29557 -0.20545,-0.50273 -0.49857,-0.50273 -0.19221,0 -0.27114,0.0564 -0.782,0.55825 l -0.56821,0.55825 -0.15661,-0.12318 c -0.35355,-0.27811 -0.83706,-0.0602 -0.83706,0.37726 0,0.18915 0.0487,0.26436 0.39606,0.61173 0.59346,0.59346 0.59052,0.59424 1.61755,-0.43278 z m 16.90931,2.42095 c 0.33646,-0.11465 0.69834,-0.42366 0.90214,-0.77034 l 0.15912,-0.27068 0.0179,-1.65053 c 0.0157,-1.45136 0.006,-1.68215 -0.0822,-1.91267 -0.13528,-0.3542 -0.54146,-0.77439 -0.90942,-0.94078 l -0.30243,-0.13676 h -5.48188 -5.48187 l -0.33149,0.16278 c -0.18492,0.0908 -0.43308,0.27819 -0.56123,0.42379 -0.38511,0.4375 -0.41249,0.59122 -0.41249,2.31557 0,0.9986 0.023,1.58575 0.0672,1.71544 0.15829,0.46441 0.60557,0.91975 1.06397,1.08315 0.11849,0.0422 1.91548,0.0635 5.63106,0.0666 4.79131,0.004 5.48932,-0.006 5.72165,-0.0856 z m -11.27017,-1.12357 -0.16956,-0.16956 v -1.48279 -1.48278 l 0.16926,-0.18944 0.16925,-0.18945 5.29811,-0.016 c 4.73551,-0.0143 5.31997,-0.006 5.50389,0.076 0.36153,0.16172 0.3723,0.20693 0.39329,1.65128 0.0206,1.42076 -0.0127,1.65851 -0.26022,1.85319 -0.1503,0.11822 -0.19234,0.11913 -5.54295,0.11913 h -5.3915 z m 9.87736,-1.32052 c 0.17353,-0.16625 0.21175,-0.39821 0.10002,-0.60697 -0.14924,-0.27887 -0.19261,-0.28166 -4.36002,-0.28049 -2.49609,6.6e-4 -3.98174,0.0226 -4.12011,0.0608 -0.14612,0.0404 -0.24468,0.11445 -0.3035,0.2282 -0.12341,0.23864 -0.10885,0.3715 0.0631,0.57582 l 0.15019,0.17848 h 4.15383 4.15383 z m -14.18071,-4.98126 c 0.35007,-0.17446 0.67927,-0.51875 0.83706,-0.87546 0.10463,-0.23654 0.11146,-0.37475 0.095,-1.9214 -0.0202,-1.88772 -0.0268,-1.91845 -0.5132,-2.35787 -0.47362,-0.42789 -0.52355,-0.43721 -2.34702,-0.43801 -1.5894,-6.5e-4 -1.63048,0.002 -1.9143,0.13682 -0.35274,0.16725 -0.67842,0.49714 -0.83668,0.8475 -0.10935,0.24206 -0.11802,0.37824 -0.1192,1.87266 -7.9e-4,1.31793 0.0149,1.65036 0.0875,1.82417 0.18377,0.4398 0.5804,0.82787 0.99876,0.97716 0.16105,0.0575 0.63322,0.0783 1.81601,0.0802 l 1.59837,0.003 z m -3.37841,-0.91918 c -0.0957,-0.0422 -0.22623,-0.13532 -0.29004,-0.20683 -0.10955,-0.12277 -0.11602,-0.21203 -0.11602,-1.60204 v -1.47203 l 0.18964,-0.18967 0.18965,-0.18966 h 1.47203 c 1.98507,0 1.89032,-0.0937 1.89018,1.86893 -1.3e-4,1.91293 0.0395,1.87359 -1.88521,1.8703 -0.92874,-0.002 -1.32358,-0.0231 -1.45023,-0.079 z m 2.04033,-1.43879 c 0.78215,-0.77548 0.83113,-0.83717 0.83113,-1.04681 0,-0.3006 -0.20327,-0.50753 -0.49857,-0.50753 -0.19221,0 -0.27114,0.0563 -0.782,0.55826 l -0.56821,0.55825 -0.15661,-0.12318 c -0.28594,-0.22493 -0.67167,-0.13791 -0.80612,0.18186 -0.10961,0.26067 -0.0254,0.43835 0.40282,0.8495 0.55904,0.53682 0.56289,0.53567 1.57756,-0.47035 z m 17.13827,2.32 c 0.32017,-0.18822 0.6075,-0.50266 0.75393,-0.82506 0.0959,-0.21118 0.10719,-0.4056 0.10782,-1.86009 6.6e-4,-1.5808 -0.003,-1.63202 -0.13464,-1.9143 -0.15468,-0.33146 -0.52024,-0.68648 -0.87073,-0.84563 -0.22938,-0.10416 -0.48478,-0.10903 -5.78298,-0.11025 l -5.54299,-0.001 -0.30079,0.14989 c -0.3689,0.18383 -0.72686,0.57891 -0.84881,0.93683 -0.13136,0.38549 -0.13389,3.1869 -0.003,3.55724 0.16055,0.45504 0.55595,0.85732 0.99941,1.01678 0.17788,0.064 1.23515,0.076 5.78653,0.0657 l 5.56891,-0.0125 z m -11.2964,-0.88341 c -0.36177,-0.15704 -0.37,-0.1971 -0.37,-1.80174 0,-1.24981 0.0133,-1.47234 0.0946,-1.58847 0.21175,-0.30232 0.0873,-0.29583 5.66144,-0.29526 4.79786,4.4e-4 5.19709,0.008 5.38347,0.101 0.36867,0.184 0.40415,0.34047 0.40415,1.78273 0,1.44146 -0.0356,1.59879 -0.40325,1.78229 -0.18527,0.0925 -0.59242,0.0999 -5.39486,0.099 -4.241,-8.7e-4 -5.2277,-0.0154 -5.37555,-0.0796 z m 9.69737,-1.46215 c 0.19331,-0.20859 0.18905,-0.48001 -0.0107,-0.67973 l -0.15294,-0.15294 -2.35596,-0.004 c -1.29578,-0.002 -3.1652,-0.001 -4.15425,0.001 l -1.7983,0.005 -0.15952,0.17353 c -0.19946,0.21696 -0.20219,0.40212 -0.009,0.63131 l 0.15018,0.17848 h 4.17428 4.17428 z m -15.8039,-7.81672 c -0.29166,-0.16165 -0.29219,-0.16715 -0.29416,-3.02254 -0.002,-2.55235 0.003,-2.67656 0.11216,-2.8554 0.0627,-0.10283 0.17355,-0.2004 0.24633,-0.21682 0.0727,-0.0164 0.94751,-0.0367 1.94387,-0.0451 l 1.81156,-0.0152 0.1598,-0.15989 c 0.14976,-0.14983 0.16033,-0.1936 0.16814,-0.69611 0.0161,-1.03084 0.30027,-1.71386 1.01334,-2.43511 0.55044,-0.55675 1.06679,-0.82354 1.84913,-0.95546 0.47145,-0.0795 0.57856,-0.0794 1.05646,0.001 0.76464,0.12893 1.29201,0.40295 1.85256,0.96258 0.68924,0.68811 0.99188,1.42782 1.00385,2.45353 0.006,0.4739 0.0168,0.519 0.16636,0.66871 l 0.16045,0.16054 1.91821,0.029 1.91821,0.029 0.1399,0.16276 0.13989,0.16276 v 2.69147 c 0,2.89068 -0.003,2.92575 -0.29846,3.07833 -0.22999,0.11894 -14.85311,0.1206 -15.0676,0.002 z m 8.54998,-4.87181 c 1.05473,-0.50668 1.61893,-1.66989 1.33919,-2.76103 -0.31444,-1.22656 -1.51724,-2.02468 -2.73653,-1.81583 -1.31318,0.22494 -2.23343,1.48579 -2.01502,2.76082 0.27415,1.60054 1.97581,2.50615 3.41236,1.81604 z m -1.43492,-0.84443 c -0.47287,-0.15275 -0.87721,-0.61489 -0.94738,-1.08282 -0.1762,-1.17497 0.95436,-2.01243 2.00524,-1.48539 1.24646,0.62512 0.85373,2.51909 -0.5389,2.59884 -0.19814,0.0113 -0.43166,-0.002 -0.51896,-0.0306 z"
       id="path133" /></g></svg>
